<svg version="1.1" xmlns="http://www.w3.org/2000/svg" xmlns:xlink="http://www.w3.org/1999/xlink" width="648" height="536"><defs><clipPath id="mAazvfdeTocO"><path fill="none" stroke="none" d=" M 0 0 L 648 0 L 648 536 L 0 536 L 0 0 Z"/></clipPath></defs><g transform="scale(1,1)" clip-path="url(#mAazvfdeTocO)"><g><rect fill="rgb(255,255,255)" stroke="none" x="0" y="0" width="648" height="536" fill-opacity="1"/><path fill="none" stroke="rgb(192,192,192)" paint-order="fill stroke markers" d=" M 22.5 0.5 L 22.5 536.5 M 22.5 0.5 L 22.5 536.5 M 78.5 0.5 L 78.5 536.5 M 134.5 0.5 L 134.5 536.5 M 247.5 0.5 L 247.5 536.5 M 304.5 0.5 L 304.5 536.5 M 360.5 0.5 L 360.5 536.5 M 416.5 0.5 L 416.5 536.5 M 473.5 0.5 L 473.5 536.5 M 529.5 0.5 L 529.5 536.5 M 586.5 0.5 L 586.5 536.5 M 642.5 0.5 L 642.5 536.5" stroke-opacity="1" stroke-linecap="round" stroke-linejoin="round" stroke-miterlimit="10"/><path fill="none" stroke="rgb(192,192,192)" paint-order="fill stroke markers" d=" M 10.5 0.5 L 10.5 536.5 M 33.5 0.5 L 33.5 536.5 M 44.5 0.5 L 44.5 536.5 M 55.5 0.5 L 55.5 536.5 M 67.5 0.5 L 67.5 536.5 M 89.5 0.5 L 89.5 536.5 M 100.5 0.5 L 100.5 536.5 M 112.5 0.5 L 112.5 536.5 M 123.5 0.5 L 123.5 536.5 M 146.5 0.5 L 146.5 536.5 M 157.5 0.5 L 157.5 536.5 M 168.5 0.5 L 168.5 536.5 M 179.5 0.5 L 179.5 536.5 M 202.5 0.5 L 202.5 536.5 M 213.5 0.5 L 213.5 536.5 M 225.5 0.5 L 225.5 536.5 M 236.5 0.5 L 236.5 536.5 M 258.5 0.5 L 258.5 536.5 M 270.5 0.5 L 270.5 536.5 M 281.5 0.5 L 281.5 536.5 M 292.5 0.5 L 292.5 536.5 M 315.5 0.5 L 315.5 536.5 M 326.5 0.5 L 326.5 536.5 M 337.5 0.5 L 337.5 536.5 M 349.5 0.5 L 349.5 536.5 M 371.5 0.5 L 371.5 536.5 M 383.5 0.5 L 383.5 536.5 M 394.5 0.5 L 394.5 536.5 M 405.5 0.5 L 405.5 536.5 M 428.5 0.5 L 428.5 536.5 M 439.5 0.5 L 439.5 536.5 M 450.5 0.5 L 450.5 536.5 M 462.5 0.5 L 462.5 536.5 M 484.5 0.5 L 484.5 536.5 M 495.5 0.5 L 495.5 536.5 M 507.5 0.5 L 507.5 536.5 M 518.5 0.5 L 518.5 536.5 M 541.5 0.5 L 541.5 536.5 M 552.5 0.5 L 552.5 536.5 M 563.5 0.5 L 563.5 536.5 M 574.5 0.5 L 574.5 536.5 M 597.5 0.5 L 597.5 536.5 M 608.5 0.5 L 608.5 536.5 M 620.5 0.5 L 620.5 536.5 M 631.5 0.5 L 631.5 536.5" stroke-opacity="0.23529411764705882" stroke-linecap="round" stroke-linejoin="round" stroke-miterlimit="10"/><path fill="none" stroke="rgb(192,192,192)" paint-order="fill stroke markers" d=" M 0.5 47.5 L 648.5 47.5 M 0.5 47.5 L 648.5 47.5 M 0.5 103.5 L 648.5 103.5 M 0.5 159.5 L 648.5 159.5 M 0.5 216.5 L 648.5 216.5 M 0.5 272.5 L 648.5 272.5 M 0.5 329.5 L 648.5 329.5 M 0.5 385.5 L 648.5 385.5 M 0.5 498.5 L 648.5 498.5" stroke-opacity="1" stroke-linecap="round" stroke-linejoin="round" stroke-miterlimit="10"/><path fill="none" stroke="rgb(192,192,192)" paint-order="fill stroke markers" d=" M 0.5 1.5 L 648.5 1.5 M 0.5 13.5 L 648.5 13.5 M 0.5 24.5 L 648.5 24.5 M 0.5 35.5 L 648.5 35.5 M 0.5 58.5 L 648.5 58.5 M 0.5 69.5 L 648.5 69.5 M 0.5 80.5 L 648.5 80.5 M 0.5 92.5 L 648.5 92.5 M 0.5 114.5 L 648.5 114.5 M 0.5 126.5 L 648.5 126.5 M 0.5 137.5 L 648.5 137.5 M 0.5 148.5 L 648.5 148.5 M 0.5 171.5 L 648.5 171.5 M 0.5 182.5 L 648.5 182.5 M 0.5 193.5 L 648.5 193.5 M 0.5 205.5 L 648.5 205.5 M 0.5 227.5 L 648.5 227.5 M 0.5 238.5 L 648.5 238.5 M 0.5 250.5 L 648.5 250.5 M 0.5 261.5 L 648.5 261.5 M 0.5 284.5 L 648.5 284.5 M 0.5 295.5 L 648.5 295.5 M 0.5 306.5 L 648.5 306.5 M 0.5 317.5 L 648.5 317.5 M 0.5 340.5 L 648.5 340.5 M 0.5 351.5 L 648.5 351.5 M 0.5 363.5 L 648.5 363.5 M 0.5 374.5 L 648.5 374.5 M 0.5 396.5 L 648.5 396.5 M 0.5 408.5 L 648.5 408.5 M 0.5 419.5 L 648.5 419.5 M 0.5 430.5 L 648.5 430.5 M 0.5 453.5 L 648.5 453.5 M 0.5 464.5 L 648.5 464.5 M 0.5 475.5 L 648.5 475.5 M 0.5 487.5 L 648.5 487.5 M 0.5 509.5 L 648.5 509.5 M 0.5 520.5 L 648.5 520.5 M 0.5 532.5 L 648.5 532.5" stroke-opacity="0.23529411764705882" stroke-linecap="round" stroke-linejoin="round" stroke-miterlimit="10"/><path fill="none" stroke="rgb(0,0,0)" paint-order="fill stroke markers" d=" M 191.5 2.5 L 191.5 536.5" stroke-opacity="1" stroke-miterlimit="10"/><path fill="none" stroke="rgb(0,0,0)" paint-order="fill stroke markers" d=" M 191.5 1.5 L 187.5 5.5" stroke-opacity="1" stroke-miterlimit="10"/><path fill="none" stroke="rgb(0,0,0)" paint-order="fill stroke markers" d=" M 191.5 1.5 L 195.5 5.5" stroke-opacity="1" stroke-miterlimit="10"/><path fill="none" stroke="rgb(0,0,0)" paint-order="fill stroke markers" d=" M 0.5 441.5 L 646.5 441.5" stroke-opacity="1" stroke-miterlimit="10"/><path fill="none" stroke="rgb(0,0,0)" paint-order="fill stroke markers" d=" M 647.5 441.5 L 643.5 437.5" stroke-opacity="1" stroke-miterlimit="10"/><path fill="none" stroke="rgb(0,0,0)" paint-order="fill stroke markers" d=" M 647.5 441.5 L 643.5 445.5" stroke-opacity="1" stroke-miterlimit="10"/><text fill="rgb(0,0,0)" stroke="none" font-family="geogebra-sans-serif, sans-serif" font-size="12px" font-style="normal" font-weight="normal" text-decoration="normal" x="11" y="457" text-anchor="start" dominant-baseline="alphabetic" fill-opacity="1">–600</text><text fill="none" stroke="rgb(255,255,255)" font-family="geogebra-sans-serif, sans-serif" font-size="12px" font-style="normal" font-weight="normal" text-decoration="normal" x="11" y="457" text-anchor="start" dominant-baseline="alphabetic" stroke-opacity="1" stroke-linejoin="bevel" stroke-miterlimit="10" stroke-width="3">–600</text><text fill="rgb(0,0,0)" stroke="none" font-family="geogebra-sans-serif, sans-serif" font-size="12px" font-style="normal" font-weight="normal" text-decoration="normal" x="11" y="457" text-anchor="start" dominant-baseline="alphabetic" fill-opacity="1">–600</text><text fill="rgb(0,0,0)" stroke="none" font-family="geogebra-sans-serif, sans-serif" font-size="12px" font-style="normal" font-weight="normal" text-decoration="normal" x="67" y="457" text-anchor="start" dominant-baseline="alphabetic" fill-opacity="1">–400</text><text fill="none" stroke="rgb(255,255,255)" font-family="geogebra-sans-serif, sans-serif" font-size="12px" font-style="normal" font-weight="normal" text-decoration="normal" x="67" y="457" text-anchor="start" dominant-baseline="alphabetic" stroke-opacity="1" stroke-linejoin="bevel" stroke-miterlimit="10" stroke-width="3">–400</text><text fill="rgb(0,0,0)" stroke="none" font-family="geogebra-sans-serif, sans-serif" font-size="12px" font-style="normal" font-weight="normal" text-decoration="normal" x="67" y="457" text-anchor="start" dominant-baseline="alphabetic" fill-opacity="1">–400</text><text fill="rgb(0,0,0)" stroke="none" font-family="geogebra-sans-serif, sans-serif" font-size="12px" font-style="normal" font-weight="normal" text-decoration="normal" x="123" y="457" text-anchor="start" dominant-baseline="alphabetic" fill-opacity="1">–200</text><text fill="none" stroke="rgb(255,255,255)" font-family="geogebra-sans-serif, sans-serif" font-size="12px" font-style="normal" font-weight="normal" text-decoration="normal" x="123" y="457" text-anchor="start" dominant-baseline="alphabetic" stroke-opacity="1" stroke-linejoin="bevel" stroke-miterlimit="10" stroke-width="3">–200</text><text fill="rgb(0,0,0)" stroke="none" font-family="geogebra-sans-serif, sans-serif" font-size="12px" font-style="normal" font-weight="normal" text-decoration="normal" x="123" y="457" text-anchor="start" dominant-baseline="alphabetic" fill-opacity="1">–200</text><text fill="rgb(0,0,0)" stroke="none" font-family="geogebra-sans-serif, sans-serif" font-size="12px" font-style="normal" font-weight="normal" text-decoration="normal" x="239" y="457" text-anchor="start" dominant-baseline="alphabetic" fill-opacity="1">200</text><text fill="none" stroke="rgb(255,255,255)" font-family="geogebra-sans-serif, sans-serif" font-size="12px" font-style="normal" font-weight="normal" text-decoration="normal" x="239" y="457" text-anchor="start" dominant-baseline="alphabetic" stroke-opacity="1" stroke-linejoin="bevel" stroke-miterlimit="10" stroke-width="3">200</text><text fill="rgb(0,0,0)" stroke="none" font-family="geogebra-sans-serif, sans-serif" font-size="12px" font-style="normal" font-weight="normal" text-decoration="normal" x="239" y="457" text-anchor="start" dominant-baseline="alphabetic" fill-opacity="1">200</text><text fill="rgb(0,0,0)" stroke="none" font-family="geogebra-sans-serif, sans-serif" font-size="12px" font-style="normal" font-weight="normal" text-decoration="normal" x="296" y="457" text-anchor="start" dominant-baseline="alphabetic" fill-opacity="1">400</text><text fill="none" stroke="rgb(255,255,255)" font-family="geogebra-sans-serif, sans-serif" font-size="12px" font-style="normal" font-weight="normal" text-decoration="normal" x="296" y="457" text-anchor="start" dominant-baseline="alphabetic" stroke-opacity="1" stroke-linejoin="bevel" stroke-miterlimit="10" stroke-width="3">400</text><text fill="rgb(0,0,0)" stroke="none" font-family="geogebra-sans-serif, sans-serif" font-size="12px" font-style="normal" font-weight="normal" text-decoration="normal" x="296" y="457" text-anchor="start" dominant-baseline="alphabetic" fill-opacity="1">400</text><text fill="rgb(0,0,0)" stroke="none" font-family="geogebra-sans-serif, sans-serif" font-size="12px" font-style="normal" font-weight="normal" text-decoration="normal" x="352" y="457" text-anchor="start" dominant-baseline="alphabetic" fill-opacity="1">600</text><text fill="none" stroke="rgb(255,255,255)" font-family="geogebra-sans-serif, sans-serif" font-size="12px" font-style="normal" font-weight="normal" text-decoration="normal" x="352" y="457" text-anchor="start" dominant-baseline="alphabetic" stroke-opacity="1" stroke-linejoin="bevel" stroke-miterlimit="10" stroke-width="3">600</text><text fill="rgb(0,0,0)" stroke="none" font-family="geogebra-sans-serif, sans-serif" font-size="12px" font-style="normal" font-weight="normal" text-decoration="normal" x="352" y="457" text-anchor="start" dominant-baseline="alphabetic" fill-opacity="1">600</text><text fill="rgb(0,0,0)" stroke="none" font-family="geogebra-sans-serif, sans-serif" font-size="12px" font-style="normal" font-weight="normal" text-decoration="normal" x="408" y="457" text-anchor="start" dominant-baseline="alphabetic" fill-opacity="1">800</text><text fill="none" stroke="rgb(255,255,255)" font-family="geogebra-sans-serif, sans-serif" font-size="12px" font-style="normal" font-weight="normal" text-decoration="normal" x="408" y="457" text-anchor="start" dominant-baseline="alphabetic" stroke-opacity="1" stroke-linejoin="bevel" stroke-miterlimit="10" stroke-width="3">800</text><text fill="rgb(0,0,0)" stroke="none" font-family="geogebra-sans-serif, sans-serif" font-size="12px" font-style="normal" font-weight="normal" text-decoration="normal" x="408" y="457" text-anchor="start" dominant-baseline="alphabetic" fill-opacity="1">800</text><text fill="rgb(0,0,0)" stroke="none" font-family="geogebra-sans-serif, sans-serif" font-size="12px" font-style="normal" font-weight="normal" text-decoration="normal" x="462" y="457" text-anchor="start" dominant-baseline="alphabetic" fill-opacity="1">1000</text><text fill="none" stroke="rgb(255,255,255)" font-family="geogebra-sans-serif, sans-serif" font-size="12px" font-style="normal" font-weight="normal" text-decoration="normal" x="462" y="457" text-anchor="start" dominant-baseline="alphabetic" stroke-opacity="1" stroke-linejoin="bevel" stroke-miterlimit="10" stroke-width="3">1000</text><text fill="rgb(0,0,0)" stroke="none" font-family="geogebra-sans-serif, sans-serif" font-size="12px" font-style="normal" font-weight="normal" text-decoration="normal" x="462" y="457" text-anchor="start" dominant-baseline="alphabetic" fill-opacity="1">1000</text><text fill="rgb(0,0,0)" stroke="none" font-family="geogebra-sans-serif, sans-serif" font-size="12px" font-style="normal" font-weight="normal" text-decoration="normal" x="518" y="457" text-anchor="start" dominant-baseline="alphabetic" fill-opacity="1">1200</text><text fill="none" stroke="rgb(255,255,255)" font-family="geogebra-sans-serif, sans-serif" font-size="12px" font-style="normal" font-weight="normal" text-decoration="normal" x="518" y="457" text-anchor="start" dominant-baseline="alphabetic" stroke-opacity="1" stroke-linejoin="bevel" stroke-miterlimit="10" stroke-width="3">1200</text><text fill="rgb(0,0,0)" stroke="none" font-family="geogebra-sans-serif, sans-serif" font-size="12px" font-style="normal" font-weight="normal" text-decoration="normal" x="518" y="457" text-anchor="start" dominant-baseline="alphabetic" fill-opacity="1">1200</text><text fill="rgb(0,0,0)" stroke="none" font-family="geogebra-sans-serif, sans-serif" font-size="12px" font-style="normal" font-weight="normal" text-decoration="normal" x="575" y="457" text-anchor="start" dominant-baseline="alphabetic" fill-opacity="1">1400</text><text fill="none" stroke="rgb(255,255,255)" font-family="geogebra-sans-serif, sans-serif" font-size="12px" font-style="normal" font-weight="normal" text-decoration="normal" x="575" y="457" text-anchor="start" dominant-baseline="alphabetic" stroke-opacity="1" stroke-linejoin="bevel" stroke-miterlimit="10" stroke-width="3">1400</text><text fill="rgb(0,0,0)" stroke="none" font-family="geogebra-sans-serif, sans-serif" font-size="12px" font-style="normal" font-weight="normal" text-decoration="normal" x="575" y="457" text-anchor="start" dominant-baseline="alphabetic" fill-opacity="1">1400</text><text fill="rgb(0,0,0)" stroke="none" font-family="geogebra-sans-serif, sans-serif" font-size="12px" font-style="normal" font-weight="normal" text-decoration="normal" x="157" y="503" text-anchor="start" dominant-baseline="alphabetic" fill-opacity="1">–200</text><text fill="none" stroke="rgb(255,255,255)" font-family="geogebra-sans-serif, sans-serif" font-size="12px" font-style="normal" font-weight="normal" text-decoration="normal" x="157" y="503" text-anchor="start" dominant-baseline="alphabetic" stroke-opacity="1" stroke-linejoin="bevel" stroke-miterlimit="10" stroke-width="3">–200</text><text fill="rgb(0,0,0)" stroke="none" font-family="geogebra-sans-serif, sans-serif" font-size="12px" font-style="normal" font-weight="normal" text-decoration="normal" x="157" y="503" text-anchor="start" dominant-baseline="alphabetic" fill-opacity="1">–200</text><text fill="rgb(0,0,0)" stroke="none" font-family="geogebra-sans-serif, sans-serif" font-size="12px" font-style="normal" font-weight="normal" text-decoration="normal" x="164" y="390" text-anchor="start" dominant-baseline="alphabetic" fill-opacity="1">200</text><text fill="none" stroke="rgb(255,255,255)" font-family="geogebra-sans-serif, sans-serif" font-size="12px" font-style="normal" font-weight="normal" text-decoration="normal" x="164" y="390" text-anchor="start" dominant-baseline="alphabetic" stroke-opacity="1" stroke-linejoin="bevel" stroke-miterlimit="10" stroke-width="3">200</text><text fill="rgb(0,0,0)" stroke="none" font-family="geogebra-sans-serif, sans-serif" font-size="12px" font-style="normal" font-weight="normal" text-decoration="normal" x="164" y="390" text-anchor="start" dominant-baseline="alphabetic" fill-opacity="1">200</text><text fill="rgb(0,0,0)" stroke="none" font-family="geogebra-sans-serif, sans-serif" font-size="12px" font-style="normal" font-weight="normal" text-decoration="normal" x="164" y="334" text-anchor="start" dominant-baseline="alphabetic" fill-opacity="1">400</text><text fill="none" stroke="rgb(255,255,255)" font-family="geogebra-sans-serif, sans-serif" font-size="12px" font-style="normal" font-weight="normal" text-decoration="normal" x="164" y="334" text-anchor="start" dominant-baseline="alphabetic" stroke-opacity="1" stroke-linejoin="bevel" stroke-miterlimit="10" stroke-width="3">400</text><text fill="rgb(0,0,0)" stroke="none" font-family="geogebra-sans-serif, sans-serif" font-size="12px" font-style="normal" font-weight="normal" text-decoration="normal" x="164" y="334" text-anchor="start" dominant-baseline="alphabetic" fill-opacity="1">400</text><text fill="rgb(0,0,0)" stroke="none" font-family="geogebra-sans-serif, sans-serif" font-size="12px" font-style="normal" font-weight="normal" text-decoration="normal" x="164" y="277" text-anchor="start" dominant-baseline="alphabetic" fill-opacity="1">600</text><text fill="none" stroke="rgb(255,255,255)" font-family="geogebra-sans-serif, sans-serif" font-size="12px" font-style="normal" font-weight="normal" text-decoration="normal" x="164" y="277" text-anchor="start" dominant-baseline="alphabetic" stroke-opacity="1" stroke-linejoin="bevel" stroke-miterlimit="10" stroke-width="3">600</text><text fill="rgb(0,0,0)" stroke="none" font-family="geogebra-sans-serif, sans-serif" font-size="12px" font-style="normal" font-weight="normal" text-decoration="normal" x="164" y="277" text-anchor="start" dominant-baseline="alphabetic" fill-opacity="1">600</text><text fill="rgb(0,0,0)" stroke="none" font-family="geogebra-sans-serif, sans-serif" font-size="12px" font-style="normal" font-weight="normal" text-decoration="normal" x="164" y="221" text-anchor="start" dominant-baseline="alphabetic" fill-opacity="1">800</text><text fill="none" stroke="rgb(255,255,255)" font-family="geogebra-sans-serif, sans-serif" font-size="12px" font-style="normal" font-weight="normal" text-decoration="normal" x="164" y="221" text-anchor="start" dominant-baseline="alphabetic" stroke-opacity="1" stroke-linejoin="bevel" stroke-miterlimit="10" stroke-width="3">800</text><text fill="rgb(0,0,0)" stroke="none" font-family="geogebra-sans-serif, sans-serif" font-size="12px" font-style="normal" font-weight="normal" text-decoration="normal" x="164" y="221" text-anchor="start" dominant-baseline="alphabetic" fill-opacity="1">800</text><text fill="rgb(0,0,0)" stroke="none" font-family="geogebra-sans-serif, sans-serif" font-size="12px" font-style="normal" font-weight="normal" text-decoration="normal" x="157" y="164" text-anchor="start" dominant-baseline="alphabetic" fill-opacity="1">1000</text><text fill="none" stroke="rgb(255,255,255)" font-family="geogebra-sans-serif, sans-serif" font-size="12px" font-style="normal" font-weight="normal" text-decoration="normal" x="157" y="164" text-anchor="start" dominant-baseline="alphabetic" stroke-opacity="1" stroke-linejoin="bevel" stroke-miterlimit="10" stroke-width="3">1000</text><text fill="rgb(0,0,0)" stroke="none" font-family="geogebra-sans-serif, sans-serif" font-size="12px" font-style="normal" font-weight="normal" text-decoration="normal" x="157" y="164" text-anchor="start" dominant-baseline="alphabetic" fill-opacity="1">1000</text><text fill="rgb(0,0,0)" stroke="none" font-family="geogebra-sans-serif, sans-serif" font-size="12px" font-style="normal" font-weight="normal" text-decoration="normal" x="157" y="108" text-anchor="start" dominant-baseline="alphabetic" fill-opacity="1">1200</text><text fill="none" stroke="rgb(255,255,255)" font-family="geogebra-sans-serif, sans-serif" font-size="12px" font-style="normal" font-weight="normal" text-decoration="normal" x="157" y="108" text-anchor="start" dominant-baseline="alphabetic" stroke-opacity="1" stroke-linejoin="bevel" stroke-miterlimit="10" stroke-width="3">1200</text><text fill="rgb(0,0,0)" stroke="none" font-family="geogebra-sans-serif, sans-serif" font-size="12px" font-style="normal" font-weight="normal" text-decoration="normal" x="157" y="108" text-anchor="start" dominant-baseline="alphabetic" fill-opacity="1">1200</text><text fill="rgb(0,0,0)" stroke="none" font-family="geogebra-sans-serif, sans-serif" font-size="12px" font-style="normal" font-weight="normal" text-decoration="normal" x="157" y="52" text-anchor="start" dominant-baseline="alphabetic" fill-opacity="1">1400</text><text fill="none" stroke="rgb(255,255,255)" font-family="geogebra-sans-serif, sans-serif" font-size="12px" font-style="normal" font-weight="normal" text-decoration="normal" x="157" y="52" text-anchor="start" dominant-baseline="alphabetic" stroke-opacity="1" stroke-linejoin="bevel" stroke-miterlimit="10" stroke-width="3">1400</text><text fill="rgb(0,0,0)" stroke="none" font-family="geogebra-sans-serif, sans-serif" font-size="12px" font-style="normal" font-weight="normal" text-decoration="normal" x="157" y="52" text-anchor="start" dominant-baseline="alphabetic" fill-opacity="1">1400</text><text fill="rgb(0,0,0)" stroke="none" font-family="geogebra-sans-serif, sans-serif" font-size="12px" font-style="normal" font-weight="normal" text-decoration="normal" x="177" y="457" text-anchor="start" dominant-baseline="alphabetic" fill-opacity="1">0</text><text fill="none" stroke="rgb(255,255,255)" font-family="geogebra-sans-serif, sans-serif" font-size="12px" font-style="normal" font-weight="normal" text-decoration="normal" x="177" y="457" text-anchor="start" dominant-baseline="alphabetic" stroke-opacity="1" stroke-linejoin="bevel" stroke-miterlimit="10" stroke-width="3">0</text><text fill="rgb(0,0,0)" stroke="none" font-family="geogebra-sans-serif, sans-serif" font-size="12px" font-style="normal" font-weight="normal" text-decoration="normal" x="177" y="457" text-anchor="start" dominant-baseline="alphabetic" fill-opacity="1">0</text><path fill="none" stroke="rgb(153,51,0)" paint-order="fill stroke markers" d=" M 1 424.6822844099563 L 1 427.4940753663621 L 1 424.6822844099564 L 2.0000000000000284 421.88523319999473 L 2.0000000000000284 421.88523319999484 L 3.0000000000000284 419.1029217364771 L 3.0000000000000284 419.1029217364772 L 4.000000000000028 416.3353500194034 L 4.000000000000028 416.33535001940356 L 5.000000000000028 413.58251804877375 L 5.000000000000028 413.5825180487739 L 6.000000000000028 410.84442582458814 L 6.000000000000028 410.84442582458826 L 6.999999999999972 408.1210733468467 L 6.999999999999972 408.1210733468468 L 8 405.41246061554904 L 8 405.41246061554915 L 9 402.71858763069537 L 9 402.71858763069554 L 10 400.03945439228573 L 10 400.0394543922859 L 11 397.3750609003201 L 11 397.37506090032025 L 12.000000000000028 394.7254071547984 L 12.000000000000028 394.7254071547986 L 13.000000000000028 392.0904931557208 L 13.000000000000028 392.09049315572094 L 14.000000000000028 389.47031890308716 L 14.000000000000028 389.4703189030873 L 15.000000000000028 386.8648843968975 L 15.000000000000028 386.86488439689765 L 15.999999999999972 384.27418963715206 L 15.999999999999972 384.2741896371522 L 17 381.6982346238504 L 17 381.6982346238505 L 18 379.1370193569927 L 18 379.1370193569929 L 19 376.59054383657906 L 19 376.59054383657923 L 20 374.05880806260944 L 20 374.05880806260956 L 21.00000000000003 371.54181203508375 L 21.00000000000003 371.5418120350839 L 22.00000000000003 369.0395557540021 L 22.00000000000003 369.03955575400227 L 23.00000000000003 366.5520392193645 L 23.00000000000003 366.5520392193646 L 24.00000000000003 364.07926243117083 L 24.00000000000003 364.07926243117095 L 25.000000000000057 361.62122538942117 L 25.000000000000057 361.6212253894213 L 26 359.17792809411566 L 26 359.17792809411577 L 27 356.749370545254 L 27 356.7493705452541 L 28 354.3355527428363 L 28 354.33555274283646 L 29 351.93647468686265 L 29 351.93647468686277 L 30 349.552136377333 L 30 349.5521363773331 L 31.00000000000003 347.1825378142473 L 31.00000000000003 347.1825378142475 L 32.00000000000003 344.8276789976057 L 32.00000000000003 344.8276789976058 L 33.00000000000003 342.48755992740803 L 33.00000000000003 342.48755992740814 L 34.00000000000003 340.16218060365435 L 34.00000000000003 340.1621806036545 L 34.99999999999997 337.8515410263448 L 34.99999999999997 337.851541026345 L 36.00000000000003 335.5556411954791 L 36.00000000000003 335.5556411954792 L 37.00000000000003 333.2744811110574 L 37.00000000000003 333.2744811110576 L 38 331.0080607730798 L 38 331.00806077307993 L 39 328.75638018154615 L 39 328.7563801815463 L 40.00000000000003 326.51943933645646 L 40.00000000000003 326.5194393364566 L 41.00000000000003 324.2972382378108 L 41.00000000000003 324.297238237811 L 42 322.08977688560924 L 42 322.08977688560935 L 43 319.89705527985154 L 43 319.8970552798517 L 44 317.7190734205379 L 44 317.71907342053805 L 45.00000000000003 315.5558313076682 L 45.00000000000003 315.55583130766837 L 46.00000000000003 313.40732894124255 L 46.00000000000003 313.40732894124267 L 47 311.27356632126094 L 47 311.27356632126106 L 48 309.1545434477233 L 48 309.15454344772337 L 49.00000000000003 307.0502603206296 L 49.00000000000003 307.0502603206297 L 50.00000000000003 304.9607169399799 L 50.00000000000003 304.96071693998 L 51.00000000000003 302.88591330577424 L 51.00000000000003 302.88591330577435 L 52 300.8258494180126 L 52 300.8258494180127 L 53 298.7805252766949 L 53 298.780525276695 L 54.00000000000003 296.7499408818213 L 54.00000000000003 296.7499408818214 L 55.00000000000003 294.7340962333916 L 55.00000000000003 294.7340962333917 L 56.00000000000003 292.73299133140586 L 56.00000000000003 292.73299133140597 L 57 290.74662617586426 L 57 290.7466261758643 L 58 288.7750007667666 L 58 288.7750007667667 L 59.00000000000003 286.8181151041129 L 59.00000000000003 286.818115104113 L 60.00000000000003 284.87596918790325 L 60.00000000000003 284.8759691879033 L 61 282.94856301813763 L 61 282.94856301813763 L 62 281.0358965948159 L 62 281.035896594816 L 63 279.1379699179382 L 63 279.13796991793834 L 64.00000000000001 277.25478298750454 L 64.00000000000001 277.25478298750465 L 65.00000000000003 275.38633580351484 L 65.00000000000003 275.38633580351495 L 66 273.5326283659692 L 66 273.53262836596934 L 67.00000000000001 271.6936606748675 L 67.00000000000001 271.6936606748676 L 68.00000000000001 269.86943273020984 L 68.00000000000001 269.86943273020995 L 69.00000000000003 268.05994453199617 L 69.00000000000003 268.0599445319962 L 70.00000000000003 266.2651960802264 L 70.00000000000003 266.26519608022653 L 71 264.48518737490076 L 71 264.4851873749009 L 72.00000000000001 262.7199184160191 L 72.00000000000001 262.7199184160192 L 73.00000000000001 260.9693892035814 L 73.00000000000001 260.9693892035815 L 74.00000000000003 259.2335997375877 L 74.00000000000003 259.23359973758784 L 75.00000000000003 257.512550018038 L 75.00000000000003 257.51255001803804 L 76 255.8062400449323 L 76 255.80624004493245 L 77.00000000000001 254.11466981827067 L 77.00000000000001 254.11466981827073 L 78.00000000000001 252.43783933805295 L 78.00000000000001 252.43783933805304 L 79.00000000000003 250.77574860427924 L 79.00000000000003 250.77574860427933 L 80 249.12839761694957 L 80 249.1283976169497 L 81.00000000000001 247.4957863760639 L 81.00000000000001 247.495786376064 L 82.00000000000001 245.8779148816222 L 82.00000000000001 245.87791488162227 L 83.00000000000003 244.27478313362448 L 83.00000000000003 244.2747831336246 L 84.00000000000003 242.68639113207075 L 84.00000000000003 242.6863911320709 L 85 241.11273887696112 L 85 241.11273887696117 L 86.00000000000001 239.5538263682954 L 86.00000000000001 239.5538263682955 L 87.00000000000001 238.00965360607367 L 87.00000000000001 238.00965360607378 L 88.00000000000003 236.48022059029597 L 88.00000000000003 236.48022059029608 L 89.00000000000003 234.96552732096225 L 89.00000000000003 234.96552732096237 L 90 233.4655737980726 L 90 233.4655737980727 L 91.00000000000001 231.9803600216269 L 91.00000000000001 231.980360021627 L 92.00000000000001 230.5098859916252 L 92.00000000000001 230.50988599162525 L 93.00000000000003 229.05415170806748 L 93.00000000000003 229.05415170806756 L 94.00000000000003 227.61315717095374 L 94.00000000000003 227.61315717095383 L 95.00000000000001 226.18690238028407 L 95.00000000000001 226.18690238028418 L 96.00000000000001 224.77538733605837 L 96.00000000000001 224.77538733605846 L 97.00000000000003 223.37861203827669 L 97.00000000000003 223.37861203827674 L 98.00000000000003 221.99657648693892 L 98.00000000000003 221.99657648693903 L 99 220.62928068204525 L 99 220.62928068204533 L 100.00000000000001 219.27672462359553 L 100.00000000000001 219.27672462359564 L 101.00000000000001 217.93890831158978 L 101.00000000000001 217.93890831158987 L 102.00000000000003 216.61583174602808 L 102.00000000000003 216.61583174602816 L 103.00000000000003 215.30749492691038 L 103.00000000000003 215.30749492691046 L 104 214.0138978542367 L 104 214.01389785423677 L 105.00000000000001 212.73504052800695 L 105.00000000000001 212.73504052800703 L 106.00000000000001 211.47092294822122 L 106.00000000000001 211.47092294822133 L 107.00000000000003 210.2215451148795 L 107.00000000000003 210.2215451148796 L 108.00000000000003 208.98690702798177 L 108.00000000000003 208.98690702798189 L 109.00000000000001 207.76700868752806 L 109.00000000000001 207.76700868752818 L 110.00000000000001 206.56185009351836 L 110.00000000000001 206.56185009351844 L 111.00000000000001 205.3714312459526 L 111.00000000000001 205.37143124595272 L 112.00000000000003 204.1957521448309 L 112.00000000000003 204.19575214483098 L 113.00000000000003 203.03481279015315 L 113.00000000000003 203.03481279015327 L 114.00000000000001 201.88861318191945 L 114.00000000000001 201.88861318191954 L 115.00000000000001 200.75715332012973 L 115.00000000000001 200.7571533201298 L 116.00000000000003 199.640433204784 L 116.00000000000003 199.64043320478407 L 117.00000000000003 198.53845283588225 L 117.00000000000003 198.53845283588237 L 118 197.45121221342455 L 118 197.4512122134246 L 119.00000000000001 196.3787113374108 L 119.00000000000001 196.3787113374109 L 120.00000000000001 195.3209502078411 L 120.00000000000001 195.32095020784115 L 121.00000000000003 194.27792882471533 L 121.00000000000003 194.27792882471545 L 122.00000000000003 193.24964718803358 L 122.00000000000003 193.2496471880337 L 123 192.2361052977959 L 123 192.23610529779597 L 124.00000000000001 191.23730315400218 L 124.00000000000001 191.23730315400223 L 125.00000000000001 190.25324075665242 L 125.00000000000001 190.25324075665247 L 126.00000000000003 189.28391810574664 L 126.00000000000003 189.28391810574675 L 127.00000000000003 188.32933520128495 L 127.00000000000003 188.329335201285 L 128 187.38949204326718 L 128 187.38949204326732 L 129 186.46438863169345 L 129 186.46438863169354 L 130.00000000000003 185.5540249665637 L 130.00000000000003 185.55402496656382 L 131.00000000000003 184.658401047878 L 131.00000000000003 184.65840104787804 L 132 183.77751687563625 L 132 183.7775168756363 L 133 182.9113724498385 L 133 182.91137244983855 L 134 182.05996777048472 L 134 182.05996777048483 L 135.00000000000003 181.22330283757503 L 135.00000000000003 181.2233028375751 L 136.00000000000003 180.40137765110921 L 136.00000000000003 180.40137765110933 L 137 179.59419221108755 L 137 179.5941922110876 L 138 178.8017465175098 L 138 178.80174651750986 L 139.00000000000003 178.02404057037603 L 139.00000000000003 178.0240405703761 L 140.00000000000003 177.26107436968624 L 140.00000000000003 177.26107436968636 L 141.00000000000003 176.5128479154405 L 141.00000000000003 176.5128479154406 L 142 175.77936120763877 L 142 175.77936120763889 L 143 175.06061424628103 L 143 175.0606142462811 L 144.00000000000003 174.35660703136722 L 144.00000000000003 174.35660703136733 L 145.00000000000003 173.6673395628975 L 145.00000000000003 173.66733956289755 L 146.00000000000003 172.9928118408717 L 146.00000000000003 172.99281184087175 L 147 172.33302386529 L 147 172.33302386529004 L 148 171.6879756361522 L 148 171.68797563615232 L 149.00000000000003 171.05766715345845 L 149.00000000000003 171.05766715345857 L 150.00000000000003 170.44209841720874 L 150.00000000000003 170.4420984172088 L 151 169.84126942740295 L 151 169.841269427403 L 152 169.2551801840412 L 152 169.2551801840413 L 153.00000000000003 168.68383068712342 L 153.00000000000003 168.68383068712347 L 154.00000000000003 168.12722093664968 L 154.00000000000003 168.12722093664973 L 155.00000000000003 167.58535093261986 L 155.00000000000003 167.58535093261997 L 156 167.05822067503414 L 156 167.0582206750342 L 157 166.5458301638924 L 157 166.54583016389245 L 158.00000000000003 166.04817939919462 L 158.00000000000003 166.04817939919468 L 159.00000000000003 165.56526838094084 L 159.00000000000003 165.5652683809409 L 160.00000000000003 165.09709710913108 L 160.00000000000003 165.09709710913114 L 161 164.6436655837653 L 161 164.64366558376537 L 162.00000000000003 164.20497380484358 L 162.00000000000003 164.20497380484363 L 163.00000000000003 163.78102177236576 L 163.00000000000003 163.78102177236582 L 164.00000000000003 163.37180948633198 L 164.00000000000003 163.37180948633204 L 165.00000000000003 162.97733694674218 L 165.00000000000003 162.9773369467423 L 166 162.59760415359642 L 166 162.59760415359648 L 167.00000000000003 162.23261110689464 L 167.00000000000003 162.23261110689475 L 168.00000000000003 161.8823578066369 L 168.00000000000003 161.88235780663695 L 169.00000000000003 161.54684425282312 L 169.00000000000003 161.54684425282318 L 170 161.22607044545333 L 170 161.2260704454534 L 171 160.92003638452752 L 171 160.92003638452758 L 172.00000000000003 160.6287420700458 L 172.00000000000003 160.62874207004586 L 173.00000000000003 160.35218750200795 L 173.00000000000003 160.35218750200806 L 174.00000000000003 160.0903726804142 L 174.00000000000003 160.09037268041425 L 175 159.8432976052644 L 175 159.84329760526447 L 176.00000000000003 159.6109622765586 L 176.00000000000003 159.61096227655867 L 177.00000000000003 159.39336669429684 L 177.00000000000003 159.3933666942969 L 178.00000000000003 159.19051085847906 L 178.00000000000003 159.19051085847912 L 179.00000000000003 159.0023947691053 L 179.00000000000003 159.00239476910536 L 180.00000000000003 158.82901842617548 L 180.00000000000003 158.82901842617554 L 181.00000000000003 158.67038182968975 L 181.00000000000003 158.6703818296898 L 182.00000000000003 158.52648497964788 L 182.00000000000003 158.52648497964793 L 183.00000000000003 158.3973278760501 L 183.00000000000003 158.39732787605016 L 184.00000000000003 158.2829105188963 L 184.00000000000003 158.28291051889636 L 185.00000000000003 158.18323290818654 L 185.00000000000003 158.1832329081866 L 186.00000000000003 158.09829504392076 L 186.00000000000003 158.0982950439208 L 187.00000000000003 158.0280969260989 L 187.00000000000003 158.02809692609895 L 188.00000000000003 157.97263855472113 L 188.00000000000003 157.97263855472124 L 189.00000000000003 157.93191992978734 L 189.00000000000003 157.9319199297874 L 190.00000000000003 157.90594105129753 L 190.00000000000003 157.90594105129765 L 191.00000000000003 157.89470191925176 L 191.00000000000003 157.89820253365002 L 192.00000000000003 157.89419406913703 L 192.00000000000003 157.89820253364996 L 193.00000000000003 157.9164428944922 L 193.00000000000003 157.91644289449215 L 194.00000000000003 157.94942300177843 L 194.00000000000003 157.94942300177837 L 195.00000000000003 157.99714285550863 L 195.00000000000003 157.9971428555085 L 196.00000000000003 158.0596024556828 L 196.00000000000003 158.05960245568275 L 197.00000000000003 158.13680180230097 L 197.00000000000003 158.1368018023009 L 198.00000000000003 158.22874089536322 L 198.00000000000003 158.22874089536316 L 199.00000000000003 158.3354197348694 L 199.00000000000003 158.33541973486933 L 200.00000000000003 158.4568383208196 L 200.00000000000003 158.45683832081954 L 201.00000000000003 158.5929966532138 L 201.00000000000003 158.59299665321373 L 202.00000000000003 158.74389473205196 L 202.00000000000003 158.7438947320519 L 203.00000000000003 158.90953255733416 L 203.00000000000003 158.9095325573341 L 204.00000000000003 159.08991012906034 L 204.00000000000003 159.08991012906029 L 205.00000000000003 159.28502744723056 L 205.00000000000003 159.28502744723045 L 206.00000000000003 159.4948845118447 L 206.00000000000003 159.49488451184465 L 207.00000000000003 159.71948132290294 L 207.00000000000003 159.71948132290282 L 208.00000000000003 159.9588178804051 L 208.00000000000003 159.95881788040498 L 209.00000000000003 160.21289418435123 L 209.00000000000003 160.21289418435117 L 210.00000000000003 160.48171023474146 L 210.00000000000003 160.4817102347414 L 211.00000000000003 160.76526603157566 L 211.00000000000003 160.76526603157555 L 212.00000000000003 161.06356157485385 L 212.00000000000003 161.0635615748538 L 213.00000000000003 161.37659686457602 L 213.00000000000003 161.37659686457596 L 214.00000000000003 161.70437190074216 L 214.00000000000003 161.7043719007421 L 215.00000000000003 162.04688668335234 L 215.00000000000003 162.04688668335228 L 216.00000000000003 162.40414121240656 L 216.00000000000003 162.40414121240644 L 217.00000000000003 162.77613548790475 L 217.00000000000003 162.77613548790464 L 218.00000000000003 163.16286950984687 L 218.00000000000003 163.16286950984681 L 219.00000000000003 163.56434327823303 L 219.00000000000003 163.56434327823297 L 220.00000000000003 163.98055679306322 L 220.00000000000003 163.98055679306316 L 221.00000000000003 164.41151005433738 L 221.00000000000003 164.41151005433733 L 222.00000000000003 164.8572030620556 L 222.00000000000003 164.85720306205553 L 223.00000000000003 165.31763581621772 L 223.00000000000003 165.31763581621766 L 224.00000000000003 165.79280831682394 L 224.00000000000003 165.79280831682382 L 225.00000000000003 166.28272056387408 L 225.00000000000003 166.28272056387402 L 226.00000000000003 166.78737255736826 L 226.00000000000003 166.78737255736814 L 227.00000000000003 167.30676429730642 L 227.00000000000003 167.30676429730636 L 228.00000000000003 167.84089578368855 L 228.00000000000003 167.8408957836885 L 229.00000000000003 168.38976701651472 L 229.00000000000003 168.38976701651467 L 230.00000000000003 168.95337799578493 L 230.00000000000003 168.95337799578488 L 231.00000000000003 169.53172872149906 L 231.00000000000003 169.531728721499 L 232.00000000000003 170.12481919365723 L 232.00000000000003 170.12481919365717 L 233.00000000000003 170.73264941225938 L 233.00000000000003 170.73264941225932 L 234.00000000000003 171.35521937730556 L 234.00000000000003 171.3552193773055 L 235.00000000000003 171.99252908879572 L 235.00000000000003 171.99252908879566 L 236.00000000000003 172.64457854672992 L 236.00000000000003 172.6445785467298 L 237.00000000000003 173.31136775110804 L 237.00000000000003 173.31136775110792 L 238.00000000000003 173.9928967019302 L 238.00000000000003 173.99289670193014 L 239.00000000000003 174.68916539919633 L 239.00000000000003 174.68916539919627 L 240.00000000000003 175.4001738429065 L 240.00000000000003 175.40017384290644 L 241.00000000000003 176.12592203306065 L 241.00000000000003 176.1259220330606 L 242.00000000000003 176.86640996965883 L 242.00000000000003 176.86640996965872 L 243.00000000000003 177.62163765270094 L 243.00000000000003 177.62163765270088 L 244.00000000000003 178.39160508218714 L 244.00000000000003 178.39160508218703 L 245.00000000000003 179.17631225811726 L 245.00000000000003 179.17631225811715 L 246.00000000000003 179.97575918049142 L 246.00000000000003 179.9757591804913 L 247.00000000000003 180.7899458493095 L 247.00000000000003 180.78994584930945 L 248.00000000000003 181.61887226457173 L 248.00000000000003 181.61887226457162 L 249.00000000000003 182.46253842627783 L 249.00000000000003 182.46253842627777 L 250.00000000000003 183.32094433442796 L 250.00000000000003 183.3209443344279 L 251.00000000000003 184.19408998902213 L 251.00000000000003 184.19408998902207 L 252.00000000000003 185.08197539006028 L 252.00000000000003 185.08197539006022 L 253.00000000000003 185.9846005375424 L 253.00000000000003 185.98460053754235 L 254.00000000000003 186.90196543146857 L 254.00000000000003 186.90196543146845 L 255.00000000000003 187.8340700718387 L 255.00000000000003 187.83407007183865 L 256 188.78091445865286 L 256 188.78091445865277 L 257 189.742498591911 L 257 189.74249859191093 L 258 190.7188224716131 L 258 190.71882247161304 L 259 191.70988609775927 L 259 191.70988609775915 L 260 192.71568947034942 L 260 192.71568947034928 L 261 193.73623258938352 L 261 193.73623258938343 L 262 194.77151545486166 L 262 194.77151545486157 L 263 195.82153806678377 L 263 195.82153806678372 L 264.00000000000006 196.88630042514993 L 264.00000000000006 196.88630042514984 L 265 197.96580252996006 L 265 197.96580252995994 L 266 199.06004438121414 L 266 199.06004438121408 L 267 200.1690259789123 L 267 200.16902597891223 L 268 201.29274732305444 L 268 201.29274732305439 L 269 202.43120841364055 L 269 202.4312084136405 L 270 203.58440925067072 L 270 203.58440925067057 L 271 204.75234983414478 L 271 204.75234983414472 L 272 205.93503016406294 L 272 205.93503016406285 L 273.00000000000006 207.13245024042507 L 273.00000000000006 207.13245024042502 L 274 208.3446100632312 L 274 208.34461006323107 L 275 209.57150963248128 L 275 209.5715096324812 L 276 210.81314894817544 L 276 210.81314894817535 L 277 212.06952801031355 L 277 212.06952801031346 L 278.00000000000006 213.34064681889564 L 278.00000000000006 213.34064681889558 L 279 214.6265053739218 L 279 214.6265053739217 L 280 215.9271036753919 L 280 215.92710367539178 L 281 217.24244172330597 L 281 217.24244172330592 L 282 218.57251951766412 L 282 218.57251951766403 L 283.00000000000006 219.91733705846625 L 283.00000000000006 219.91733705846616 L 284 221.27689434571235 L 284 221.27689434571226 L 285 222.6511913794024 L 285 222.65119137940235 L 286 224.04022815953658 L 286 224.04022815953647 L 287.00000000000006 225.44400468611468 L 287.00000000000006 225.44400468611462 L 288 226.86252095913676 L 288 226.86252095913667 L 289 228.29577697860287 L 289 228.29577697860282 L 290 229.743772744513 L 290 229.74377274451294 L 291 231.2065082568671 L 291 231.20650825686704 L 292.00000000000006 232.68398351566523 L 292.00000000000006 232.68398351566515 L 293 234.17619852090732 L 293 234.17619852090723 L 294 235.68315327259344 L 294 235.6831532725933 L 295 237.20484777072352 L 295 237.20484777072338 L 296 238.74128201529763 L 296 238.74128201529751 L 297.00000000000006 240.29245600631572 L 297.00000000000006 240.29245600631563 L 298 241.85836974377784 L 298 241.8583697437777 L 299 243.43902322768386 L 299 243.4390232276838 L 300 245.034416458034 L 300 245.0344164580339 L 301 246.6445494348281 L 301 246.644549434828 L 302 248.2694221580662 L 302 248.26942215806608 L 303 249.9090346277483 L 303 249.90903462774818 L 304 251.56338684387438 L 304 251.56338684387427 L 305 253.23247880644448 L 305 253.2324788064444 L 306.00000000000006 254.91631051545858 L 306.00000000000006 254.91631051545852 L 307 256.61488197091666 L 307 256.61488197091654 L 308 258.3281931728187 L 308 258.32819317281866 L 309 260.0562441211648 L 309 260.0562441211647 L 310 261.7990348159549 L 310 261.7990348159549 L 311.00000000000006 263.55656525718905 L 311.00000000000006 263.55656525718894 L 312 265.3288354448671 L 312 265.32883544486697 L 313.00000000000006 267.1158453789892 L 313.00000000000006 267.1158453789891 L 314 268.91759505955525 L 314 268.91759505955514 L 315 270.7340844865653 L 315 270.7340844865653 L 316 272.5653136600194 L 316 272.56531366001934 L 317 274.4112825799175 L 317 274.4112825799174 L 318 276.27199124625963 L 318 276.27199124625946 L 319 278.1474396590457 L 319 278.1474396590455 L 320 280.0376278182757 L 320 280.03762781827567 L 321 281.9425557239498 L 321 281.9425557239497 L 322 283.8622233760679 L 322 283.8622233760678 L 323 285.79663077463 L 323 285.7966307746299 L 324 287.74577791963605 L 324 287.7457779196359 L 325 289.7096648110861 L 325 289.709664811086 L 326 291.6882914489802 L 326 291.68829144898007 L 327 293.68165783331824 L 327 293.6816578333181 L 328 295.68976396410034 L 328 295.6897639641002 L 329 297.7126098413264 L 329 297.7126098413263 L 330 299.7501954649965 L 330 299.7501954649964 L 331 301.8025208351105 L 331 301.80252083511044 L 332 303.86958595166857 L 332 303.8695859516685 L 333 305.9513908146706 L 333 305.95139081467056 L 334 308.04793542411676 L 334 308.04793542411664 L 335 310.15921978000677 L 335 310.15921978000665 L 336.00000000000006 312.28524388234086 L 336.00000000000006 312.28524388234075 L 337 314.42600773111894 L 337 314.4260077311188 L 338 316.581511326341 L 338 316.5815113263409 L 339 318.7517546680071 L 339 318.7517546680069 L 340.00000000000006 320.93673775611717 L 340.00000000000006 320.936737756117 L 341 323.1364605906711 L 341 323.136460590671 L 342 325.3509231716692 L 342 325.3509231716691 L 343 327.58012549911126 L 343 327.58012549911115 L 344 329.82406757299736 L 344 329.8240675729972 L 345.00000000000006 332.0827493933274 L 345.00000000000006 332.0827493933273 L 346 334.3561709601014 L 346 334.3561709601013 L 347 336.6443322733195 L 347 336.6443322733193 L 348 338.94723333298157 L 348 338.94723333298145 L 349 341.2648741390876 L 349 341.2648741390875 L 350 343.5972546916376 L 350 343.5972546916375 L 351 345.9443749906317 L 351 345.9443749906315 L 352 348.3062350360697 L 352 348.3062350360696 L 353 350.68283482795175 L 353 350.68283482795164 L 354.00000000000006 353.0741743662778 L 354.00000000000006 353.0741743662777 L 355.00000000000006 355.4802536510479 L 355.00000000000006 355.48025365104775 L 356 357.9010726822619 L 356 357.90107268226177 L 357 360.33663145992 L 357 360.33663145991983 L 358 362.786929984022 L 358 362.78692998402187 L 359.00000000000006 365.25196825456806 L 359.00000000000006 365.25196825456794 L 360 367.73174627155805 L 360 367.73174627155794 L 361 370.22626403499214 L 361 370.22626403499197 L 362 372.73552154487015 L 362 372.73552154487004 L 363 375.2595188011922 L 363 375.2595188011921 L 364.00000000000006 377.7982558039582 L 364.00000000000006 377.7982558039581 L 365 380.35173255316823 L 365 380.3517325531681 L 366 382.9199490488223 L 366 382.91994904882216 L 367 385.50290529092035 L 367 385.5029052909202 L 368.00000000000006 388.1006012794624 L 368.00000000000006 388.10060127946224 L 369 390.71303701444833 L 369 390.7130370144482 L 370 393.3402124958784 L 370 393.3402124958783 L 371 395.9821277237524 L 371 395.9821277237523 L 372 398.6387826980705 L 372 398.6387826980704 L 373.00000000000006 401.31017741883255 L 373.00000000000006 401.3101774188324 L 374.00000000000006 403.9963118860386 L 374.00000000000006 403.9963118860384 L 375 406.69718609968857 L 375 406.6971860996884 L 376 409.41280005978257 L 376 409.4128000597824 L 377 412.1431537663206 L 377 412.1431537663205 L 378 414.88824721930257 L 378 414.8882472193024 L 379 417.6480804187286 L 379 417.6480804187285 L 380 420.42265336459866 L 380 420.42265336459855 L 381 423.2119660569127 L 381 423.21196605691256 L 382.00000000000006 426.0160184956707 L 382.00000000000006 426.01601849567055 L 383.00000000000006 428.83481068087275 L 383.00000000000006 428.83481068087264 L 384 431.6683426125187 L 384 431.6683426125186 L 385 434.51661429060874 L 385 434.51661429060863 L 386 437.37962571514277 L 386 437.37962571514265 L 387.00000000000006 440.2573768861208 L 387.00000000000006 440.25737688612065 L 388 443.14986780354275 L 388 443.14986780354263 L 389 446.05709846740876 L 389 446.05709846740865 L 390 448.9790688777188 L 390 448.97906887771865 L 391 451.91577903447285 L 391 451.9157790344727 L 392.00000000000006 454.86722893767086 L 392.00000000000006 454.86722893767075 L 393.00000000000006 457.8334185873129 L 393.00000000000006 457.83341858731274 L 394 460.8143479833988 L 394 460.81434798339865 L 395 463.8100171259289 L 395 463.8100171259287 L 396 466.8204260149029 L 396 466.8204260149027 L 397 469.8455746503208 L 397 469.84557465032066 L 398 472.8854630321829 L 398 472.88546303218266 L 399 475.9400911604889 L 399 475.9400911604887 L 400 479.00945903523893 L 400 479.0094590352387 L 401.00000000000006 482.0935666564329 L 401.00000000000006 482.09356665643276 L 402.00000000000006 485.19241402407096 L 402.00000000000006 485.19241402407073 L 403.00000000000006 488.30600113815296 L 403.00000000000006 488.30600113815274 L 404 491.4343279986789 L 404 491.43432799867867 L 405 494.57739460564886 L 405 494.5773946056487 L 406 497.7352009590628 L 406 497.73520095906264 L 407 500.9077470589208 L 407 500.9077470589206 L 408 504.0950329052228 L 408 504.09503290522264 L 409 507.2970584979689 L 409 507.2970584979687 L 410 510.51382383715884 L 410 510.51382383715867 L 411.00000000000006 513.7453289227929 L 411.00000000000006 513.7453289227926 L 412.00000000000006 516.9915737548708 L 412.00000000000006 516.9915737548707 L 413 520.2525583333928 L 413 520.2525583333926 L 414 523.5282826583588 L 414 523.5282826583585 L 415.00000000000006 526.8187467297688 L 415.00000000000006 526.8187467297686 L 416 530.1239505476227 L 416 530.1239505476225 L 417 533.4438941119207 L 417 533.4438941119205 L 418 536.7785774226627 L 418 536.7785774226626 L 419 540.1280004798488 L 419 540.1280004798485 L 420.00000000000006 543.4921632834787 L 420.00000000000006 543.4921632834786 L 421.00000000000006 546.8710658335527 L 421.00000000000006 546.8710658335525 L 422.00000000000006 550.2647081300707 L 422.00000000000006 550.2647081300706 L 423 553.6730901730326 L 423 553.6730901730324 L 424 557.0962119624386 L 424 557.0962119624385 L 425 560.5340734982885 L 425 560.5340734982883 L 426 563.9866747805826 L 426 563.9866747805823 L 427 567.4540158093205 L 427 567.4540158093203 L 428 570.9360965845026 L 428 570.9360965845024 L 429.00000000000006 574.4329171061285 L 429.00000000000006 574.4329171061283 L 430.00000000000006 577.9444773741985 L 430.00000000000006 577.9444773741983 L 431.00000000000006 581.4707773887125 L 431.00000000000006 581.4707773887123 L 432 585.0118171496704 L 432 585.0118171496702 L 433 588.5675966570724 L 433 588.5675966570722 L 434.00000000000006 592.1381159109184 L 434.00000000000006 592.1381159109181 L 435 595.7233749112083 L 435 595.7233749112081 L 436 599.3233736579423 L 436 599.323373657942 L 437 602.9381121511202 L 437 602.93811215112 L 438 606.5675903907422 L 438 606.567590390742 L 439.00000000000006 610.2118083768082 L 439.00000000000006 610.211808376808 L 440.00000000000006 613.8707661093182 L 440.00000000000006 613.870766109318 L 441.00000000000006 617.5444635882723 L 441.00000000000006 617.544463588272 L 442 621.2329008136701 L 442 621.2329008136699 L 443 624.936077785512 L 443 624.9360777855118 L 444 628.6539945037979 L 444 628.6539945037977 L 445 632.3866509685279 L 445 632.3866509685276 L 446 636.1340471797018 L 446 636.1340471797017 L 447 639.8961831373199 L 447 639.8961831373197 L 448.00000000000006 643.6730588413818 L 448.00000000000006 643.6730588413816 L 449.00000000000006 647.4646742918878 L 449.00000000000006 647.4646742918876 L 450.00000000000006 651.2710294888378 L 450.00000000000006 651.2710294888376 L 451.00000000000006 655.0921244322317 L 451.00000000000006 655.0921244322315 L 452.00000000000006 658.9279591220696 L 452.00000000000006 658.9279591220694 L 453.00000000000006 662.7785335583517 L 453.00000000000006 662.7785335583515 L 454 666.6438477410775 L 454 666.6438477410773 L 455 670.5239016702474 L 455 670.5239016702471 L 456.00000000000006 674.4186953458615 L 456.00000000000006 674.4186953458612 L 457.00000000000006 678.3282287679193 L 457.00000000000006 678.3282287679192 L 458.00000000000006 682.2525019364214 L 458.00000000000006 682.2525019364211 L 459.00000000000006 686.1915148513674 L 459.00000000000006 686.1915148513672 L 460.00000000000006 690.1452675127573 L 460.00000000000006 690.1452675127571 L 461.00000000000006 694.1137599205911 L 461.00000000000006 694.113759920591 L 462.00000000000006 698.0969920748691 L 462.00000000000006 698.0969920748689 L 463 702.0949639755909 L 463 702.0949639755908 L 464 706.1076756227569 L 464 706.1076756227567 L 465.00000000000006 710.1351270163668 L 465.00000000000006 710.1351270163666 L 466.00000000000006 714.1773181564208 L 466.00000000000006 714.1773181564206 L 467.00000000000006 718.2342490429188 L 467.00000000000006 718.2342490429186 L 468.00000000000006 722.3059196758608 L 468.00000000000006 722.3059196758605 L 469 726.3923300552467 L 469 726.3923300552465 L 470.00000000000006 730.4934801810765 L 470.00000000000006 730.4934801810764 L 471.00000000000006 734.6093700533506 L 471.00000000000006 734.6093700533503 L 472.00000000000006 738.7399996720685 L 472.00000000000006 738.7399996720683 L 473.00000000000006 742.8853690372305 L 473.00000000000006 742.8853690372302 L 474.00000000000006 747.0454781488363 L 474.00000000000006 747.0454781488361 L 475.00000000000006 751.2203270068862 L 475.00000000000006 751.220327006886 L 476.00000000000006 755.4099156113803 L 476.00000000000006 755.40991561138 L 477.00000000000006 759.6142439623181 L 477.00000000000006 759.6142439623179 L 478.00000000000006 763.8333120597001 L 478.00000000000006 763.8333120596999 L 479.00000000000006 768.067119903526 L 479.00000000000006 768.0671199035257 L 480.00000000000006 772.3156674937958 L 480.00000000000006 772.3156674937957 L 481.00000000000006 776.5789548305099 L 481.00000000000006 776.5789548305097 L 482 780.8569819136676 L 482 780.8569819136674 L 483 785.1497487432696 L 483 785.1497487432694 L 484.00000000000006 789.4572553193157 L 484.00000000000006 789.4572553193154 L 485.00000000000006 793.7795016418056 L 485.00000000000006 793.7795016418054 L 486.00000000000006 798.1164877107395 L 486.00000000000006 798.1164877107392 L 487.00000000000006 802.4682135261174 L 487.00000000000006 802.4682135261171 L 488.00000000000006 806.8346790879394 L 488.00000000000006 806.8346790879391 L 489 811.215884396205 L 489 811.2158843962047 L 490.00000000000006 815.6118294509151 L 490.00000000000006 815.6118294509149 L 491 820.0225142520687 L 491 820.0225142520685 L 492.0000000000001 824.4479387996671 L 492.0000000000001 824.4479387996669 L 493.00000000000006 828.8881030937088 L 493.00000000000006 828.8881030937084 L 494.00000000000006 833.3430071341947 L 494.00000000000006 833.3430071341944 L 495.00000000000006 837.8126509211247 L 495.00000000000006 837.8126509211244 L 496.00000000000006 842.2970344544985 L 496.00000000000006 842.2970344544983 L 497.00000000000006 846.7961577343167 L 497.00000000000006 846.7961577343162 L 498 851.3100207605783 L 498 851.3100207605778 L 499.00000000000006 855.8386235332844 L 499.00000000000006 855.8386235332841 L 500 860.3819660524341 L 500 860.3819660524339 L 501.0000000000001 864.9400483180283 L 501.0000000000001 864.940048318028 L 502 869.512870330066 L 502 869.5128703300657 L 503.00000000000006 874.1004320885479 L 503.00000000000006 874.1004320885476 L 504.00000000000006 878.7027335934738 L 504.00000000000006 878.7027335934736 L 505.00000000000006 883.3197748448438 L 505.00000000000006 883.3197748448436 L 506.00000000000006 887.9515558426576 L 506.00000000000006 887.9515558426574 L 507 892.5980765869153 L 507 892.5980765869149 L 508.00000000000006 897.2593370776175 L 508.00000000000006 897.2593370776173 L 509 901.9353373147632 L 509 901.9353373147629 L 510.00000000000006 906.6260772983534 L 510.00000000000006 906.626077298353 L 511 911.331557028387 L 511 911.3315570283867 L 512 916.0517765048648 L 512 916.0517765048646 L 513 920.7867357277869 L 513 920.7867357277867 L 514 925.5364346971528 L 514 925.5364346971526 L 515 930.3008734129628 L 515 930.3008734129625 L 516 935.0800518752167 L 516 935.0800518752163 L 517 939.8739700839144 L 517 939.8739700839142 L 518 944.6826280390562 L 518 944.6826280390559 L 519 949.5060257406424 L 519 949.5060257406421 L 520 954.3441631886722 L 520 954.3441631886717 L 521 959.197040383146 L 521 959.1970403831458 L 522 964.0646573240638 L 522 964.0646573240635 L 523 968.9470140114258 L 523 968.9470140114254 L 524 973.8441104452318 L 524 973.8441104452313 L 525 978.7559466254816 L 525 978.7559466254813 L 526 983.6825225521754 L 526 983.6825225521752 L 527 988.6238382253132 L 527 988.6238382253127 L 528 993.5798936448953 L 528 993.579893644895 L 529 998.550688810921 L 529 998.5506888109207 L 530.0000000000001 1003.5362237233912 L 530.0000000000001 1003.5362237233908 L 531 1008.5364983823047 L 531 1008.5364983823044 L 532 1013.5515127876627 L 532 1013.5515127876624 L 533 1018.5812669394645 L 533 1018.5812669394643 L 534 1023.6257608377105 L 534 1023.6257608377102 L 535 1028.6849944824005 L 535 1028.6849944824 L 536 1033.758967873534 L 536 1033.7589678735337 L 537 1038.8476810111122 L 537 1038.8476810111117 L 538 1043.9511338951338 L 538 1043.9511338951336 L 539.0000000000001 1049.0693265256 L 539.0000000000001 1049.0693265255998 L 540 1054.2022589025096 L 540 1054.2022589025094 L 541 1059.3499310258635 L 541 1059.3499310258633 L 542 1064.5123428956613 L 542 1064.512342895661 L 543 1069.6894945119031 L 543 1069.689494511903 L 544 1074.8813858745891 L 544 1074.881385874589 L 545 1080.0880169837187 L 545 1080.0880169837183 L 546 1085.3093878392929 L 546 1085.3093878392926 L 547 1090.5454984413104 L 547 1090.5454984413102 L 548.0000000000001 1095.7963487897728 L 548.0000000000001 1095.7963487897723 L 549 1101.0619388846783 L 549 1101.061938884678 L 550 1106.3422687260281 L 550 1106.342268726028 L 551 1111.637338313822 L 551 1111.6373383138218 L 552 1116.94714764806 L 552 1116.9471476480599 L 553 1122.2716967287417 L 553 1122.2716967287415 L 554 1127.6109855558675 L 554 1127.610985555867 L 555 1132.9650141294376 L 555 1132.9650141294373 L 556 1138.333782449451 L 556 1138.3337824494508 L 557 1143.7172905159093 L 557 1143.717290515909 L 558 1149.115538328811 L 558 1149.1155383288108 L 559 1154.5285258881568 L 559 1154.5285258881565 L 560 1159.9562531939466 L 560 1159.9562531939464 L 561 1165.3987202461806 L 561 1165.3987202461803 L 562 1170.8559270448584 L 562 1170.8559270448582 L 563 1176.3278735899803 L 563 1176.32787358998 L 564 1181.814559881546 L 564 1181.8145598815458 L 565 1187.3159859195557 L 565 1187.3159859195555 L 566 1192.8321517040101 L 566 1192.83215170401 L 567 1198.3630572349075 L 567 1198.3630572349073 L 568.0000000000001 1203.9087025122496 L 568.0000000000001 1203.9087025122494 L 569 1209.4690875360352 L 569 1209.469087536035 L 570 1215.044212306265 L 570 1215.0442123062649 L 571 1220.634076822939 L 571 1220.6340768229388 L 572 1226.2386810860569 L 572 1226.2386810860567 L 573 1231.8580250956188 L 573 1231.8580250956184 L 574 1237.4921088516244 L 574 1237.4921088516242 L 575 1243.1409323540745 L 575 1243.1409323540743 L 576 1248.8044956029682 L 576 1248.8044956029678 L 577.0000000000001 1254.4827985983063 L 577.0000000000001 1254.482798598306 L 578 1260.1758413400878 L 578 1260.1758413400876 L 579 1265.8836238283136 L 579 1265.8836238283134 L 580 1271.6061460629835 L 580 1271.6061460629833 L 581 1277.3434080440973 L 581 1277.343408044097 L 582 1283.0954097716553 L 582 1283.095409771655 L 583 1288.8621512456568 L 583 1288.8621512456564 L 584 1294.6436324661029 L 584 1294.6436324661026 L 585 1300.4398534329925 L 585 1300.4398534329923 L 586.0000000000001 1306.2508141463268 L 586.0000000000001 1306.2508141463263 L 587 1312.0765146061042 L 587 1312.076514606104 L 588 1317.916954812326 L 588 1317.9169548123257 L 589 1323.772134764992 L 589 1323.7721347649917 L 590 1329.6420544641016 L 590 1329.6420544641014 L 591 1335.5267139096557 L 591 1335.5267139096554 L 592 1341.426113101653 L 592 1341.4261131016528 L 593 1347.3402520400953 L 593 1347.340252040095 L 594 1353.2691307249809 L 594 1353.2691307249804 L 595.0000000000001 1359.212749156311 L 595.0000000000001 1359.2127491563108 L 596 1365.1711073340846 L 596 1365.1711073340844 L 597 1371.1442052583022 L 597 1371.144205258302 L 598 1377.1320429289642 L 598 1377.132042928964 L 599 1383.13462034607 L 599 1383.1346203460698 L 600 1389.15193750962 L 600 1389.1519375096195 L 601 1395.1839944196138 L 601 1395.1839944196133 L 602 1401.2307910760517 L 602 1401.2307910760512 L 603 1407.2923274789332 L 603 1407.2923274789327 L 604 1413.3686036282593 L 604 1413.3686036282588 L 605 1419.459619524029 L 605 1419.4596195240285 L 606.0000000000001 1425.565375166243 L 606.0000000000001 1425.5653751662426 L 607 1431.6858705549007 L 607 1431.6858705549002 L 608 1437.8211056900025 L 608 1437.821105690002 L 609 1443.9710805715483 L 609 1443.9710805715476 L 610 1450.135795199538 L 610 1450.1357951995374 L 611 1456.315249573972 L 611 1456.3152495739714 L 612 1462.5094436948493 L 612 1462.5094436948489 L 613 1468.7183775621718 L 613 1468.718377562171 L 614 1474.942051175937 L 614 1474.9420511759365 L 615 1481.180464536147 L 615 1481.1804645361465 L 616 1487.4336176428008 L 616 1487.4336176428003 L 617 1493.7015104958987 L 617 1493.701510495898 L 618 1499.9841430954405 L 618 1499.9841430954398 L 619 1506.2815154414263 L 619 1506.2815154414257 L 620 1512.593627533856 L 620 1512.5936275338556 L 621 1518.92047937273 L 621 1518.9204793727295 L 622 1525.2620709580478 L 622 1525.2620709580474 L 623 1531.6184022898094 L 623 1531.6184022898087 L 624 1537.989473368015 L 624 1537.9894733680146 L 625 1544.3752841926648 L 625 1544.3752841926644 L 626 1550.775834763759 L 626 1550.7758347637582 L 627 1557.1911250812964 L 627 1557.191125081296 L 628 1563.6211551452784 L 628 1563.6211551452777 L 629 1570.0659249557043 L 629 1570.0659249557036 L 630 1576.525434512574 L 630 1576.5254345125734 L 631 1582.999683815888 L 631 1582.9996838158875 L 632 1589.4886728656456 L 632 1589.488672865645 L 633 1595.992401661847 L 633 1595.9924016618463 L 634 1602.510870204493 L 634 1602.5108702044924 L 635 1609.0440784935827 L 635 1609.0440784935822 L 636 1615.5920265291163 L 636 1615.5920265291159 L 637 1622.1547143110945 L 637 1622.1547143110938 L 638 1628.732141839516 L 638 1628.7321418395156 L 639 1635.324309114382 L 639 1635.3243091143815 L 640 1641.9312161356918 L 640 1641.9312161356913 L 641 1648.5528629034454 L 641 1648.552862903445 L 642 1655.1892494176427 L 642 1655.1892494176423 L 643 1661.8403756782848 L 643 1661.8403756782843 L 644 1668.5062416853707 L 644 1668.50624168537 L 645 1675.1868474389003 L 645 1675.1868474388998 L 646 1681.8821929388744 L 646 1681.8821929388737 L 647 1688.592278185292 L 647 1688.5922781852914 L 648 1695.317103178154" stroke-opacity="0.6980392156862745" stroke-linecap="round" stroke-linejoin="round" stroke-miterlimit="10" stroke-width="2.5"/><text fill="rgb(153,51,0)" stroke="none" font-family="geogebra-sans-serif, sans-serif" font-size="16px" font-style="normal" font-weight="normal" text-decoration="normal" x="8" y="405" text-anchor="start" dominant-baseline="alphabetic" fill-opacity="1">p</text><text fill="none" stroke="rgb(255,255,255)" font-family="geogebra-sans-serif, sans-serif" font-size="16px" font-style="normal" font-weight="normal" text-decoration="normal" x="8" y="405" text-anchor="start" dominant-baseline="alphabetic" stroke-opacity="1" stroke-linejoin="bevel" stroke-miterlimit="10" stroke-width="3">p</text><text fill="rgb(153,51,0)" stroke="none" font-family="geogebra-sans-serif, sans-serif" font-size="16px" font-style="normal" font-weight="normal" text-decoration="normal" x="8" y="405" text-anchor="start" dominant-baseline="alphabetic" fill-opacity="1">p</text><text fill="rgb(0,0,0)" stroke="none" font-family="geogebra-sans-serif, sans-serif" font-size="22px" font-style="normal" font-weight="bold" text-decoration="normal" x="260" y="129" text-anchor="start" dominant-baseline="alphabetic" fill-opacity="1">Hydrostatisches Gleichgewicht</text><text fill="rgb(0,0,0)" stroke="none" font-family="geogebra-sans-serif, sans-serif" font-size="16px" font-style="normal" font-weight="normal" text-decoration="normal" x="245" y="149" text-anchor="start" dominant-baseline="alphabetic" fill-opacity="1">Gravitationsdruck in einer homogenen Gaskugel</text><text fill="rgb(0,0,0)" stroke="none" font-family="geogebra-sans-serif, sans-serif" font-size="16px" font-style="normal" font-weight="normal" text-decoration="normal" x="392" y="435" text-anchor="start" dominant-baseline="alphabetic" fill-opacity="1">Abstand vom Zentrum (r)</text><g transform="scale(19,19) translate(11.013157894736842,22.582368421052628) rotate(-90,0,0) translate(-11.013157894736842,-22.582368421052628)"><g transform="translate(11.346157894736843,22.582368421052628)"><path fill="rgb(0,0,0)" stroke="none" paint-order="stroke fill markers" d=" M 0.599 -0.299 L 0.599 -0.027 Q 0.498 0.022 0.391 0.022 Q 0.256 0.022 0.1615 -0.08600000000000001 Q 0.067 -0.194 0.067 -0.34700000000000003 Q 0.067 -0.499 0.1605 -0.6075 Q 0.254 -0.716 0.393 -0.716 Q 0.437 -0.716 0.47600000000000003 -0.708 Q 0.515 -0.7000000000000001 0.5345 -0.6920000000000001 Q 0.554 -0.684 0.591 -0.667 L 0.5760000000000001 -0.586 Q 0.496 -0.652 0.392 -0.652 Q 0.291 -0.652 0.2235 -0.5625 Q 0.156 -0.47300000000000003 0.156 -0.34700000000000003 Q 0.156 -0.221 0.2235 -0.1315 Q 0.291 -0.042 0.392 -0.042 Q 0.455 -0.042 0.521 -0.062 L 0.521 -0.23800000000000002 L 0.389 -0.23800000000000002 L 0.389 -0.299 L 0.599 -0.299 Z"/></g><g transform="translate(12.013157894736842,22.582368421052628)"><path fill="rgb(0,0,0)" stroke="none" paint-order="stroke fill markers" d=" M 0.157 -0.214 L 0.157 0 L 0.082 0 L 0.082 -0.45 L 0.152 -0.45 L 0.152 -0.359 Q 0.216 -0.454 0.327 -0.455 L 0.327 -0.388 Q 0.253 -0.386 0.20500000000000002 -0.3375 Q 0.157 -0.289 0.157 -0.214 Z"/></g><g transform="translate(12.355157894736843,22.582368421052628)"><path fill="rgb(0,0,0)" stroke="none" paint-order="stroke fill markers" d=" M 0.399 -0.289 L 0.399 0 L 0.324 0 L 0.324 -0.036000000000000004 Q 0.263 0.011 0.158 0.011 Q 0.1 0.011 0.07200000000000001 -0.029500000000000002 Q 0.044 -0.07 0.044 -0.113 Q 0.044 -0.176 0.1225 -0.2095 Q 0.201 -0.243 0.321 -0.245 L 0.321 -0.28800000000000003 Q 0.321 -0.341 0.296 -0.3715 Q 0.271 -0.402 0.234 -0.402 Q 0.153 -0.402 0.083 -0.352 L 0.077 -0.418 Q 0.152 -0.461 0.234 -0.461 Q 0.304 -0.461 0.35150000000000003 -0.41250000000000003 Q 0.399 -0.364 0.399 -0.289 M 0.321 -0.132 L 0.321 -0.194 Q 0.116 -0.184 0.116 -0.115 Q 0.116 -0.085 0.14350000000000002 -0.0675 Q 0.171 -0.05 0.209 -0.05 Q 0.256 -0.05 0.28700000000000003 -0.069 Q 0.321 -0.088 0.321 -0.132 Z"/></g><g transform="translate(12.836157894736843,22.582368421052628)"><path fill="rgb(0,0,0)" stroke="none" paint-order="stroke fill markers" d=" M 0.446 -0.444 L 0.274 0 L 0.186 0 L 0.014 -0.444 L 0.092 -0.444 L 0.189 -0.185 Q 0.225 -0.08700000000000001 0.231 -0.053 L 0.232 -0.053 Q 0.24 -0.1 0.292 -0.23600000000000002 L 0.371 -0.444 L 0.446 -0.444 Z"/></g><g transform="translate(13.297157894736843,22.582368421052628)"><path fill="rgb(0,0,0)" stroke="none" paint-order="stroke fill markers" d=" M 0.163 -0.68 L 0.163 -0.591 L 0.074 -0.591 L 0.074 -0.68 L 0.163 -0.68 M 0.156 -0.444 L 0.156 0 L 0.081 0 L 0.081 -0.444 L 0.156 -0.444 Z"/></g><g transform="translate(13.536157894736844,22.582368421052628)"><path fill="rgb(0,0,0)" stroke="none" paint-order="stroke fill markers" d=" M 0.17500000000000002 -0.386 L 0.17500000000000002 -0.136 Q 0.17500000000000002 -0.053 0.226 -0.053 Q 0.275 -0.053 0.316 -0.08600000000000001 L 0.332 -0.027 Q 0.259 0.011 0.186 0.011 Q 0.10300000000000001 0.011 0.10300000000000001 -0.11900000000000001 L 0.10300000000000001 -0.386 L 0.019 -0.386 L 0.019 -0.444 L 0.106 -0.444 L 0.106 -0.5710000000000001 L 0.17500000000000002 -0.5710000000000001 L 0.17500000000000002 -0.444 L 0.316 -0.444 L 0.316 -0.386 L 0.17500000000000002 -0.386 Z"/></g><g transform="translate(13.897157894736845,22.582368421052628)"><path fill="rgb(0,0,0)" stroke="none" paint-order="stroke fill markers" d=" M 0.399 -0.289 L 0.399 0 L 0.324 0 L 0.324 -0.036000000000000004 Q 0.263 0.011 0.158 0.011 Q 0.1 0.011 0.07200000000000001 -0.029500000000000002 Q 0.044 -0.07 0.044 -0.113 Q 0.044 -0.176 0.1225 -0.2095 Q 0.201 -0.243 0.321 -0.245 L 0.321 -0.28800000000000003 Q 0.321 -0.341 0.296 -0.3715 Q 0.271 -0.402 0.234 -0.402 Q 0.153 -0.402 0.083 -0.352 L 0.077 -0.418 Q 0.152 -0.461 0.234 -0.461 Q 0.304 -0.461 0.35150000000000003 -0.41250000000000003 Q 0.399 -0.364 0.399 -0.289 M 0.321 -0.132 L 0.321 -0.194 Q 0.116 -0.184 0.116 -0.115 Q 0.116 -0.085 0.14350000000000002 -0.0675 Q 0.171 -0.05 0.209 -0.05 Q 0.256 -0.05 0.28700000000000003 -0.069 Q 0.321 -0.088 0.321 -0.132 Z"/></g><g transform="translate(14.378157894736844,22.582368421052628)"><path fill="rgb(0,0,0)" stroke="none" paint-order="stroke fill markers" d=" M 0.17500000000000002 -0.386 L 0.17500000000000002 -0.136 Q 0.17500000000000002 -0.053 0.226 -0.053 Q 0.275 -0.053 0.316 -0.08600000000000001 L 0.332 -0.027 Q 0.259 0.011 0.186 0.011 Q 0.10300000000000001 0.011 0.10300000000000001 -0.11900000000000001 L 0.10300000000000001 -0.386 L 0.019 -0.386 L 0.019 -0.444 L 0.106 -0.444 L 0.106 -0.5710000000000001 L 0.17500000000000002 -0.5710000000000001 L 0.17500000000000002 -0.444 L 0.316 -0.444 L 0.316 -0.386 L 0.17500000000000002 -0.386 Z"/></g><g transform="translate(14.739157894736845,22.582368421052628)"><path fill="rgb(0,0,0)" stroke="none" paint-order="stroke fill markers" d=" M 0.163 -0.68 L 0.163 -0.591 L 0.074 -0.591 L 0.074 -0.68 L 0.163 -0.68 M 0.156 -0.444 L 0.156 0 L 0.081 0 L 0.081 -0.444 L 0.156 -0.444 Z"/></g><g transform="translate(14.978157894736846,22.582368421052628)"><path fill="rgb(0,0,0)" stroke="none" paint-order="stroke fill markers" d=" M 0.46900000000000003 -0.22 Q 0.46900000000000003 -0.123 0.4045 -0.056 Q 0.34 0.011 0.249 0.011 Q 0.16 0.011 0.095 -0.0555 Q 0.03 -0.122 0.03 -0.22 Q 0.03 -0.319 0.094 -0.39 Q 0.158 -0.461 0.25 -0.461 Q 0.34 -0.461 0.4045 -0.3905 Q 0.46900000000000003 -0.32 0.46900000000000003 -0.22 M 0.249 -0.053 Q 0.308 -0.053 0.34950000000000003 -0.0995 Q 0.391 -0.146 0.391 -0.23 Q 0.391 -0.313 0.34900000000000003 -0.3565 Q 0.307 -0.4 0.249 -0.4 Q 0.193 -0.4 0.1505 -0.357 Q 0.108 -0.314 0.108 -0.23 Q 0.108 -0.145 0.15 -0.099 Q 0.192 -0.053 0.249 -0.053 Z"/></g><g transform="translate(15.478157894736846,22.582368421052628)"><path fill="rgb(0,0,0)" stroke="none" paint-order="stroke fill markers" d=" M 0.435 -0.298 L 0.435 0 L 0.357 0 L 0.357 -0.291 Q 0.357 -0.305 0.3565 -0.3145 Q 0.356 -0.324 0.35050000000000003 -0.3405 Q 0.34500000000000003 -0.357 0.3355 -0.3675 Q 0.326 -0.378 0.3065 -0.386 Q 0.28700000000000003 -0.394 0.26 -0.394 Q 0.20800000000000002 -0.394 0.1835 -0.34900000000000003 Q 0.159 -0.304 0.159 -0.245 L 0.159 0 L 0.081 0 L 0.081 -0.45 L 0.153 -0.45 L 0.153 -0.379 Q 0.21 -0.455 0.298 -0.455 Q 0.435 -0.455 0.435 -0.298 Z"/></g><g transform="translate(15.995157894736845,22.582368421052628)"><path fill="rgb(0,0,0)" stroke="none" paint-order="stroke fill markers" d=" M 0.343 -0.429 L 0.331 -0.364 Q 0.267 -0.402 0.189 -0.402 Q 0.10400000000000001 -0.402 0.10400000000000001 -0.34 Q 0.10400000000000001 -0.326 0.11 -0.315 Q 0.116 -0.304 0.1235 -0.2975 Q 0.131 -0.291 0.1465 -0.28550000000000003 Q 0.162 -0.28 0.17300000000000001 -0.277 Q 0.184 -0.274 0.20500000000000002 -0.27 Q 0.248 -0.262 0.271 -0.253 Q 0.294 -0.244 0.321 -0.22 L 0.326 -0.214 Q 0.331 -0.209 0.336 -0.2015 Q 0.341 -0.194 0.34700000000000003 -0.1835 Q 0.353 -0.17300000000000001 0.3565 -0.158 Q 0.36 -0.14300000000000002 0.36 -0.128 Q 0.36 -0.058 0.312 -0.021 Q 0.269 0.011 0.196 0.011 Q 0.116 0.011 0.028 -0.033 L 0.04 -0.101 Q 0.114 -0.052000000000000005 0.195 -0.052000000000000005 Q 0.289 -0.052000000000000005 0.289 -0.121 Q 0.289 -0.136 0.28200000000000003 -0.148 Q 0.275 -0.16 0.2665 -0.167 Q 0.258 -0.17400000000000002 0.243 -0.18 Q 0.228 -0.186 0.219 -0.188 Q 0.21 -0.19 0.195 -0.193 Q 0.161 -0.2 0.148 -0.203 Q 0.135 -0.20600000000000002 0.11850000000000001 -0.2125 Q 0.10200000000000001 -0.219 0.08700000000000001 -0.23 Q 0.033 -0.271 0.033 -0.33 Q 0.033 -0.367 0.0485 -0.3935 Q 0.064 -0.42 0.0835 -0.4325 Q 0.10300000000000001 -0.445 0.1305 -0.452 Q 0.158 -0.459 0.171 -0.46 Q 0.184 -0.461 0.199 -0.461 Q 0.274 -0.461 0.343 -0.429 Z"/></g><g transform="translate(16.378157894736844,22.582368421052628)"><path fill="rgb(0,0,0)" stroke="none" paint-order="stroke fill markers" d=" M 0.434 -0.6940000000000001 L 0.434 0 L 0.356 0 L 0.356 -0.052000000000000005 Q 0.291 0.011 0.20800000000000002 0.011 Q 0.136 0.011 0.08600000000000001 -0.0565 Q 0.036000000000000004 -0.124 0.036000000000000004 -0.222 Q 0.036000000000000004 -0.319 0.08750000000000001 -0.387 Q 0.139 -0.455 0.213 -0.455 Q 0.293 -0.455 0.359 -0.4 L 0.359 -0.6940000000000001 L 0.434 -0.6940000000000001 M 0.356 -0.139 L 0.356 -0.339 Q 0.318 -0.394 0.259 -0.394 Q 0.20400000000000001 -0.394 0.159 -0.352 Q 0.114 -0.31 0.114 -0.221 Q 0.114 -0.135 0.1545 -0.0925 Q 0.195 -0.05 0.249 -0.05 Q 0.291 -0.05 0.323 -0.078 Q 0.356 -0.108 0.356 -0.139 Z"/></g><g transform="translate(16.895157894736844,22.582368421052628)"><path fill="rgb(0,0,0)" stroke="none" paint-order="stroke fill markers" d=" M 0.157 -0.214 L 0.157 0 L 0.082 0 L 0.082 -0.45 L 0.152 -0.45 L 0.152 -0.359 Q 0.216 -0.454 0.327 -0.455 L 0.327 -0.388 Q 0.253 -0.386 0.20500000000000002 -0.3375 Q 0.157 -0.289 0.157 -0.214 Z"/></g><g transform="translate(17.237157894736843,22.582368421052628)"><path fill="rgb(0,0,0)" stroke="none" paint-order="stroke fill markers" d=" M 0.435 -0.444 L 0.435 0 L 0.36 0 L 0.36 -0.048 Q 0.293 0.011 0.187 0.011 Q 0.128 0.011 0.1045 -0.0195 Q 0.081 -0.05 0.081 -0.109 L 0.081 -0.444 L 0.159 -0.444 L 0.159 -0.113 Q 0.159 -0.076 0.17350000000000002 -0.06 Q 0.188 -0.044 0.23700000000000002 -0.044 Q 0.28800000000000003 -0.044 0.3225 -0.0725 Q 0.357 -0.101 0.357 -0.154 L 0.357 -0.444 L 0.435 -0.444 Z"/></g><g transform="translate(17.754157894736842,22.582368421052628)"><path fill="rgb(0,0,0)" stroke="none" paint-order="stroke fill markers" d=" M 0.41000000000000003 -0.418 L 0.398 -0.353 Q 0.358 -0.379 0.328 -0.388 Q 0.298 -0.397 0.257 -0.397 Q 0.20700000000000002 -0.397 0.17350000000000002 -0.369 Q 0.14 -0.341 0.127 -0.3035 Q 0.114 -0.266 0.114 -0.223 Q 0.114 -0.149 0.1525 -0.101 Q 0.191 -0.053 0.253 -0.053 Q 0.34 -0.053 0.40900000000000003 -0.107 L 0.41500000000000004 -0.04 Q 0.341 0.011 0.252 0.011 Q 0.16 0.011 0.098 -0.058 Q 0.036000000000000004 -0.127 0.036000000000000004 -0.222 Q 0.036000000000000004 -0.317 0.0965 -0.389 Q 0.157 -0.461 0.256 -0.461 Q 0.302 -0.461 0.334 -0.452 Q 0.366 -0.443 0.41000000000000003 -0.418 Z"/></g><g transform="translate(18.19815789473684,22.582368421052628)"><path fill="rgb(0,0,0)" stroke="none" paint-order="stroke fill markers" d=" M 0.281 -0.272 L 0.47100000000000003 0 L 0.389 0 L 0.233 -0.224 L 0.153 -0.14100000000000001 L 0.153 0 L 0.084 0 L 0.084 -0.6940000000000001 L 0.156 -0.6940000000000001 L 0.156 -0.23600000000000002 L 0.359 -0.444 L 0.449 -0.444 L 0.281 -0.272 Z"/></g><g transform="translate(19.02015789473684,22.582368421052628)"><path fill="rgb(0,0,0)" stroke="none" paint-order="stroke fill markers" d=" M 0.271 -0.75 L 0.332 -0.75 Q 0.244 -0.662 0.201 -0.541 Q 0.157 -0.41400000000000003 0.157 -0.25 Q 0.157 -0.158 0.1715 -0.078 Q 0.186 0.002 0.20400000000000001 0.051500000000000004 Q 0.222 0.101 0.2505 0.1465 Q 0.279 0.192 0.2945 0.21 Q 0.31 0.228 0.332 0.25 L 0.271 0.25 Q 0.079 0.074 0.079 -0.25 Q 0.079 -0.41000000000000003 0.126 -0.536 Q 0.14200000000000002 -0.579 0.162 -0.6155 Q 0.182 -0.652 0.20500000000000002 -0.6795 Q 0.228 -0.707 0.24 -0.7195 Q 0.252 -0.732 0.271 -0.75 Z"/></g><g transform="translate(19.40915789473684,22.582368421052628)"><path fill="rgb(0,0,0)" stroke="none" paint-order="stroke fill markers" d=" M 0.16 -0.046 L 0.16 0.194 L 0.082 0.194 L 0.082 -0.444 L 0.157 -0.444 L 0.157 -0.395 Q 0.228 -0.455 0.321 -0.455 Q 0.391 -0.455 0.4355 -0.386 Q 0.48 -0.317 0.48 -0.223 Q 0.48 -0.123 0.425 -0.056 Q 0.37 0.011 0.295 0.011 Q 0.221 0.011 0.16 -0.046 M 0.16 -0.333 L 0.16 -0.132 Q 0.16 -0.112 0.17 -0.097 Q 0.20500000000000002 -0.05 0.256 -0.05 Q 0.314 -0.05 0.358 -0.099 Q 0.402 -0.148 0.402 -0.223 Q 0.402 -0.292 0.3625 -0.3415 Q 0.323 -0.391 0.266 -0.391 Q 0.2 -0.391 0.16 -0.333 Z"/></g><g transform="translate(19.92615789473684,22.582368421052628)"><path fill="rgb(0,0,0)" stroke="none" paint-order="stroke fill markers" d=" M 0.117 0.25 L 0.056 0.25 Q 0.14400000000000002 0.162 0.187 0.041 Q 0.231 -0.08600000000000001 0.231 -0.25 Q 0.231 -0.342 0.2165 -0.422 Q 0.202 -0.502 0.184 -0.5515 Q 0.166 -0.601 0.1375 -0.6465 Q 0.109 -0.6920000000000001 0.0935 -0.71 Q 0.078 -0.728 0.056 -0.75 L 0.117 -0.75 Q 0.309 -0.5740000000000001 0.309 -0.25 Q 0.309 -0.09 0.262 0.036000000000000004 Q 0.246 0.079 0.226 0.1155 Q 0.20600000000000002 0.152 0.183 0.1795 Q 0.16 0.20700000000000002 0.148 0.2195 Q 0.136 0.232 0.117 0.25 Z"/></g><g transform="translate(11.013157894736842,22.582368421052628) rotate(90,0,0) translate(-11.013157894736842,-22.582368421052628)"/></g><text fill="rgb(0,0,0)" stroke="none" font-family="geogebra-sans-serif, sans-serif" font-size="11px" font-style="normal" font-weight="normal" text-decoration="normal" x="325" y="173" text-anchor="start" dominant-baseline="alphabetic" fill-opacity="1">SVG-Grafik Dietrich Kracht 13.10.2022 mit GeoGebra</text><g transform="scale(19,19)"><g transform="translate(18.63157894736842,15.543034315789475)"><path fill="rgb(0,0,0)" stroke="none" paint-order="stroke fill markers" d=" M 0.16 -0.046 L 0.16 0.194 L 0.082 0.194 L 0.082 -0.444 L 0.157 -0.444 L 0.157 -0.395 Q 0.228 -0.455 0.321 -0.455 Q 0.391 -0.455 0.4355 -0.386 Q 0.48 -0.317 0.48 -0.223 Q 0.48 -0.123 0.425 -0.056 Q 0.37 0.011 0.295 0.011 Q 0.221 0.011 0.16 -0.046 M 0.16 -0.333 L 0.16 -0.132 Q 0.16 -0.112 0.17 -0.097 Q 0.20500000000000002 -0.05 0.256 -0.05 Q 0.314 -0.05 0.358 -0.099 Q 0.402 -0.148 0.402 -0.223 Q 0.402 -0.292 0.3625 -0.3415 Q 0.323 -0.391 0.266 -0.391 Q 0.2 -0.391 0.16 -0.333 Z"/></g><g transform="translate(19.14857894736842,15.543034315789475)"><path fill="rgb(0,0,0)" stroke="none" paint-order="stroke fill markers" d=" M 0.271 -0.75 L 0.332 -0.75 Q 0.244 -0.662 0.201 -0.541 Q 0.157 -0.41400000000000003 0.157 -0.25 Q 0.157 -0.158 0.1715 -0.078 Q 0.186 0.002 0.20400000000000001 0.051500000000000004 Q 0.222 0.101 0.2505 0.1465 Q 0.279 0.192 0.2945 0.21 Q 0.31 0.228 0.332 0.25 L 0.271 0.25 Q 0.079 0.074 0.079 -0.25 Q 0.079 -0.41000000000000003 0.126 -0.536 Q 0.14200000000000002 -0.579 0.162 -0.6155 Q 0.182 -0.652 0.20500000000000002 -0.6795 Q 0.228 -0.707 0.24 -0.7195 Q 0.252 -0.732 0.271 -0.75 Z"/></g><g transform="translate(19.53757894736842,15.543034315789475)"><path fill="rgb(0,0,0)" stroke="none" paint-order="stroke fill markers" d=" M 0.157 -0.214 L 0.157 0 L 0.082 0 L 0.082 -0.45 L 0.152 -0.45 L 0.152 -0.359 Q 0.216 -0.454 0.327 -0.455 L 0.327 -0.388 Q 0.253 -0.386 0.20500000000000002 -0.3375 Q 0.157 -0.289 0.157 -0.214 Z"/></g><g transform="translate(19.89357894736842,15.543034315789475)"><path fill="rgb(0,0,0)" stroke="none" paint-order="stroke fill markers" d=" M 0.117 0.25 L 0.056 0.25 Q 0.14400000000000002 0.162 0.187 0.041 Q 0.231 -0.08600000000000001 0.231 -0.25 Q 0.231 -0.342 0.2165 -0.422 Q 0.202 -0.502 0.184 -0.5515 Q 0.166 -0.601 0.1375 -0.6465 Q 0.109 -0.6920000000000001 0.0935 -0.71 Q 0.078 -0.728 0.056 -0.75 L 0.117 -0.75 Q 0.309 -0.5740000000000001 0.309 -0.25 Q 0.309 -0.09 0.262 0.036000000000000004 Q 0.246 0.079 0.226 0.1155 Q 0.20600000000000002 0.152 0.183 0.1795 Q 0.16 0.20700000000000002 0.148 0.2195 Q 0.136 0.232 0.117 0.25 Z"/></g><g transform="translate(20.5603567251462,15.543034315789475)"><path fill="rgb(0,0,0)" stroke="none" paint-order="stroke fill markers" d=" M 0.687 -0.33 L 0.09 -0.33 Q 0.056 -0.33 0.056 -0.35000000000000003 Q 0.056 -0.37 0.089 -0.37 L 0.6880000000000001 -0.37 Q 0.721 -0.37 0.721 -0.35000000000000003 Q 0.721 -0.33 0.687 -0.33 M 0.6880000000000001 -0.13 L 0.089 -0.13 Q 0.056 -0.13 0.056 -0.15 Q 0.056 -0.17 0.09 -0.17 L 0.687 -0.17 Q 0.721 -0.17 0.721 -0.15 Q 0.721 -0.13 0.6880000000000001 -0.13 Z"/></g><g transform="translate(21.679056440391346,14.866526315789475)"><path fill="rgb(0,0,0)" stroke="none" paint-order="stroke fill markers" d=" M 0.17400000000000002 -0.188 L 0.251 -0.259 Q 0.281 -0.29 0.2955 -0.3055 Q 0.31 -0.321 0.33 -0.34900000000000003 Q 0.35000000000000003 -0.377 0.3585 -0.404 Q 0.367 -0.431 0.367 -0.461 Q 0.367 -0.523 0.328 -0.5685 Q 0.289 -0.614 0.222 -0.614 Q 0.161 -0.614 0.1315 -0.5730000000000001 Q 0.10200000000000001 -0.532 0.083 -0.459 Q 0.066 -0.484 0.061 -0.488 Q 0.06 -0.489 0.0545 -0.4965 Q 0.049 -0.504 0.042 -0.514 Q 0.088 -0.678 0.23600000000000002 -0.678 Q 0.332 -0.678 0.3905 -0.6155 Q 0.449 -0.553 0.449 -0.463 Q 0.449 -0.424 0.4315 -0.3865 Q 0.41400000000000003 -0.34900000000000003 0.398 -0.3305 Q 0.382 -0.312 0.35000000000000003 -0.28 Q 0.34 -0.271 0.3055 -0.241 Q 0.271 -0.211 0.261 -0.202 Q 0.254 -0.196 0.1975 -0.14100000000000001 Q 0.14100000000000001 -0.08600000000000001 0.122 -0.07 L 0.231 -0.07 Q 0.23700000000000002 -0.07 0.249 -0.07050000000000001 Q 0.261 -0.07100000000000001 0.267 -0.07100000000000001 L 0.449 -0.07100000000000001 L 0.449 0 L 0.05 0 L 0.05 -0.064 L 0.17400000000000002 -0.188 Z"/></g><rect fill="rgb(0,0,0)" stroke="none" x="21.679056440391346" y="15.273034815789474" width="0.5" height="0.039999"/><g transform="translate(21.679056440391346,16.228985315789473)"><path fill="rgb(0,0,0)" stroke="none" paint-order="stroke fill markers" d=" M 0.092 -0.514 L 0.056 -0.5680000000000001 Q 0.08700000000000001 -0.62 0.1385 -0.649 Q 0.19 -0.678 0.248 -0.678 Q 0.323 -0.678 0.3765 -0.634 Q 0.43 -0.59 0.43 -0.526 Q 0.43 -0.47600000000000003 0.402 -0.4295 Q 0.374 -0.383 0.319 -0.354 Q 0.375 -0.337 0.41600000000000004 -0.2905 Q 0.457 -0.244 0.457 -0.18 Q 0.457 -0.099 0.3965 -0.0385 Q 0.336 0.022 0.247 0.022 Q 0.123 0.022 0.042 -0.082 L 0.053 -0.14200000000000002 Q 0.085 -0.093 0.138 -0.066 Q 0.191 -0.039 0.245 -0.039 Q 0.301 -0.039 0.3345 -0.08 Q 0.368 -0.121 0.368 -0.181 Q 0.368 -0.203 0.3625 -0.225 Q 0.357 -0.247 0.34400000000000003 -0.2705 Q 0.331 -0.294 0.3035 -0.309 Q 0.276 -0.324 0.23800000000000002 -0.324 L 0.167 -0.324 L 0.167 -0.385 Q 0.242 -0.391 0.246 -0.392 Q 0.291 -0.402 0.3195 -0.4405 Q 0.34800000000000003 -0.47900000000000004 0.34800000000000003 -0.526 Q 0.34800000000000003 -0.5710000000000001 0.3185 -0.5955 Q 0.289 -0.62 0.247 -0.62 Q 0.199 -0.62 0.156 -0.592 Q 0.113 -0.5640000000000001 0.092 -0.514 Z"/></g><g transform="translate(22.408645044525382,15.543034315789475)"><path fill="rgb(0,0,0)" stroke="none" paint-order="stroke fill markers" d=" M 0.265 -0.373 L 0.265 -0.373 L 0.209 -0.152 Q 0.192 -0.088 0.182 -0.054 Q 0.166 -0.005 0.152 0.005 L 0.152 0.006 Q 0.14300000000000002 0.011 0.132 0.011 Q 0.109 0.011 0.10400000000000001 -0.009000000000000001 Q 0.10300000000000001 -0.012 0.10300000000000001 -0.016 Q 0.10300000000000001 -0.025 0.111 -0.04 Q 0.20500000000000002 -0.243 0.23900000000000002 -0.373 L 0.182 -0.373 Q 0.10400000000000001 -0.373 0.055 -0.296 Q 0.046 -0.28400000000000003 0.039 -0.28400000000000003 Q 0.027 -0.28400000000000003 0.027 -0.294 Q 0.027 -0.305 0.063 -0.354 Q 0.07 -0.362 0.076 -0.37 Q 0.079 -0.374 0.083 -0.378 Q 0.085 -0.381 0.088 -0.384 Q 0.132 -0.431 0.192 -0.431 L 0.527 -0.431 Q 0.561 -0.431 0.5660000000000001 -0.41600000000000004 L 0.5660000000000001 -0.41500000000000004 Q 0.5670000000000001 -0.41200000000000003 0.5670000000000001 -0.40700000000000003 Q 0.5670000000000001 -0.373 0.518 -0.373 L 0.404 -0.373 Q 0.386 -0.28800000000000003 0.386 -0.214 Q 0.386 -0.121 0.41500000000000004 -0.049 Q 0.421 -0.035 0.421 -0.027 Q 0.421 -0.004 0.396 0.007 Q 0.388 0.011 0.38 0.011 Q 0.36 0.011 0.35000000000000003 -0.017 Q 0.34700000000000003 -0.026000000000000002 0.34400000000000003 -0.039 Q 0.336 -0.073 0.336 -0.115 Q 0.336 -0.181 0.363 -0.306 L 0.378 -0.373 L 0.265 -0.373 Z"/></g><g transform="translate(23.014645044525384,15.543034315789475)"><path fill="rgb(0,0,0)" stroke="none" paint-order="stroke fill markers" d=" M 0.599 -0.299 L 0.599 -0.027 Q 0.498 0.022 0.391 0.022 Q 0.256 0.022 0.1615 -0.08600000000000001 Q 0.067 -0.194 0.067 -0.34700000000000003 Q 0.067 -0.499 0.1605 -0.6075 Q 0.254 -0.716 0.393 -0.716 Q 0.437 -0.716 0.47600000000000003 -0.708 Q 0.515 -0.7000000000000001 0.5345 -0.6920000000000001 Q 0.554 -0.684 0.591 -0.667 L 0.5760000000000001 -0.586 Q 0.496 -0.652 0.392 -0.652 Q 0.291 -0.652 0.2235 -0.5625 Q 0.156 -0.47300000000000003 0.156 -0.34700000000000003 Q 0.156 -0.221 0.2235 -0.1315 Q 0.291 -0.042 0.392 -0.042 Q 0.455 -0.042 0.521 -0.062 L 0.521 -0.23800000000000002 L 0.389 -0.23800000000000002 L 0.389 -0.299 L 0.599 -0.299 Z"/></g><g transform="translate(23.681645044525386,15.543034315789475)"><path fill="rgb(0,0,0)" stroke="none" paint-order="stroke fill markers" d=" M 0.033 0.17300000000000001 L 0.131 -0.22 Q 0.157 -0.324 0.23900000000000002 -0.392 Q 0.3 -0.442 0.363 -0.442 Q 0.435 -0.442 0.47400000000000003 -0.382 Q 0.502 -0.34 0.502 -0.279 Q 0.502 -0.17 0.424 -0.079 Q 0.353 0.003 0.27 0.01 Q 0.263 0.011 0.256 0.011 Q 0.19 0.011 0.157 -0.056 Q 0.095 0.191 0.093 0.195 Q 0.079 0.216 0.058 0.216 Q 0.035 0.216 0.031 0.195 Q 0.03 0.192 0.03 0.189 Q 0.03 0.185 0.033 0.17300000000000001 M 0.255 -0.011 L 0.255 -0.011 Q 0.307 -0.011 0.352 -0.07200000000000001 Q 0.364 -0.08700000000000001 0.374 -0.106 Q 0.40700000000000003 -0.166 0.425 -0.27 Q 0.43 -0.301 0.43 -0.322 Q 0.43 -0.403 0.379 -0.418 Q 0.37 -0.42 0.361 -0.42 Q 0.307 -0.42 0.257 -0.355 Q 0.247 -0.341 0.23700000000000002 -0.325 Q 0.214 -0.28300000000000003 0.185 -0.17 Q 0.182 -0.157 0.177 -0.137 Q 0.169 -0.10200000000000001 0.169 -0.1 Q 0.169 -0.077 0.188 -0.049 Q 0.213 -0.011 0.255 -0.011 Z"/></g><g transform="translate(24.198645044525385,15.130142315789476) scale(0.7,0.7)"><path fill="rgb(0,0,0)" stroke="none" paint-order="stroke fill markers" d=" M 0.17400000000000002 -0.188 L 0.251 -0.259 Q 0.281 -0.29 0.2955 -0.3055 Q 0.31 -0.321 0.33 -0.34900000000000003 Q 0.35000000000000003 -0.377 0.3585 -0.404 Q 0.367 -0.431 0.367 -0.461 Q 0.367 -0.523 0.328 -0.5685 Q 0.289 -0.614 0.222 -0.614 Q 0.161 -0.614 0.1315 -0.5730000000000001 Q 0.10200000000000001 -0.532 0.083 -0.459 Q 0.066 -0.484 0.061 -0.488 Q 0.06 -0.489 0.0545 -0.4965 Q 0.049 -0.504 0.042 -0.514 Q 0.088 -0.678 0.23600000000000002 -0.678 Q 0.332 -0.678 0.3905 -0.6155 Q 0.449 -0.553 0.449 -0.463 Q 0.449 -0.424 0.4315 -0.3865 Q 0.41400000000000003 -0.34900000000000003 0.398 -0.3305 Q 0.382 -0.312 0.35000000000000003 -0.28 Q 0.34 -0.271 0.3055 -0.241 Q 0.271 -0.211 0.261 -0.202 Q 0.254 -0.196 0.1975 -0.14100000000000001 Q 0.14100000000000001 -0.08600000000000001 0.122 -0.07 L 0.231 -0.07 Q 0.23700000000000002 -0.07 0.249 -0.07050000000000001 Q 0.261 -0.07100000000000001 0.267 -0.07100000000000001 L 0.449 -0.07100000000000001 L 0.449 0 L 0.05 0 L 0.05 -0.064 L 0.17400000000000002 -0.188 Z"/></g><g transform="translate(24.574862518470123,15.543034315789475)"><path fill="rgb(0,0,0)" stroke="none" paint-order="stroke fill markers" d=" M 0.271 -0.75 L 0.332 -0.75 Q 0.244 -0.662 0.201 -0.541 Q 0.157 -0.41400000000000003 0.157 -0.25 Q 0.157 -0.158 0.1715 -0.078 Q 0.186 0.002 0.20400000000000001 0.051500000000000004 Q 0.222 0.101 0.2505 0.1465 Q 0.279 0.192 0.2945 0.21 Q 0.31 0.228 0.332 0.25 L 0.271 0.25 Q 0.079 0.074 0.079 -0.25 Q 0.079 -0.41000000000000003 0.126 -0.536 Q 0.14200000000000002 -0.579 0.162 -0.6155 Q 0.182 -0.652 0.20500000000000002 -0.6795 Q 0.228 -0.707 0.24 -0.7195 Q 0.252 -0.732 0.271 -0.75 Z"/></g><g transform="translate(24.963862518470123,15.543034315789475)"><path fill="rgb(0,0,0)" stroke="none" paint-order="stroke fill markers" d=" M 0.419 -0.326 L 0.617 0 L 0.528 0 L 0.34 -0.317 L 0.182 -0.317 L 0.182 0 L 0.096 0 L 0.096 -0.6940000000000001 L 0.337 -0.6940000000000001 Q 0.443 -0.6940000000000001 0.516 -0.6385000000000001 Q 0.589 -0.583 0.589 -0.508 Q 0.589 -0.447 0.5425 -0.398 Q 0.496 -0.34900000000000003 0.419 -0.326 M 0.182 -0.378 L 0.326 -0.378 Q 0.41100000000000003 -0.378 0.4595 -0.41500000000000004 Q 0.508 -0.452 0.508 -0.508 Q 0.508 -0.5630000000000001 0.459 -0.6005 Q 0.41000000000000003 -0.638 0.326 -0.638 L 0.182 -0.638 L 0.182 -0.378 Z"/></g><g transform="translate(25.609862518470123,15.130142315789476) scale(0.7,0.7)"><path fill="rgb(0,0,0)" stroke="none" paint-order="stroke fill markers" d=" M 0.17400000000000002 -0.188 L 0.251 -0.259 Q 0.281 -0.29 0.2955 -0.3055 Q 0.31 -0.321 0.33 -0.34900000000000003 Q 0.35000000000000003 -0.377 0.3585 -0.404 Q 0.367 -0.431 0.367 -0.461 Q 0.367 -0.523 0.328 -0.5685 Q 0.289 -0.614 0.222 -0.614 Q 0.161 -0.614 0.1315 -0.5730000000000001 Q 0.10200000000000001 -0.532 0.083 -0.459 Q 0.066 -0.484 0.061 -0.488 Q 0.06 -0.489 0.0545 -0.4965 Q 0.049 -0.504 0.042 -0.514 Q 0.088 -0.678 0.23600000000000002 -0.678 Q 0.332 -0.678 0.3905 -0.6155 Q 0.449 -0.553 0.449 -0.463 Q 0.449 -0.424 0.4315 -0.3865 Q 0.41400000000000003 -0.34900000000000003 0.398 -0.3305 Q 0.382 -0.312 0.35000000000000003 -0.28 Q 0.34 -0.271 0.3055 -0.241 Q 0.271 -0.211 0.261 -0.202 Q 0.254 -0.196 0.1975 -0.14100000000000001 Q 0.14100000000000001 -0.08600000000000001 0.122 -0.07 L 0.231 -0.07 Q 0.23700000000000002 -0.07 0.249 -0.07050000000000001 Q 0.261 -0.07100000000000001 0.267 -0.07100000000000001 L 0.449 -0.07100000000000001 L 0.449 0 L 0.05 0 L 0.05 -0.064 L 0.17400000000000002 -0.188 Z"/></g><g transform="translate(26.20830221463708,15.543034315789475)"><path fill="rgb(0,0,0)" stroke="none" paint-order="stroke fill markers" d=" M 0.661 -0.23 L 0.116 -0.23 Q 0.084 -0.23 0.083 -0.25 Q 0.083 -0.27 0.116 -0.27 L 0.661 -0.27 Q 0.6930000000000001 -0.27 0.6940000000000001 -0.25 Q 0.6940000000000001 -0.23 0.661 -0.23 Z"/></g><g transform="translate(27.2085244368593,15.543034315789475)"><path fill="rgb(0,0,0)" stroke="none" paint-order="stroke fill markers" d=" M 0.157 -0.214 L 0.157 0 L 0.082 0 L 0.082 -0.45 L 0.152 -0.45 L 0.152 -0.359 Q 0.216 -0.454 0.327 -0.455 L 0.327 -0.388 Q 0.253 -0.386 0.20500000000000002 -0.3375 Q 0.157 -0.289 0.157 -0.214 Z"/></g><g transform="translate(27.5645244368593,15.130142315789476) scale(0.7,0.7)"><path fill="rgb(0,0,0)" stroke="none" paint-order="stroke fill markers" d=" M 0.17400000000000002 -0.188 L 0.251 -0.259 Q 0.281 -0.29 0.2955 -0.3055 Q 0.31 -0.321 0.33 -0.34900000000000003 Q 0.35000000000000003 -0.377 0.3585 -0.404 Q 0.367 -0.431 0.367 -0.461 Q 0.367 -0.523 0.328 -0.5685 Q 0.289 -0.614 0.222 -0.614 Q 0.161 -0.614 0.1315 -0.5730000000000001 Q 0.10200000000000001 -0.532 0.083 -0.459 Q 0.066 -0.484 0.061 -0.488 Q 0.06 -0.489 0.0545 -0.4965 Q 0.049 -0.504 0.042 -0.514 Q 0.088 -0.678 0.23600000000000002 -0.678 Q 0.332 -0.678 0.3905 -0.6155 Q 0.449 -0.553 0.449 -0.463 Q 0.449 -0.424 0.4315 -0.3865 Q 0.41400000000000003 -0.34900000000000003 0.398 -0.3305 Q 0.382 -0.312 0.35000000000000003 -0.28 Q 0.34 -0.271 0.3055 -0.241 Q 0.271 -0.211 0.261 -0.202 Q 0.254 -0.196 0.1975 -0.14100000000000001 Q 0.14100000000000001 -0.08600000000000001 0.122 -0.07 L 0.231 -0.07 Q 0.23700000000000002 -0.07 0.249 -0.07050000000000001 Q 0.261 -0.07100000000000001 0.267 -0.07100000000000001 L 0.449 -0.07100000000000001 L 0.449 0 L 0.05 0 L 0.05 -0.064 L 0.17400000000000002 -0.188 Z"/></g><g transform="translate(27.940741910804036,15.543034315789475)"><path fill="rgb(0,0,0)" stroke="none" paint-order="stroke fill markers" d=" M 0.117 0.25 L 0.056 0.25 Q 0.14400000000000002 0.162 0.187 0.041 Q 0.231 -0.08600000000000001 0.231 -0.25 Q 0.231 -0.342 0.2165 -0.422 Q 0.202 -0.502 0.184 -0.5515 Q 0.166 -0.601 0.1375 -0.6465 Q 0.109 -0.6920000000000001 0.0935 -0.71 Q 0.078 -0.728 0.056 -0.75 L 0.117 -0.75 Q 0.309 -0.5740000000000001 0.309 -0.25 Q 0.309 -0.09 0.262 0.036000000000000004 Q 0.246 0.079 0.226 0.1155 Q 0.20600000000000002 0.152 0.183 0.1795 Q 0.16 0.20700000000000002 0.148 0.2195 Q 0.136 0.232 0.117 0.25 Z"/></g></g></g></g></svg>