<svg version="1.1" xmlns="http://www.w3.org/2000/svg" xmlns:xlink="http://www.w3.org/1999/xlink" width="1152" height="740"><defs><clipPath id="ACcyEEQHZfia"><path fill="none" stroke="none" d=" M 0 0 L 1152 0 L 1152 740 L 0 740 L 0 0 Z"/></clipPath></defs><g transform="scale(1,1)" clip-path="url(#ACcyEEQHZfia)"><g><rect fill="rgb(255,255,255)" stroke="none" x="0" y="0" width="1152" height="740" fill-opacity="1"/><path fill="none" stroke="rgb(192,192,192)" paint-order="fill stroke markers" d=" M 0.5 0.5 L 0.5 740.5 M 0.5 0.5 L 0.5 740.5 M 85.5 0.5 L 85.5 740.5 M 170.5 0.5 L 170.5 740.5 M 255.5 0.5 L 255.5 740.5 M 425.5 0.5 L 425.5 740.5 M 510.5 0.5 L 510.5 740.5 M 595.5 0.5 L 595.5 740.5 M 681.5 0.5 L 681.5 740.5 M 766.5 0.5 L 766.5 740.5 M 851.5 0.5 L 851.5 740.5 M 936.5 0.5 L 936.5 740.5 M 1021.5 0.5 L 1021.5 740.5 M 1106.5 0.5 L 1106.5 740.5" stroke-opacity="1" stroke-linecap="round" stroke-linejoin="round" stroke-miterlimit="10"/><path fill="none" stroke="rgb(192,192,192)" paint-order="fill stroke markers" d=" M 17.5 0.5 L 17.5 740.5 M 34.5 0.5 L 34.5 740.5 M 51.5 0.5 L 51.5 740.5 M 68.5 0.5 L 68.5 740.5 M 102.5 0.5 L 102.5 740.5 M 119.5 0.5 L 119.5 740.5 M 136.5 0.5 L 136.5 740.5 M 153.5 0.5 L 153.5 740.5 M 187.5 0.5 L 187.5 740.5 M 204.5 0.5 L 204.5 740.5 M 221.5 0.5 L 221.5 740.5 M 238.5 0.5 L 238.5 740.5 M 272.5 0.5 L 272.5 740.5 M 289.5 0.5 L 289.5 740.5 M 306.5 0.5 L 306.5 740.5 M 323.5 0.5 L 323.5 740.5 M 357.5 0.5 L 357.5 740.5 M 374.5 0.5 L 374.5 740.5 M 391.5 0.5 L 391.5 740.5 M 408.5 0.5 L 408.5 740.5 M 442.5 0.5 L 442.5 740.5 M 459.5 0.5 L 459.5 740.5 M 476.5 0.5 L 476.5 740.5 M 493.5 0.5 L 493.5 740.5 M 527.5 0.5 L 527.5 740.5 M 544.5 0.5 L 544.5 740.5 M 561.5 0.5 L 561.5 740.5 M 578.5 0.5 L 578.5 740.5 M 612.5 0.5 L 612.5 740.5 M 629.5 0.5 L 629.5 740.5 M 646.5 0.5 L 646.5 740.5 M 663.5 0.5 L 663.5 740.5 M 698.5 0.5 L 698.5 740.5 M 715.5 0.5 L 715.5 740.5 M 732.5 0.5 L 732.5 740.5 M 749.5 0.5 L 749.5 740.5 M 783.5 0.5 L 783.5 740.5 M 800.5 0.5 L 800.5 740.5 M 817.5 0.5 L 817.5 740.5 M 834.5 0.5 L 834.5 740.5 M 868.5 0.5 L 868.5 740.5 M 885.5 0.5 L 885.5 740.5 M 902.5 0.5 L 902.5 740.5 M 919.5 0.5 L 919.5 740.5 M 953.5 0.5 L 953.5 740.5 M 970.5 0.5 L 970.5 740.5 M 987.5 0.5 L 987.5 740.5 M 1004.5 0.5 L 1004.5 740.5 M 1038.5 0.5 L 1038.5 740.5 M 1055.5 0.5 L 1055.5 740.5 M 1072.5 0.5 L 1072.5 740.5 M 1089.5 0.5 L 1089.5 740.5 M 1123.5 0.5 L 1123.5 740.5 M 1140.5 0.5 L 1140.5 740.5" stroke-opacity="0.23529411764705882" stroke-linecap="round" stroke-linejoin="round" stroke-miterlimit="10"/><path fill="none" stroke="rgb(192,192,192)" paint-order="fill stroke markers" d=" M 0.5 49.5 L 1152.5 49.5 M 0.5 49.5 L 1152.5 49.5 M 0.5 134.5 L 1152.5 134.5 M 0.5 219.5 L 1152.5 219.5 M 0.5 304.5 L 1152.5 304.5 M 0.5 389.5 L 1152.5 389.5 M 0.5 474.5 L 1152.5 474.5 M 0.5 559.5 L 1152.5 559.5 M 0.5 729.5 L 1152.5 729.5" stroke-opacity="1" stroke-linecap="round" stroke-linejoin="round" stroke-miterlimit="10"/><path fill="none" stroke="rgb(192,192,192)" paint-order="fill stroke markers" d=" M 0.5 15.5 L 1152.5 15.5 M 0.5 15.5 L 1152.5 15.5 M 0.5 32.5 L 1152.5 32.5 M 0.5 66.5 L 1152.5 66.5 M 0.5 83.5 L 1152.5 83.5 M 0.5 100.5 L 1152.5 100.5 M 0.5 117.5 L 1152.5 117.5 M 0.5 151.5 L 1152.5 151.5 M 0.5 168.5 L 1152.5 168.5 M 0.5 185.5 L 1152.5 185.5 M 0.5 202.5 L 1152.5 202.5 M 0.5 236.5 L 1152.5 236.5 M 0.5 253.5 L 1152.5 253.5 M 0.5 270.5 L 1152.5 270.5 M 0.5 287.5 L 1152.5 287.5 M 0.5 321.5 L 1152.5 321.5 M 0.5 338.5 L 1152.5 338.5 M 0.5 355.5 L 1152.5 355.5 M 0.5 372.5 L 1152.5 372.5 M 0.5 406.5 L 1152.5 406.5 M 0.5 423.5 L 1152.5 423.5 M 0.5 440.5 L 1152.5 440.5 M 0.5 457.5 L 1152.5 457.5 M 0.5 491.5 L 1152.5 491.5 M 0.5 508.5 L 1152.5 508.5 M 0.5 525.5 L 1152.5 525.5 M 0.5 542.5 L 1152.5 542.5 M 0.5 576.5 L 1152.5 576.5 M 0.5 593.5 L 1152.5 593.5 M 0.5 610.5 L 1152.5 610.5 M 0.5 627.5 L 1152.5 627.5 M 0.5 661.5 L 1152.5 661.5 M 0.5 678.5 L 1152.5 678.5 M 0.5 695.5 L 1152.5 695.5 M 0.5 712.5 L 1152.5 712.5" stroke-opacity="0.23529411764705882" stroke-linecap="round" stroke-linejoin="round" stroke-miterlimit="10"/><path fill="none" stroke="rgb(0,0,0)" paint-order="fill stroke markers" d=" M 340.5 2.5 L 340.5 740.5" stroke-opacity="1" stroke-miterlimit="10"/><path fill="none" stroke="rgb(0,0,0)" paint-order="fill stroke markers" d=" M 340.5 1.5 L 336.5 5.5" stroke-opacity="1" stroke-miterlimit="10"/><path fill="none" stroke="rgb(0,0,0)" paint-order="fill stroke markers" d=" M 340.5 1.5 L 344.5 5.5" stroke-opacity="1" stroke-miterlimit="10"/><path fill="none" stroke="rgb(0,0,0)" paint-order="fill stroke markers" d=" M 0.5 644.5 L 1150.5 644.5" stroke-opacity="1" stroke-miterlimit="10"/><path fill="none" stroke="rgb(0,0,0)" paint-order="fill stroke markers" d=" M 1151.5 644.5 L 1147.5 640.5" stroke-opacity="1" stroke-miterlimit="10"/><path fill="none" stroke="rgb(0,0,0)" paint-order="fill stroke markers" d=" M 1151.5 644.5 L 1147.5 648.5" stroke-opacity="1" stroke-miterlimit="10"/><text fill="rgb(0,0,0)" stroke="none" font-family="geogebra-sans-serif, sans-serif" font-size="12px" font-style="normal" font-weight="normal" text-decoration="normal" x="74" y="660" text-anchor="start" dominant-baseline="alphabetic" fill-opacity="1">–600</text><text fill="none" stroke="rgb(255,255,255)" font-family="geogebra-sans-serif, sans-serif" font-size="12px" font-style="normal" font-weight="normal" text-decoration="normal" x="74" y="660" text-anchor="start" dominant-baseline="alphabetic" stroke-opacity="1" stroke-linejoin="bevel" stroke-miterlimit="10" stroke-width="3">–600</text><text fill="rgb(0,0,0)" stroke="none" font-family="geogebra-sans-serif, sans-serif" font-size="12px" font-style="normal" font-weight="normal" text-decoration="normal" x="74" y="660" text-anchor="start" dominant-baseline="alphabetic" fill-opacity="1">–600</text><text fill="rgb(0,0,0)" stroke="none" font-family="geogebra-sans-serif, sans-serif" font-size="12px" font-style="normal" font-weight="normal" text-decoration="normal" x="159" y="660" text-anchor="start" dominant-baseline="alphabetic" fill-opacity="1">–400</text><text fill="none" stroke="rgb(255,255,255)" font-family="geogebra-sans-serif, sans-serif" font-size="12px" font-style="normal" font-weight="normal" text-decoration="normal" x="159" y="660" text-anchor="start" dominant-baseline="alphabetic" stroke-opacity="1" stroke-linejoin="bevel" stroke-miterlimit="10" stroke-width="3">–400</text><text fill="rgb(0,0,0)" stroke="none" font-family="geogebra-sans-serif, sans-serif" font-size="12px" font-style="normal" font-weight="normal" text-decoration="normal" x="159" y="660" text-anchor="start" dominant-baseline="alphabetic" fill-opacity="1">–400</text><text fill="rgb(0,0,0)" stroke="none" font-family="geogebra-sans-serif, sans-serif" font-size="12px" font-style="normal" font-weight="normal" text-decoration="normal" x="244" y="660" text-anchor="start" dominant-baseline="alphabetic" fill-opacity="1">–200</text><text fill="none" stroke="rgb(255,255,255)" font-family="geogebra-sans-serif, sans-serif" font-size="12px" font-style="normal" font-weight="normal" text-decoration="normal" x="244" y="660" text-anchor="start" dominant-baseline="alphabetic" stroke-opacity="1" stroke-linejoin="bevel" stroke-miterlimit="10" stroke-width="3">–200</text><text fill="rgb(0,0,0)" stroke="none" font-family="geogebra-sans-serif, sans-serif" font-size="12px" font-style="normal" font-weight="normal" text-decoration="normal" x="244" y="660" text-anchor="start" dominant-baseline="alphabetic" fill-opacity="1">–200</text><text fill="rgb(0,0,0)" stroke="none" font-family="geogebra-sans-serif, sans-serif" font-size="12px" font-style="normal" font-weight="normal" text-decoration="normal" x="417" y="660" text-anchor="start" dominant-baseline="alphabetic" fill-opacity="1">200</text><text fill="none" stroke="rgb(255,255,255)" font-family="geogebra-sans-serif, sans-serif" font-size="12px" font-style="normal" font-weight="normal" text-decoration="normal" x="417" y="660" text-anchor="start" dominant-baseline="alphabetic" stroke-opacity="1" stroke-linejoin="bevel" stroke-miterlimit="10" stroke-width="3">200</text><text fill="rgb(0,0,0)" stroke="none" font-family="geogebra-sans-serif, sans-serif" font-size="12px" font-style="normal" font-weight="normal" text-decoration="normal" x="417" y="660" text-anchor="start" dominant-baseline="alphabetic" fill-opacity="1">200</text><text fill="rgb(0,0,0)" stroke="none" font-family="geogebra-sans-serif, sans-serif" font-size="12px" font-style="normal" font-weight="normal" text-decoration="normal" x="502" y="660" text-anchor="start" dominant-baseline="alphabetic" fill-opacity="1">400</text><text fill="none" stroke="rgb(255,255,255)" font-family="geogebra-sans-serif, sans-serif" font-size="12px" font-style="normal" font-weight="normal" text-decoration="normal" x="502" y="660" text-anchor="start" dominant-baseline="alphabetic" stroke-opacity="1" stroke-linejoin="bevel" stroke-miterlimit="10" stroke-width="3">400</text><text fill="rgb(0,0,0)" stroke="none" font-family="geogebra-sans-serif, sans-serif" font-size="12px" font-style="normal" font-weight="normal" text-decoration="normal" x="502" y="660" text-anchor="start" dominant-baseline="alphabetic" fill-opacity="1">400</text><text fill="rgb(0,0,0)" stroke="none" font-family="geogebra-sans-serif, sans-serif" font-size="12px" font-style="normal" font-weight="normal" text-decoration="normal" x="587" y="660" text-anchor="start" dominant-baseline="alphabetic" fill-opacity="1">600</text><text fill="none" stroke="rgb(255,255,255)" font-family="geogebra-sans-serif, sans-serif" font-size="12px" font-style="normal" font-weight="normal" text-decoration="normal" x="587" y="660" text-anchor="start" dominant-baseline="alphabetic" stroke-opacity="1" stroke-linejoin="bevel" stroke-miterlimit="10" stroke-width="3">600</text><text fill="rgb(0,0,0)" stroke="none" font-family="geogebra-sans-serif, sans-serif" font-size="12px" font-style="normal" font-weight="normal" text-decoration="normal" x="587" y="660" text-anchor="start" dominant-baseline="alphabetic" fill-opacity="1">600</text><text fill="rgb(0,0,0)" stroke="none" font-family="geogebra-sans-serif, sans-serif" font-size="12px" font-style="normal" font-weight="normal" text-decoration="normal" x="673" y="660" text-anchor="start" dominant-baseline="alphabetic" fill-opacity="1">800</text><text fill="none" stroke="rgb(255,255,255)" font-family="geogebra-sans-serif, sans-serif" font-size="12px" font-style="normal" font-weight="normal" text-decoration="normal" x="673" y="660" text-anchor="start" dominant-baseline="alphabetic" stroke-opacity="1" stroke-linejoin="bevel" stroke-miterlimit="10" stroke-width="3">800</text><text fill="rgb(0,0,0)" stroke="none" font-family="geogebra-sans-serif, sans-serif" font-size="12px" font-style="normal" font-weight="normal" text-decoration="normal" x="673" y="660" text-anchor="start" dominant-baseline="alphabetic" fill-opacity="1">800</text><text fill="rgb(0,0,0)" stroke="none" font-family="geogebra-sans-serif, sans-serif" font-size="12px" font-style="normal" font-weight="normal" text-decoration="normal" x="755" y="660" text-anchor="start" dominant-baseline="alphabetic" fill-opacity="1">1000</text><text fill="none" stroke="rgb(255,255,255)" font-family="geogebra-sans-serif, sans-serif" font-size="12px" font-style="normal" font-weight="normal" text-decoration="normal" x="755" y="660" text-anchor="start" dominant-baseline="alphabetic" stroke-opacity="1" stroke-linejoin="bevel" stroke-miterlimit="10" stroke-width="3">1000</text><text fill="rgb(0,0,0)" stroke="none" font-family="geogebra-sans-serif, sans-serif" font-size="12px" font-style="normal" font-weight="normal" text-decoration="normal" x="755" y="660" text-anchor="start" dominant-baseline="alphabetic" fill-opacity="1">1000</text><text fill="rgb(0,0,0)" stroke="none" font-family="geogebra-sans-serif, sans-serif" font-size="12px" font-style="normal" font-weight="normal" text-decoration="normal" x="840" y="660" text-anchor="start" dominant-baseline="alphabetic" fill-opacity="1">1200</text><text fill="none" stroke="rgb(255,255,255)" font-family="geogebra-sans-serif, sans-serif" font-size="12px" font-style="normal" font-weight="normal" text-decoration="normal" x="840" y="660" text-anchor="start" dominant-baseline="alphabetic" stroke-opacity="1" stroke-linejoin="bevel" stroke-miterlimit="10" stroke-width="3">1200</text><text fill="rgb(0,0,0)" stroke="none" font-family="geogebra-sans-serif, sans-serif" font-size="12px" font-style="normal" font-weight="normal" text-decoration="normal" x="840" y="660" text-anchor="start" dominant-baseline="alphabetic" fill-opacity="1">1200</text><text fill="rgb(0,0,0)" stroke="none" font-family="geogebra-sans-serif, sans-serif" font-size="12px" font-style="normal" font-weight="normal" text-decoration="normal" x="925" y="660" text-anchor="start" dominant-baseline="alphabetic" fill-opacity="1">1400</text><text fill="none" stroke="rgb(255,255,255)" font-family="geogebra-sans-serif, sans-serif" font-size="12px" font-style="normal" font-weight="normal" text-decoration="normal" x="925" y="660" text-anchor="start" dominant-baseline="alphabetic" stroke-opacity="1" stroke-linejoin="bevel" stroke-miterlimit="10" stroke-width="3">1400</text><text fill="rgb(0,0,0)" stroke="none" font-family="geogebra-sans-serif, sans-serif" font-size="12px" font-style="normal" font-weight="normal" text-decoration="normal" x="925" y="660" text-anchor="start" dominant-baseline="alphabetic" fill-opacity="1">1400</text><text fill="rgb(0,0,0)" stroke="none" font-family="geogebra-sans-serif, sans-serif" font-size="12px" font-style="normal" font-weight="normal" text-decoration="normal" x="1010" y="660" text-anchor="start" dominant-baseline="alphabetic" fill-opacity="1">1600</text><text fill="none" stroke="rgb(255,255,255)" font-family="geogebra-sans-serif, sans-serif" font-size="12px" font-style="normal" font-weight="normal" text-decoration="normal" x="1010" y="660" text-anchor="start" dominant-baseline="alphabetic" stroke-opacity="1" stroke-linejoin="bevel" stroke-miterlimit="10" stroke-width="3">1600</text><text fill="rgb(0,0,0)" stroke="none" font-family="geogebra-sans-serif, sans-serif" font-size="12px" font-style="normal" font-weight="normal" text-decoration="normal" x="1010" y="660" text-anchor="start" dominant-baseline="alphabetic" fill-opacity="1">1600</text><text fill="rgb(0,0,0)" stroke="none" font-family="geogebra-sans-serif, sans-serif" font-size="12px" font-style="normal" font-weight="normal" text-decoration="normal" x="1095" y="660" text-anchor="start" dominant-baseline="alphabetic" fill-opacity="1">1800</text><text fill="none" stroke="rgb(255,255,255)" font-family="geogebra-sans-serif, sans-serif" font-size="12px" font-style="normal" font-weight="normal" text-decoration="normal" x="1095" y="660" text-anchor="start" dominant-baseline="alphabetic" stroke-opacity="1" stroke-linejoin="bevel" stroke-miterlimit="10" stroke-width="3">1800</text><text fill="rgb(0,0,0)" stroke="none" font-family="geogebra-sans-serif, sans-serif" font-size="12px" font-style="normal" font-weight="normal" text-decoration="normal" x="1095" y="660" text-anchor="start" dominant-baseline="alphabetic" fill-opacity="1">1800</text><text fill="rgb(0,0,0)" stroke="none" font-family="geogebra-sans-serif, sans-serif" font-size="12px" font-style="normal" font-weight="normal" text-decoration="normal" x="306" y="734" text-anchor="start" dominant-baseline="alphabetic" fill-opacity="1">–200</text><text fill="none" stroke="rgb(255,255,255)" font-family="geogebra-sans-serif, sans-serif" font-size="12px" font-style="normal" font-weight="normal" text-decoration="normal" x="306" y="734" text-anchor="start" dominant-baseline="alphabetic" stroke-opacity="1" stroke-linejoin="bevel" stroke-miterlimit="10" stroke-width="3">–200</text><text fill="rgb(0,0,0)" stroke="none" font-family="geogebra-sans-serif, sans-serif" font-size="12px" font-style="normal" font-weight="normal" text-decoration="normal" x="306" y="734" text-anchor="start" dominant-baseline="alphabetic" fill-opacity="1">–200</text><text fill="rgb(0,0,0)" stroke="none" font-family="geogebra-sans-serif, sans-serif" font-size="12px" font-style="normal" font-weight="normal" text-decoration="normal" x="313" y="564" text-anchor="start" dominant-baseline="alphabetic" fill-opacity="1">200</text><text fill="none" stroke="rgb(255,255,255)" font-family="geogebra-sans-serif, sans-serif" font-size="12px" font-style="normal" font-weight="normal" text-decoration="normal" x="313" y="564" text-anchor="start" dominant-baseline="alphabetic" stroke-opacity="1" stroke-linejoin="bevel" stroke-miterlimit="10" stroke-width="3">200</text><text fill="rgb(0,0,0)" stroke="none" font-family="geogebra-sans-serif, sans-serif" font-size="12px" font-style="normal" font-weight="normal" text-decoration="normal" x="313" y="564" text-anchor="start" dominant-baseline="alphabetic" fill-opacity="1">200</text><text fill="rgb(0,0,0)" stroke="none" font-family="geogebra-sans-serif, sans-serif" font-size="12px" font-style="normal" font-weight="normal" text-decoration="normal" x="313" y="479" text-anchor="start" dominant-baseline="alphabetic" fill-opacity="1">400</text><text fill="none" stroke="rgb(255,255,255)" font-family="geogebra-sans-serif, sans-serif" font-size="12px" font-style="normal" font-weight="normal" text-decoration="normal" x="313" y="479" text-anchor="start" dominant-baseline="alphabetic" stroke-opacity="1" stroke-linejoin="bevel" stroke-miterlimit="10" stroke-width="3">400</text><text fill="rgb(0,0,0)" stroke="none" font-family="geogebra-sans-serif, sans-serif" font-size="12px" font-style="normal" font-weight="normal" text-decoration="normal" x="313" y="479" text-anchor="start" dominant-baseline="alphabetic" fill-opacity="1">400</text><text fill="rgb(0,0,0)" stroke="none" font-family="geogebra-sans-serif, sans-serif" font-size="12px" font-style="normal" font-weight="normal" text-decoration="normal" x="313" y="394" text-anchor="start" dominant-baseline="alphabetic" fill-opacity="1">600</text><text fill="none" stroke="rgb(255,255,255)" font-family="geogebra-sans-serif, sans-serif" font-size="12px" font-style="normal" font-weight="normal" text-decoration="normal" x="313" y="394" text-anchor="start" dominant-baseline="alphabetic" stroke-opacity="1" stroke-linejoin="bevel" stroke-miterlimit="10" stroke-width="3">600</text><text fill="rgb(0,0,0)" stroke="none" font-family="geogebra-sans-serif, sans-serif" font-size="12px" font-style="normal" font-weight="normal" text-decoration="normal" x="313" y="394" text-anchor="start" dominant-baseline="alphabetic" fill-opacity="1">600</text><text fill="rgb(0,0,0)" stroke="none" font-family="geogebra-sans-serif, sans-serif" font-size="12px" font-style="normal" font-weight="normal" text-decoration="normal" x="313" y="309" text-anchor="start" dominant-baseline="alphabetic" fill-opacity="1">800</text><text fill="none" stroke="rgb(255,255,255)" font-family="geogebra-sans-serif, sans-serif" font-size="12px" font-style="normal" font-weight="normal" text-decoration="normal" x="313" y="309" text-anchor="start" dominant-baseline="alphabetic" stroke-opacity="1" stroke-linejoin="bevel" stroke-miterlimit="10" stroke-width="3">800</text><text fill="rgb(0,0,0)" stroke="none" font-family="geogebra-sans-serif, sans-serif" font-size="12px" font-style="normal" font-weight="normal" text-decoration="normal" x="313" y="309" text-anchor="start" dominant-baseline="alphabetic" fill-opacity="1">800</text><text fill="rgb(0,0,0)" stroke="none" font-family="geogebra-sans-serif, sans-serif" font-size="12px" font-style="normal" font-weight="normal" text-decoration="normal" x="306" y="224" text-anchor="start" dominant-baseline="alphabetic" fill-opacity="1">1000</text><text fill="none" stroke="rgb(255,255,255)" font-family="geogebra-sans-serif, sans-serif" font-size="12px" font-style="normal" font-weight="normal" text-decoration="normal" x="306" y="224" text-anchor="start" dominant-baseline="alphabetic" stroke-opacity="1" stroke-linejoin="bevel" stroke-miterlimit="10" stroke-width="3">1000</text><text fill="rgb(0,0,0)" stroke="none" font-family="geogebra-sans-serif, sans-serif" font-size="12px" font-style="normal" font-weight="normal" text-decoration="normal" x="306" y="224" text-anchor="start" dominant-baseline="alphabetic" fill-opacity="1">1000</text><text fill="rgb(0,0,0)" stroke="none" font-family="geogebra-sans-serif, sans-serif" font-size="12px" font-style="normal" font-weight="normal" text-decoration="normal" x="306" y="139" text-anchor="start" dominant-baseline="alphabetic" fill-opacity="1">1200</text><text fill="none" stroke="rgb(255,255,255)" font-family="geogebra-sans-serif, sans-serif" font-size="12px" font-style="normal" font-weight="normal" text-decoration="normal" x="306" y="139" text-anchor="start" dominant-baseline="alphabetic" stroke-opacity="1" stroke-linejoin="bevel" stroke-miterlimit="10" stroke-width="3">1200</text><text fill="rgb(0,0,0)" stroke="none" font-family="geogebra-sans-serif, sans-serif" font-size="12px" font-style="normal" font-weight="normal" text-decoration="normal" x="306" y="139" text-anchor="start" dominant-baseline="alphabetic" fill-opacity="1">1200</text><text fill="rgb(0,0,0)" stroke="none" font-family="geogebra-sans-serif, sans-serif" font-size="12px" font-style="normal" font-weight="normal" text-decoration="normal" x="306" y="54" text-anchor="start" dominant-baseline="alphabetic" fill-opacity="1">1400</text><text fill="none" stroke="rgb(255,255,255)" font-family="geogebra-sans-serif, sans-serif" font-size="12px" font-style="normal" font-weight="normal" text-decoration="normal" x="306" y="54" text-anchor="start" dominant-baseline="alphabetic" stroke-opacity="1" stroke-linejoin="bevel" stroke-miterlimit="10" stroke-width="3">1400</text><text fill="rgb(0,0,0)" stroke="none" font-family="geogebra-sans-serif, sans-serif" font-size="12px" font-style="normal" font-weight="normal" text-decoration="normal" x="306" y="54" text-anchor="start" dominant-baseline="alphabetic" fill-opacity="1">1400</text><text fill="rgb(0,0,0)" stroke="none" font-family="geogebra-sans-serif, sans-serif" font-size="12px" font-style="normal" font-weight="normal" text-decoration="normal" x="326" y="660" text-anchor="start" dominant-baseline="alphabetic" fill-opacity="1">0</text><text fill="none" stroke="rgb(255,255,255)" font-family="geogebra-sans-serif, sans-serif" font-size="12px" font-style="normal" font-weight="normal" text-decoration="normal" x="326" y="660" text-anchor="start" dominant-baseline="alphabetic" stroke-opacity="1" stroke-linejoin="bevel" stroke-miterlimit="10" stroke-width="3">0</text><text fill="rgb(0,0,0)" stroke="none" font-family="geogebra-sans-serif, sans-serif" font-size="12px" font-style="normal" font-weight="normal" text-decoration="normal" x="326" y="660" text-anchor="start" dominant-baseline="alphabetic" fill-opacity="1">0</text><path fill="none" stroke="rgb(153,51,0)" paint-order="fill stroke markers" d=" M 1 781.5369415835274 L 1 784.8655936148425 L 1 781.5369415835278 L 2 778.2180691183028 L 2 778.2180691183031 L 3 774.9089762191679 L 3 774.9089762191683 L 3.999999999999943 771.6096628861233 L 3.999999999999943 771.6096628861236 L 4.999999999999943 768.3201291191684 L 4.999999999999943 768.3201291191688 L 5.999999999999943 765.0403749183037 L 5.999999999999943 765.040374918304 L 6.999999999999943 761.7704002835289 L 6.999999999999943 761.7704002835292 L 7.999999999999943 758.5102052148442 L 7.999999999999943 758.5102052148445 L 8.999999999999943 755.2597897122494 L 8.999999999999943 755.2597897122496 L 10 752.0191537757441 L 10 752.0191537757444 L 11 748.7882974053293 L 11 748.7882974053296 L 12 745.5672206010044 L 12 745.5672206010047 L 13 742.3559233627695 L 13 742.3559233627698 L 14 739.1544056906246 L 14 739.1544056906249 L 15 735.9626675845697 L 15 735.96266758457 L 16 732.7807090446047 L 16 732.780709044605 L 17 729.6085300707298 L 17 729.6085300707301 L 18 726.4461306629448 L 18 726.446130662945 L 18.999999999999943 723.2935108212498 L 18.999999999999943 723.29351082125 L 19.999999999999943 720.1506705456447 L 19.999999999999943 720.1506705456451 L 20.999999999999943 717.0176098361299 L 20.999999999999943 717.0176098361301 L 21.999999999999943 713.8943286927047 L 21.999999999999943 713.894328692705 L 22.999999999999943 710.7808271153697 L 22.999999999999943 710.78082711537 L 23.999999999999943 707.6771051041245 L 23.999999999999943 707.6771051041248 L 24.999999999999943 704.5831626589695 L 24.999999999999943 704.5831626589699 L 26 701.4989997799041 L 26 701.4989997799045 L 27 698.424616466929 L 27 698.4246164669294 L 28 695.3600127200439 L 28 695.3600127200441 L 29 692.3051885392487 L 29 692.305188539249 L 30 689.2601439245435 L 30 689.2601439245439 L 31 686.2248788759282 L 31 686.2248788759285 L 32 683.199393393403 L 32 683.1993933934034 L 33 680.1836874769679 L 33 680.1836874769682 L 34 677.1777611266226 L 34 677.1777611266228 L 34.99999999999994 674.1816143423674 L 34.99999999999994 674.1816143423677 L 35.99999999999994 671.1952471242021 L 35.99999999999994 671.1952471242023 L 36.99999999999994 668.2186594721269 L 36.99999999999994 668.218659472127 L 37.99999999999994 665.2518513861415 L 37.99999999999994 665.2518513861417 L 38.99999999999994 662.2948228662462 L 38.99999999999994 662.2948228662464 L 39.99999999999994 659.3475739124408 L 39.99999999999994 659.347573912441 L 41 656.4101045247252 L 41 656.4101045247254 L 42 653.4824147030998 L 42 653.4824147031001 L 43 650.5645044475644 L 43 650.5645044475647 L 44 647.656373758119 L 44 647.6563737581192 L 45 644.7580226347636 L 45 644.7580226347638 L 46 641.8694510774982 L 46 641.8694510774983 L 47 638.9906590863227 L 47 638.9906590863229 L 48 636.1216466612372 L 48 636.1216466612374 L 49 633.2624138022418 L 49 633.2624138022419 L 50 630.4129605093362 L 50 630.4129605093364 L 50.99999999999994 627.5732867825207 L 50.99999999999994 627.5732867825209 L 51.99999999999994 624.7433926217951 L 51.99999999999994 624.7433926217954 L 52.99999999999994 621.9232780271595 L 52.99999999999994 621.9232780271598 L 53.99999999999994 619.112942998614 L 53.99999999999994 619.1129429986142 L 54.99999999999994 616.3123875361583 L 54.99999999999994 616.3123875361586 L 55.99999999999994 613.5216116397928 L 55.99999999999994 613.5216116397929 L 57 610.7406153095169 L 57 610.7406153095171 L 58 607.9693985453313 L 58 607.9693985453314 L 59 605.2079613472356 L 59 605.2079613472358 L 60 602.4563037152299 L 60 602.4563037152301 L 61 599.7144256493142 L 61 599.7144256493144 L 62 596.9823271494885 L 62 596.9823271494887 L 63 594.2600082157528 L 63 594.260008215753 L 64 591.5474688481071 L 64 591.5474688481072 L 65 588.8447090465513 L 65 588.8447090465515 L 65.99999999999994 586.1517288110855 L 65.99999999999994 586.1517288110857 L 66.99999999999994 583.4685281417097 L 66.99999999999994 583.46852814171 L 67.99999999999994 580.7951070384239 L 67.99999999999994 580.7951070384241 L 68.99999999999994 578.131465501228 L 68.99999999999994 578.1314655012283 L 69.99999999999994 575.4776035301222 L 69.99999999999994 575.4776035301225 L 70.99999999999994 572.8335211251064 L 70.99999999999994 572.8335211251066 L 72.00000000000006 570.1992182861802 L 72.00000000000006 570.1992182861804 L 73 567.5746950133444 L 73 567.5746950133446 L 74 564.9599513065984 L 74 564.9599513065987 L 75 562.3549871659425 L 75 562.3549871659427 L 76 559.7598025913766 L 76 559.7598025913767 L 77 557.1743975829006 L 77 557.1743975829007 L 78 554.5987721405146 L 78 554.5987721405148 L 79 552.0329262642186 L 79 552.0329262642189 L 80 549.4768599540126 L 80 549.4768599540128 L 81 546.9305732098966 L 81 546.9305732098968 L 81.99999999999994 544.3940660318706 L 81.99999999999994 544.3940660318708 L 82.99999999999994 541.8673384199345 L 82.99999999999994 541.8673384199346 L 83.99999999999994 539.3503903740884 L 83.99999999999994 539.3503903740886 L 84.99999999999994 536.8432218943323 L 84.99999999999994 536.8432218943325 L 85.99999999999994 534.3458329806662 L 85.99999999999994 534.3458329806664 L 86.99999999999994 531.8582236330901 L 86.99999999999994 531.8582236330902 L 88.00000000000003 529.3803938516037 L 88.00000000000003 529.3803938516039 L 89.00000000000003 526.9123436362075 L 89.00000000000003 526.9123436362077 L 90 524.4540729869013 L 90 524.4540729869016 L 91 522.0055819036851 L 91 522.0055819036853 L 92 519.5668703865589 L 92 519.5668703865591 L 93 517.1379384355226 L 93 517.1379384355229 L 94 514.7187860505765 L 94 514.7187860505767 L 94.99999999999997 512.3094132317202 L 94.99999999999997 512.3094132317203 L 95.99999999999997 509.9098199789539 L 95.99999999999997 509.9098199789541 L 96.99999999999997 507.5200062922776 L 96.99999999999997 507.52000629227786 L 97.99999999999997 505.1399721716913 L 97.99999999999997 505.1399721716915 L 98.99999999999997 502.769717617195 L 98.99999999999997 502.76971761719517 L 99.99999999999994 500.40924262878866 L 99.99999999999994 500.40924262878883 L 100.99999999999994 498.0585472064722 L 100.99999999999994 498.05854720647244 L 101.99999999999994 495.71763135024594 L 101.99999999999994 495.7176313502461 L 103.00000000000003 493.38649506010927 L 103.00000000000003 493.3864950601095 L 104.00000000000003 491.0651383360629 L 104.00000000000003 491.0651383360631 L 105.00000000000003 488.75356117810645 L 105.00000000000003 488.7535611781066 L 106 486.45176358623996 L 106 486.4517635862402 L 107 484.15974556046353 L 107 484.15974556046376 L 108 481.87750710077705 L 108 481.8775071007773 L 109 479.6050482071806 L 109 479.60504820718074 L 110 477.34236887967404 L 110 477.34236887967427 L 110.99999999999997 475.0894691182575 L 110.99999999999997 475.08946911825774 L 111.99999999999997 472.846348922931 L 111.99999999999997 472.84634892293116 L 112.99999999999997 470.6130082936944 L 112.99999999999997 470.61300829369463 L 113.99999999999997 468.38944723054783 L 113.99999999999997 468.38944723054806 L 114.99999999999994 466.17566573349126 L 114.99999999999994 466.1756657334915 L 115.99999999999994 463.97166380252463 L 115.99999999999994 463.97166380252486 L 116.99999999999994 461.777441437648 L 116.99999999999994 461.77744143764824 L 117.99999999999994 459.59299863886133 L 117.99999999999994 459.59299863886156 L 119.00000000000003 457.4183354061645 L 119.00000000000003 457.4183354061647 L 120.00000000000003 455.2534517395578 L 120.00000000000003 455.25345173955805 L 121.00000000000003 453.0983476390411 L 121.00000000000003 453.0983476390413 L 122 450.9530231046144 L 122 450.9530231046146 L 123 448.81747813627766 L 123 448.8174781362779 L 124 446.69171273403094 L 124 446.6917127340311 L 125 444.5757268978742 L 125 444.57572689787435 L 125.99999999999997 442.4695206278074 L 125.99999999999997 442.4695206278076 L 126.99999999999997 440.37309392383065 L 126.99999999999997 440.37309392383077 L 127.99999999999997 438.2864467859438 L 127.99999999999997 438.28644678594395 L 128.99999999999997 436.20957921414697 L 128.99999999999997 436.2095792141471 L 129.99999999999997 434.1424912084401 L 129.99999999999997 434.1424912084403 L 130.99999999999994 432.08518276882324 L 130.99999999999994 432.0851827688234 L 131.99999999999994 430.0376538952964 L 131.99999999999994 430.03765389529656 L 132.99999999999994 427.99990458785953 L 132.99999999999994 427.99990458785965 L 134.00000000000003 425.9719348465124 L 134.00000000000003 425.97193484651257 L 135.00000000000003 423.95374467125544 L 135.00000000000003 423.9537446712556 L 136.00000000000003 421.9453340620885 L 136.00000000000003 421.94533406208865 L 137 419.9467030190115 L 137 419.9467030190117 L 138 417.9578515420246 L 138 417.95785154202474 L 139 415.97877963112757 L 139 415.97877963112774 L 140 414.00948728632056 L 140 414.0094872863207 L 141 412.04997450760357 L 141 412.04997450760374 L 141.99999999999997 410.10024129497646 L 141.99999999999997 410.1002412949766 L 142.99999999999997 408.1602876484394 L 142.99999999999997 408.16028764843963 L 143.99999999999997 406.23011356799236 L 143.99999999999997 406.2301135679925 L 144.99999999999997 404.30971905363526 L 144.99999999999997 404.3097190536354 L 146 402.399104105368 L 146 402.3991041053682 L 147 400.4982687231909 L 147 400.4982687231911 L 148 398.60721290710376 L 148 398.60721290710393 L 148.99999999999997 396.72593665710656 L 148.99999999999997 396.7259366571068 L 149.99999999999997 394.8544399731994 L 149.99999999999997 394.8544399731996 L 150.99999999999997 392.9927228553822 L 150.99999999999997 392.99272285538234 L 151.99999999999997 391.140785303655 L 151.99999999999997 391.1407853036552 L 152.99999999999997 389.2986273180178 L 152.99999999999997 389.2986273180179 L 154 387.4662488984705 L 154 387.46624889847055 L 155 385.6436500450132 L 155 385.6436500450134 L 156 383.83083075764586 L 156 383.83083075764614 L 156.99999999999997 382.0277910363686 L 156.99999999999997 382.0277910363688 L 157.99999999999997 380.2345308811813 L 157.99999999999997 380.2345308811815 L 158.99999999999997 378.45105029208395 L 158.99999999999997 378.4510502920842 L 159.99999999999997 376.6773492690766 L 159.99999999999997 376.67734926907684 L 161 374.9134278121592 L 161 374.91342781215934 L 162 373.1592859213318 L 162 373.15928592133196 L 163 371.4149235965944 L 163 371.4149235965946 L 164 369.680340837947 L 164 369.68034083794714 L 164.99999999999997 367.95553764538954 L 164.99999999999997 367.9555376453897 L 165.99999999999997 366.2405140189221 L 165.99999999999997 366.2405140189223 L 166.99999999999997 364.5352699585447 L 166.99999999999997 364.5352699585448 L 167.99999999999997 362.83980546425715 L 167.99999999999997 362.8398054642574 L 169 361.1541205360596 L 169 361.15412053605974 L 170 359.4782151739521 L 170 359.47821517395226 L 171 357.8120893779346 L 171 357.8120893779347 L 172 356.155743148007 L 172 356.15574314800716 L 172.99999999999997 354.5091764841695 L 172.99999999999997 354.5091764841696 L 173.99999999999997 352.8723893864219 L 173.99999999999997 352.872389386422 L 174.99999999999997 351.2453818547643 L 174.99999999999997 351.24538185476445 L 175.99999999999997 349.6281538891967 L 175.99999999999997 349.6281538891968 L 177 348.020705489719 L 177 348.0207054897191 L 178 346.4230366563313 L 178 346.4230366563315 L 179 344.83514738903364 L 179 344.8351473890338 L 180 343.25703768782597 L 180 343.25703768782614 L 180.99999999999997 341.6887075527083 L 180.99999999999997 341.68870755270837 L 181.99999999999997 340.1301569836806 L 181.99999999999997 340.1301569836807 L 182.99999999999997 338.5813859807428 L 182.99999999999997 338.581385980743 L 183.99999999999997 337.0423945438951 L 183.99999999999997 337.0423945438952 L 185 335.51318267313724 L 185 335.5131826731374 L 186 333.9937503684695 L 186 333.99375036846965 L 187 332.4840976298917 L 187 332.4840976298918 L 187.99999999999997 330.9842244574039 L 187.99999999999997 330.984224457404 L 188.99999999999997 329.49413085100605 L 188.99999999999997 329.4941308510062 L 189.99999999999997 328.0138168106982 L 189.99999999999997 328.01381681069836 L 190.99999999999997 326.5432823364804 L 190.99999999999997 326.54328233648044 L 191.99999999999997 325.0825274283525 L 191.99999999999997 325.0825274283526 L 193 323.6315520863145 L 193 323.63155208631457 L 194 322.1903563103666 L 194 322.1903563103667 L 195 320.7589401005087 L 195 320.75894010050877 L 195.99999999999997 319.3373034567407 L 195.99999999999997 319.3373034567408 L 196.99999999999997 317.92544637906275 L 196.99999999999997 317.9254463790629 L 197.99999999999997 316.5233688674748 L 197.99999999999997 316.5233688674749 L 198.99999999999997 315.13107092197674 L 198.99999999999997 315.1310709219769 L 200 313.74855254256875 L 200 313.7485525425688 L 201 312.37581372925064 L 201 312.3758137292508 L 202 311.0128544820226 L 202 311.01285448202276 L 203 309.65967480088455 L 203 309.6596748008847 L 203.99999999999997 308.31627468583645 L 203.99999999999997 308.3162746858366 L 204.99999999999997 306.9826541368784 L 204.99999999999997 306.98265413687847 L 205.99999999999997 305.65881315401026 L 205.99999999999997 305.6588131540104 L 206.99999999999997 304.3447517372321 L 206.99999999999997 304.34475173723223 L 208 303.0404698865439 L 208 303.04046988654403 L 209 301.7459676019457 L 209 301.7459676019459 L 210 300.4612448834376 L 210 300.4612448834377 L 211 299.18630173101934 L 211 299.1863017310195 L 211.99999999999997 297.92113814469116 L 211.99999999999997 297.9211381446913 L 212.99999999999997 296.6657541244529 L 212.99999999999997 296.6657541244531 L 213.99999999999997 295.4201496703047 L 213.99999999999997 295.4201496703048 L 214.99999999999994 294.1843247822464 L 214.99999999999994 294.1843247822466 L 216 292.9582794602781 L 216 292.9582794602782 L 217 291.74201370439977 L 217 291.74201370439994 L 218 290.5355275146115 L 218 290.5355275146116 L 219 289.3388208909131 L 219 289.33882089091327 L 220 288.15189383330477 L 220 288.1518938333049 L 220.99999999999997 286.97474634178644 L 220.99999999999997 286.9747463417866 L 221.99999999999997 285.80737841635806 L 221.99999999999997 285.8073784163582 L 222.99999999999994 284.64979005701963 L 222.99999999999994 284.6497900570198 L 224 283.50198126377126 L 224 283.5019812637713 L 225 282.3639520366128 L 225 282.3639520366129 L 226 281.2357023755443 L 226 281.23570237554446 L 227 280.1172322805659 L 227 280.117232280566 L 227.99999999999997 279.00854175167734 L 227.99999999999997 279.0085417516775 L 228.99999999999997 277.90963078887887 L 228.99999999999997 277.909630788879 L 229.99999999999997 276.8204993921703 L 229.99999999999997 276.8204993921705 L 231 275.74114756155177 L 231 275.74114756155194 L 232 274.67157529702325 L 232 274.67157529702337 L 233 273.6117825985847 L 233 273.6117825985848 L 234 272.5617694662361 L 234 272.56176946623617 L 235 271.5215358999775 L 235 271.5215358999776 L 235.99999999999997 270.49108189980893 L 235.99999999999997 270.491081899809 L 236.99999999999997 269.47040746573026 L 236.99999999999997 269.4704074657303 L 237.99999999999994 268.4595125977416 L 237.99999999999994 268.4595125977417 L 239 267.4583972958429 L 239 267.458397295843 L 240 266.4670615600342 L 240 266.4670615600343 L 241 265.48550539031555 L 241 265.4855053903156 L 242 264.5137287866868 L 242 264.51372878668695 L 243 263.5517317491481 L 243 263.5517317491482 L 243.99999999999997 262.5995142776993 L 243.99999999999997 262.5995142776994 L 244.99999999999997 261.65707637234055 L 244.99999999999997 261.65707637234067 L 245.99999999999994 260.72441803307174 L 245.99999999999994 260.72441803307186 L 247 259.80153925989293 L 247 259.80153925989305 L 248 258.8884400528041 L 248 258.88844005280424 L 249 257.9851204118053 L 249 257.9851204118054 L 250 257.0915803368964 L 250 257.0915803368966 L 251 256.2078198280776 L 251 256.20781982807773 L 251.99999999999997 255.3338388853487 L 251.99999999999997 255.33383888534883 L 252.99999999999997 254.4696375087098 L 252.99999999999997 254.46963750870992 L 253.99999999999994 253.6152156981609 L 253.99999999999994 253.61521569816102 L 255 252.7705734537019 L 255 252.770573453702 L 256 251.935710775333 L 256 251.93571077533312 L 257 251.11062766305395 L 257 251.11062766305417 L 258 250.295324116865 L 258 250.29532411686517 L 259 249.48980013676606 L 259 249.48980013676618 L 260 248.694055722757 L 260 248.69405572275713 L 261 247.90809087483797 L 261 247.90809087483808 L 262 247.13190559300887 L 262 247.13190559300898 L 263 246.36549987726983 L 263 246.36549987727 L 264 245.60887372762073 L 264 245.60887372762085 L 265 244.86202714406164 L 265 244.8620271440618 L 266 244.12496012659255 L 266 244.12496012659267 L 267 243.3976726752134 L 267 243.39767267521353 L 268 242.68016478992428 L 268 242.6801647899244 L 269 241.97243647072514 L 269 241.9724364707252 L 270 241.27448771761584 L 270 241.27448771761595 L 271 240.5863185305967 L 271 240.58631853059677 L 272 239.90792890966748 L 272 239.9079289096676 L 273 239.23931885482824 L 273 239.2393188548284 L 274 238.580488366079 L 274 238.58048836607912 L 275 237.93143744341972 L 275 237.93143744341978 L 276 237.29216608685044 L 276 237.29216608685056 L 276.99999999999994 236.66267429637116 L 276.99999999999994 236.66267429637128 L 278 236.04296207198183 L 278 236.04296207198195 L 279 235.43302941368245 L 279 235.43302941368256 L 280 234.83287632147312 L 280 234.83287632147324 L 281 234.24250279535374 L 281 234.24250279535386 L 282 233.66190883532443 L 282 233.66190883532448 L 283 233.091094441385 L 283 233.09109444138517 L 284 232.53005961353563 L 284 232.53005961353568 L 284.99999999999994 231.97880435177615 L 284.99999999999994 231.97880435177626 L 286 231.43732865610667 L 286 231.43732865610679 L 287 230.9056325265272 L 287 230.9056325265273 L 288 230.38371596303773 L 288 230.38371596303784 L 289 229.8715789656382 L 289 229.87157896563832 L 290 229.3692215343287 L 290 229.3692215343288 L 291 228.87664366910917 L 291 228.87664366910928 L 291.99999999999994 228.3938453699796 L 291.99999999999994 228.39384536997972 L 293 227.92082663694003 L 293 227.92082663694015 L 294 227.45758746999047 L 294 227.45758746999053 L 295 227.0041278691309 L 295 227.00412786913097 L 296 226.56044783436124 L 296 226.56044783436136 L 297 226.12654736568163 L 297 226.1265473656817 L 298 225.70242646309197 L 298 225.70242646309208 L 299 225.2880851265923 L 299 225.28808512659236 L 299.99999999999994 224.8835233561826 L 299.99999999999994 224.8835233561827 L 301 224.48874115186294 L 301 224.48874115186305 L 302 224.10373851363317 L 302 224.10373851363335 L 303 223.72851544149347 L 303 223.72851544149358 L 304 223.3630719354437 L 304 223.36307193544383 L 305 223.00740799548396 L 305 223.00740799548407 L 306 222.6615236216142 L 306 222.66152362161426 L 307 222.3254188138344 L 307 222.32541881383446 L 307.99999999999994 221.99909357214455 L 307.99999999999994 221.99909357214466 L 309 221.6825478965447 L 309 221.6825478965448 L 310 221.3757817870349 L 310 221.375781787035 L 311 221.078795243615 L 311 221.07879524361516 L 312 220.79158826628515 L 312 220.7915882662852 L 313 220.5141608550452 L 313 220.51416085504536 L 314 220.2465130098953 L 314 220.2465130098954 L 314.99999999999994 219.98864473083535 L 314.99999999999994 219.98864473083546 L 315.99999999999994 219.7405560178654 L 315.99999999999994 219.74055601786552 L 317 219.50224687098546 L 317 219.50224687098557 L 318 219.27371729019546 L 318 219.27371729019558 L 319 219.05496727549547 L 319 219.05496727549558 L 320 218.84599682688543 L 320 218.84599682688554 L 321 218.64680594436544 L 321 218.64680594436555 L 322 218.45739462793534 L 322 218.45739462793546 L 322.99999999999994 218.2777628775953 L 322.99999999999994 218.27776287759542 L 324 218.10791069334522 L 324 218.10791069334527 L 325 217.94783807518513 L 325 217.9478380751852 L 326 217.797545023115 L 326 217.7975450231151 L 327 217.65703153713486 L 327 217.6570315371349 L 328 217.52629761724472 L 328 217.52629761724478 L 329 217.4053432634446 L 329 217.4053432634447 L 330 217.29416847573435 L 330 217.29416847573447 L 330.99999999999994 217.19277325411417 L 330.99999999999994 217.19277325411423 L 332 217.101157598584 L 332 217.1011575985841 L 333 217.0193215091437 L 333 217.01932150914382 L 334 216.94726498579348 L 334 216.94726498579365 L 335 216.8849880285332 L 335 216.88498802853331 L 336 216.83249063736292 L 336 216.83249063736304 L 337 216.78977281228265 L 337 216.78977281228276 L 337.99999999999994 216.75683455329232 L 337.99999999999994 216.7568345532925 L 338.99999999999994 216.733675860392 L 338.99999999999994 216.7336758603921 L 340 216.72029673358162 L 340 216.72029673358173 L 341 216.71661206307056 L 341 216.7166971728613 L 342 216.722877178231 L 342 216.72287717823087 L 343 216.73883674969062 L 343 216.7388367496905 L 344 216.76457588724014 L 344 216.76457588724008 L 345 216.80009459087978 L 345 216.80009459087967 L 345.99999999999994 216.8453928606093 L 345.99999999999994 216.8453928606092 L 346.99999999999994 216.90047069642884 L 346.99999999999994 216.90047069642873 L 348 216.96532809833832 L 348 216.96532809833826 L 349 217.03996506633786 L 349 217.03996506633774 L 350 217.12438160042734 L 350 217.12438160042723 L 351 217.21857770060683 L 351 217.21857770060672 L 352 217.3225533668762 L 352 217.32255336687615 L 353 217.4363085992357 L 353 217.4363085992356 L 353.99999999999994 217.55984339768514 L 353.99999999999994 217.55984339768503 L 355 217.69315776222453 L 355 217.69315776222442 L 356 217.83625169285392 L 356 217.8362516928538 L 357 217.98912518957331 L 357 217.98912518957314 L 358 218.15177825238266 L 358 218.15177825238254 L 359 218.324210881282 L 359 218.32421088128189 L 360 218.50642307627135 L 360 218.50642307627118 L 361 218.69841483735064 L 361 218.69841483735053 L 362 218.90018616451988 L 362 218.90018616451977 L 363 219.11173705777918 L 363 219.111737057779 L 364 219.33306751712837 L 364 219.3330675171283 L 365 219.56417754256762 L 365 219.56417754256756 L 366 219.80506713409687 L 366 219.8050671340967 L 367 220.05573629171602 L 367 220.05573629171596 L 368 220.31618501542522 L 368 220.3161850154251 L 369 220.58641330522443 L 369 220.5864133052243 L 370 220.86642116111352 L 370 220.86642116111346 L 371 221.15620858309268 L 371 221.15620858309256 L 372 221.45577557116184 L 372 221.45577557116172 L 373 221.76512212532094 L 373 221.76512212532083 L 374 222.08424824557 L 374 222.08424824556988 L 375 222.41315393190905 L 375 222.413153931909 L 376 222.75183918433817 L 376 222.75183918433805 L 377 223.10030400285717 L 377 223.10030400285706 L 378 223.45854838746618 L 378 223.45854838746607 L 379 223.82657233816514 L 379 223.82657233816502 L 380 224.2043758549542 L 380 224.20437585495404 L 381 224.5919589378331 L 381 224.591958937833 L 382 224.98932158680213 L 382 224.98932158680202 L 383 225.39646380186105 L 383 225.39646380186088 L 384 225.81338558300996 L 384 225.81338558300985 L 385 226.24008693024888 L 385 226.24008693024882 L 386 226.67656784357774 L 386 226.6765678435777 L 387 227.1228283229966 L 387 227.1228283229965 L 388 227.57886836850543 L 388 227.57886836850537 L 389 228.0446879801043 L 389 228.04468798010413 L 390 228.52028715779312 L 390 228.520287157793 L 391 229.0056659015719 L 391 229.00566590157183 L 392 229.50082421144077 L 392 229.5008242114406 L 393 230.00576208739955 L 393 230.00576208739938 L 394 230.5204795294482 L 394 230.52047952944815 L 395 231.04497653758693 L 395 231.04497653758682 L 396 231.57925311181572 L 396 231.5792531118156 L 397 232.1233092521344 L 397 232.12330925213428 L 398 232.67714495854312 L 398 232.67714495854295 L 399 233.24076023104175 L 399 233.24076023104163 L 400 233.81415506963037 L 400 233.81415506963032 L 401 234.39732947430906 L 401 234.39732947430895 L 402 234.9902834450777 L 402 234.99028344507758 L 403 235.59301698193633 L 403 235.5930169819361 L 404 236.20553008488486 L 404 236.20553008488474 L 405 236.82782275392344 L 405 236.82782275392333 L 406 237.45989498905203 L 406 237.45989498905192 L 407 238.1017467902705 L 407 238.1017467902704 L 408 238.753378157579 L 408 238.75337815757894 L 409 239.41478909097754 L 409 239.41478909097748 L 410 240.08597959046602 L 410 240.08597959046597 L 411 240.76694965604452 L 411 240.7669496560444 L 412 241.45769928771296 L 412 241.4576992877129 L 413 242.1582284854714 L 413 242.15822848547128 L 414 242.8685372493198 L 414 242.86853724931967 L 415 243.58862557925823 L 415 243.58862557925812 L 416 244.31849347528663 L 416 244.31849347528652 L 417 245.05814093740503 L 417 245.05814093740486 L 418 245.80756796561337 L 418 245.8075679656132 L 419 246.56677455991172 L 419 246.56677455991155 L 420 247.33576072030002 L 420 247.33576072029996 L 421 248.1145264467783 L 421 248.11452644677826 L 422 248.90307173934656 L 422 248.90307173934644 L 423 249.70139659800492 L 423 249.70139659800475 L 424 250.50950102275317 L 424 250.509501022753 L 425 251.3273850135913 L 425 251.32738501359125 L 426 252.1550485705195 L 426 252.15504857051945 L 427 252.99249169353777 L 427 252.99249169353766 L 428 253.83971438264598 L 428 253.83971438264587 L 429 254.69671663784413 L 429 254.69671663784402 L 430 255.5634984591323 L 430 255.56349845913218 L 431 256.44005984651045 L 431 256.44005984651034 L 432 257.3264007999786 L 432 257.32640079997844 L 433 258.2225213195367 L 433 258.22252131953655 L 434 259.1284214051847 L 434 259.12842140518467 L 435 260.04410105692284 L 435 260.0441010569228 L 436 260.9695602747509 L 436 260.9695602747508 L 437 261.90479905866897 L 437 261.9047990586688 L 438 262.8498174086769 L 438 262.8498174086768 L 439 263.80461532477494 L 439 263.8046153247749 L 440 264.76919280696296 L 440 264.76919280696285 L 441 265.74354985524093 L 441 265.7435498552408 L 442 266.72768646960884 L 442 266.7276864696087 L 443 267.72160265006676 L 443 267.7216026500667 L 444 268.7252983966148 L 444 268.7252983966147 L 445 269.7387737092526 L 445 269.73877370925254 L 446 270.7620285879805 L 446 270.7620285879804 L 447 271.7950630327984 L 447 271.7950630327983 L 448 272.83787704370627 L 448 272.83787704370616 L 449 273.8904706207041 L 449 273.890470620704 L 450 274.952843763792 L 450 274.9528437637918 L 451 276.02499647296975 L 451 276.0249964729696 L 452 277.1069287482375 L 452 277.1069287482374 L 453 278.1986405895953 L 453 278.19864058959513 L 454 279.3001319970431 L 454 279.3001319970429 L 455 280.4114029705808 L 455 280.4114029705807 L 456 281.53245351020854 L 456 281.53245351020837 L 457 282.6632836159262 L 457 282.6632836159261 L 458 283.8038932877339 L 458 283.80389328773384 L 459 284.9542825256315 L 459 284.95428252563147 L 460 286.11445132961927 L 460 286.11445132961916 L 461 287.2843996996969 L 461 287.2843996996968 L 462 288.4641276358645 L 462 288.4641276358644 L 463 289.6536351381221 L 463 289.653635138122 L 464 290.8529222064697 L 464 290.8529222064696 L 465 292.06198884090725 L 465 292.06198884090713 L 466 293.28083504143484 L 466 293.2808350414347 L 467 294.5094608080524 L 467 294.50946080805227 L 468 295.7478661407599 L 468 295.74786614075975 L 469 296.9960510395574 L 469 296.99605103955724 L 470 298.2540155044449 L 470 298.25401550444474 L 471 299.52175953542235 L 471 299.5217595354223 L 472 300.7992831324898 L 472 300.7992831324897 L 473 302.08658629564724 L 473 302.0865862956472 L 474 303.3836690248947 L 474 303.3836690248946 L 475 304.6905313202321 L 475 304.690531320232 L 476 306.0071731816595 L 476 306.00717318165937 L 477 307.3335946091769 L 477 307.3335946091767 L 478 308.66979560278423 L 478 308.66979560278406 L 479 310.01577616248153 L 479 310.0157761624814 L 480 311.3715362882689 L 480 311.37153628826877 L 481 312.73707598014624 L 481 312.7370759801461 L 482 314.1123952381135 L 482 314.1123952381134 L 483 315.49749406217074 L 483 315.4974940621707 L 484 316.892372452318 L 484 316.8923724523179 L 485 318.29703040855526 L 485 318.2970304085551 L 486 319.71146793088246 L 486 319.71146793088235 L 487 321.1356850192997 L 487 321.1356850192996 L 488 322.56968167380694 L 488 322.56968167380677 L 489 324.0134578944041 L 489 324.0134578944039 L 490 325.46701368109126 L 490 325.4670136810911 L 491 326.9303490338683 L 491 326.93034903386825 L 492 328.4034639527355 L 492 328.4034639527353 L 493 329.8863584376926 L 493 329.8863584376924 L 494 331.3790324887397 L 494 331.37903248873954 L 495 332.8814861058768 L 495 332.8814861058766 L 496 334.39371928910384 L 496 334.39371928910373 L 497 335.91573203842086 L 497 335.91573203842074 L 498 337.4475243538279 L 498 337.44752435382776 L 499 338.9890962353249 L 499 338.9890962353248 L 500 340.54044768291186 L 500 340.54044768291175 L 501 342.10157869658883 L 501 342.10157869658866 L 502 343.6724892763558 L 502 343.6724892763557 L 503 345.2531794222128 L 503 345.2531794222126 L 504 346.8436491341597 L 504 346.8436491341596 L 505 348.44389841219663 L 505 348.44389841219646 L 506 350.05392725632356 L 506 350.05392725632333 L 507 351.6737356665403 L 507 351.6737356665402 L 508 353.30332364284726 L 508 353.30332364284703 L 509 354.94269118524403 L 509 354.9426911852439 L 510 356.5918382937309 L 510 356.59183829373075 L 511 358.25076496830775 L 511 358.2507649683075 L 512 359.9194712089745 L 512 359.9194712089744 L 513 361.59795701573125 L 513 361.5979570157312 L 514 363.28622238857804 L 514 363.28622238857787 L 515 364.9842673275147 L 515 364.9842673275146 L 516 366.6920918325415 L 516 366.69209183254134 L 517 368.40969590365825 L 517 368.4096959036581 L 518 370.13707954086493 L 518 370.13707954086476 L 519 371.87424274416156 L 519 371.8742427441615 L 520 373.62118551354826 L 520 373.6211855135481 L 521 375.3779078490249 L 521 375.3779078490248 L 522 377.14440975059154 L 522 377.1444097505913 L 523 378.9206912182481 L 523 378.92069121824795 L 524 380.70675225199466 L 524 380.7067522519946 L 525 382.5025928518313 L 525 382.50259285183114 L 526 384.30821301775785 L 526 384.3082130177577 L 527 386.1236127497744 L 527 386.12361274977417 L 528 387.948792047881 L 528 387.9487920478808 L 529 389.7837509120775 L 529 389.78375091207727 L 530 391.62848934236393 L 530 391.62848934236376 L 531 393.4830073387404 L 531 393.4830073387402 L 532 395.3473049012069 L 532 395.3473049012067 L 533 397.22138202976333 L 533 397.22138202976316 L 534 399.1052387244097 L 534 399.10523872440956 L 535 400.99887498514613 L 535 400.998874985146 L 536 402.90229081197253 L 536 402.9022908119724 L 537 404.815486204889 L 537 404.8154862048887 L 538 406.7384611638953 L 538 406.7384611638951 L 539 408.67121568899154 L 539 408.6712156889914 L 540 410.613749780178 L 540 410.61374978017784 L 541 412.5660634374542 L 541 412.56606343745415 L 542 414.52815666082057 L 542 414.5281566608204 L 543 416.5000294502769 L 543 416.5000294502767 L 544 418.4816818058231 L 544 418.481681805823 L 545 420.47311372745935 L 545 420.47311372745924 L 546 422.47432521518556 L 546 422.4743252151854 L 547 424.4853162690017 L 547 424.4853162690016 L 548 426.50608688890793 L 548 426.5060868889078 L 549 428.53663707490415 L 549 428.536637074904 L 550 430.5769668269903 L 550 430.5769668269901 L 551 432.6270761451665 L 551 432.6270761451663 L 552 434.6869650294326 L 552 434.68696502943243 L 553 436.75663347978866 L 553 436.75663347978855 L 554 438.8360814962348 L 554 438.83608149623456 L 555 440.92530907877085 L 555 440.92530907877074 L 556 443.0243162273969 L 556 443.02431622739675 L 557 445.13310294211294 L 557 445.1331029421128 L 558 447.25166922291896 L 558 447.2516692229188 L 559 449.38001506981504 L 559 449.3800150698148 L 560 451.51814048280096 L 560 451.5181404828008 L 561 453.66604546187705 L 561 453.6660454618768 L 562 455.82373000704297 L 562 455.82373000704274 L 563 457.99119411829884 L 563 457.99119411829867 L 564 460.16843779564476 L 564 460.16843779564454 L 565 462.3554610390808 L 565 462.3554610390806 L 566 464.5522638486067 L 566 464.55226384860646 L 567 466.7588462242225 L 567 466.75884622422234 L 568 468.9752081659284 L 568 468.97520816592817 L 569 471.20134967372417 L 569 471.20134967372394 L 570 473.43727074761 L 570 473.43727074760983 L 571 475.6829713875858 L 571 475.6829713875856 L 572 477.93845159365156 L 572 477.9384515936514 L 573 480.2037113658074 L 573 480.2037113658073 L 574 482.47875070405325 L 574 482.478750704053 L 575 484.76356960838893 L 575 484.7635696083887 L 576 487.0581680788147 L 576 487.05816807881445 L 577 489.36254611533036 L 577 489.3625461153302 L 578 491.67670371793605 L 578 491.6767037179359 L 579 494.0006408866317 L 579 494.0006408866315 L 580 496.33435762141744 L 580 496.3343576214173 L 581 498.67785392229314 L 581 498.6778539222929 L 582 501.03112978925867 L 582 501.0311297892585 L 583 503.3941852223143 L 583 503.39418522231415 L 584 505.7670202214599 L 584 505.7670202214597 L 585 508.1496347866955 L 585 508.1496347866953 L 586 510.542028918021 L 586 510.54202891802083 L 587 512.9442026154366 L 587 512.9442026154363 L 588 515.3561558789422 L 588 515.356155878942 L 589 517.7778887085377 L 589 517.7778887085375 L 590 520.2094011042232 L 590 520.2094011042229 L 591 522.6506930659986 L 591 522.6506930659984 L 592 525.1017645938641 L 592 525.1017645938639 L 593 527.5626156878195 L 593 527.5626156878193 L 594 530.0332463478649 L 594 530.0332463478646 L 595 532.5136565740004 L 595 532.5136565740002 L 596 535.0038463662258 L 596 535.0038463662256 L 597 537.5038157245411 L 597 537.5038157245409 L 598 540.0135646489465 L 598 540.0135646489463 L 599 542.5330931394419 L 599 542.5330931394417 L 600 545.0624011960272 L 600 545.0624011960269 L 601 547.6014888187025 L 601 547.6014888187023 L 602 550.1503560074677 L 602 550.1503560074675 L 603 552.7090027623232 L 603 552.7090027623229 L 604 555.2774290832683 L 604 555.2774290832682 L 605 557.8556349703036 L 605 557.8556349703034 L 606 560.4436204234288 L 606 560.4436204234286 L 607 563.041385442644 L 607 563.0413854426438 L 608 565.6489300279492 L 608 565.648930027949 L 609 568.2662541793443 L 609 568.2662541793442 L 610 570.8933578968295 L 610 570.8933578968293 L 611 573.5302411804046 L 611 573.5302411804045 L 612 576.1769040300699 L 612 576.1769040300696 L 613 578.833346445825 L 613 578.8333464458248 L 614 581.49956842767 L 614 581.4995684276698 L 615 584.1755699756052 L 615 584.175569975605 L 616 586.8613510896301 L 616 586.8613510896299 L 617 589.5569117697452 L 617 589.5569117697449 L 618 592.2622520159503 L 618 592.26225201595 L 619 594.9773718282454 L 619 594.9773718282452 L 620 597.7022712066304 L 620 597.7022712066301 L 621 600.4369501511053 L 621 600.4369501511051 L 622 603.1814086616703 L 622 603.18140866167 L 623 605.9356467383252 L 623 605.935646738325 L 624 608.6996643810701 L 624 608.6996643810699 L 625 611.473461589905 L 625 611.4734615899048 L 626 614.2570383648299 L 626 614.2570383648297 L 627 617.0503947058448 L 627 617.0503947058446 L 628 619.8535306129497 L 628 619.8535306129495 L 629 622.6664460861446 L 629 622.6664460861443 L 630 625.4891411254293 L 630 625.4891411254291 L 631 628.3216157308042 L 631 628.321615730804 L 632 631.163869902269 L 632 631.1638699022687 L 633 634.0159036398237 L 633 634.0159036398235 L 634 636.8777169434686 L 634 636.8777169434684 L 635 639.7493098132034 L 635 639.7493098132031 L 636 642.630682249028 L 636 642.6306822490278 L 637 645.5218342509427 L 637 645.5218342509424 L 638 648.4227658189474 L 638 648.4227658189471 L 639 651.333476953042 L 639 651.3334769530419 L 640 654.2539676532267 L 640 654.2539676532265 L 641 657.1842379195014 L 641 657.1842379195011 L 642 660.124287751866 L 642 660.1242877518657 L 643 663.0741171503207 L 643 663.0741171503205 L 644 666.0337261148652 L 644 666.0337261148651 L 645 669.0031146454999 L 645 669.0031146454996 L 646 671.9822827422244 L 646 671.9822827422241 L 647 674.9712304050389 L 647 674.9712304050387 L 648 677.9699576339434 L 648 677.9699576339432 L 649 680.9784644289381 L 649 680.9784644289377 L 650 683.9967507900226 L 650 683.9967507900222 L 651 687.024816717197 L 651 687.0248167171967 L 652 690.0626622104616 L 652 690.0626622104612 L 653 693.110287269816 L 653 693.1102872698157 L 654 696.1676918952603 L 654 696.16769189526 L 655 699.2348760867948 L 655 699.2348760867944 L 656 702.3118398444192 L 656 702.3118398444188 L 657 705.3985831681334 L 657 705.3985831681332 L 658 708.4951060579378 L 658 708.4951060579375 L 659 711.6014085138323 L 659 711.601408513832 L 660 714.7174905358166 L 660 714.7174905358163 L 661 717.843352123891 L 661 717.8433521238907 L 662 720.9789932780552 L 662 720.9789932780549 L 663 724.1244139983095 L 663 724.1244139983091 L 664 727.2796142846537 L 664 727.2796142846533 L 665 730.4445941370881 L 665 730.4445941370877 L 666 733.6193535556123 L 666 733.619353555612 L 667 736.8038925402265 L 667 736.8038925402262 L 668 739.9982110909307 L 668 739.9982110909303 L 669 743.2023092077247 L 669 743.2023092077245 L 670 746.416186890609 L 670 746.4161868906086 L 671 749.6398441395831 L 671 749.6398441395828 L 672 752.8732809546473 L 672 752.8732809546469 L 673 756.1164973358013 L 673 756.116497335801 L 674 759.3694932830456 L 674 759.3694932830452 L 675 762.6322687963795 L 675 762.6322687963793 L 676 765.9048238758037 L 676 765.9048238758033 L 677 769.1871585213177 L 677 769.1871585213174 L 678 772.4792727329218 L 678 772.4792727329215 L 679 775.7811665106158 L 679 775.7811665106154 L 680 779.0928398543998 L 680 779.0928398543995 L 681 782.4142927642738 L 681 782.4142927642736 L 682 785.7455252402378 L 682 785.7455252402375 L 683 789.0865372822917 L 683 789.0865372822914 L 684 792.4373288904355 L 684 792.4373288904353 L 685 795.7979000646695 L 685 795.7979000646692 L 686 799.1682508049934 L 686 799.1682508049931 L 687 802.5483811114073 L 687 802.5483811114069 L 688 805.9382909839111 L 688 805.9382909839107 L 689 809.3379804225049 L 689 809.3379804225046 L 690 812.7474494271887 L 690 812.7474494271885 L 691 816.1666979979627 L 691 816.1666979979624 L 692 819.5957261348265 L 692 819.5957261348261 L 693 823.0345338377803 L 693 823.0345338377799 L 694 826.483121106824 L 694 826.4831211068237 L 695 829.9414879419579 L 695 829.9414879419576 L 696 833.4096343431816 L 696 833.4096343431813 L 697 836.8875603104952 L 697 836.8875603104949 L 698 840.375265843899 L 698 840.3752658438987 L 699 843.8727509433926 L 699 843.8727509433922 L 700 847.3800156089762 L 700 847.380015608976 L 701 850.8970598406498 L 701 850.8970598406496 L 702 854.4238836384136 L 702 854.4238836384133 L 703 857.9604870022671 L 703 857.9604870022667 L 704 861.5068699322106 L 704 861.5068699322103 L 705 865.0630324282442 L 705 865.0630324282439 L 706 868.6289744903679 L 706 868.6289744903677 L 707 872.2046961185815 L 707 872.2046961185812 L 708 875.790197312885 L 708 875.7901973128846 L 709 879.3854780732785 L 709 879.3854780732781 L 710 882.9905383997622 L 710 882.9905383997618 L 711 886.6053782923356 L 711 886.6053782923352 L 712 890.2299977509991 L 712 890.2299977509988 L 713 893.8643967757525 L 713 893.8643967757522 L 714 897.5085753665959 L 714 897.5085753665956 L 715 901.1625335235292 L 715 901.162533523529 L 716 904.8262712465526 L 716 904.8262712465523 L 717 908.499788535666 L 717 908.4997885356656 L 718 912.1830853908693 L 718 912.1830853908691 L 719 915.8761618121628 L 719 915.8761618121624 L 720 919.5790177995461 L 720 919.5790177995458 L 721 923.2916533530192 L 721 923.291653353019 L 722 927.0140684725827 L 722 927.0140684725825 L 723 930.746263158236 L 723 930.7462631582357 L 724 934.4882374099793 L 724 934.4882374099791 L 725 938.2399912278125 L 725 938.2399912278122 L 726 942.0015246117359 L 726 942.0015246117357 L 727 945.772837561749 L 727 945.7728375617487 L 728 949.5539300778523 L 728 949.553930077852 L 729 953.3448021600454 L 729 953.3448021600452 L 730 957.1454538083286 L 730 957.1454538083283 L 731 960.9558850227018 L 731 960.9558850227013 L 732 964.7760958031649 L 732 964.7760958031646 L 733 968.6060861497178 L 733 968.6060861497176 L 734 972.4458560623609 L 734 972.4458560623607 L 735 976.2954055410939 L 735 976.2954055410937 L 736 980.154734585917 L 736 980.1547345859167 L 737 984.0238431968303 L 737 984.0238431968301 L 738 987.9027313738334 L 738 987.9027313738329 L 739 991.7913991169264 L 739 991.7913991169261 L 740 995.6898464261092 L 740 995.6898464261089 L 741 999.5980733013826 L 741 999.5980733013821 L 742 1003.5160797427454 L 742 1003.5160797427451 L 743 1007.4438657501983 L 743 1007.443865750198 L 744 1011.3814313237413 L 744 1011.3814313237408 L 745 1015.3287764633742 L 745 1015.3287764633737 L 746 1019.2859011690971 L 746 1019.2859011690966 L 747 1023.2528054409099 L 747 1023.2528054409097 L 748 1027.2294892788127 L 748 1027.2294892788125 L 749 1031.2159526828054 L 749 1031.2159526828052 L 750 1035.2121956528883 L 750 1035.212195652888 L 751 1039.2182181890612 L 751 1039.2182181890607 L 752 1043.234020291324 L 752 1043.2340202913238 L 753 1047.2596019596767 L 753 1047.2596019596765 L 754 1051.2949631941196 L 754 1051.2949631941192 L 755 1055.3401039946523 L 755 1055.340103994652 L 756 1059.395024361275 L 756 1059.3950243612749 L 757 1063.459724293988 L 757 1063.4597242939876 L 758 1067.5342037927908 L 758 1067.5342037927903 L 759 1071.6184628576834 L 759 1071.618462857683 L 760 1075.712501488666 L 760 1075.7125014886656 L 761 1079.8163196857386 L 761 1079.8163196857383 L 762 1083.929917448901 L 762 1083.9299174489008 L 763 1088.0532947781537 L 763 1088.0532947781535 L 764 1092.1864516734963 L 764 1092.186451673496 L 765 1096.3293881349289 L 765 1096.3293881349286 L 766 1100.4821041624514 L 766 1100.4821041624512 L 767 1104.644599756064 L 767 1104.6445997560636 L 768 1108.8168749157667 L 768 1108.8168749157662 L 769 1112.9989296415592 L 769 1112.9989296415588 L 770 1117.1907639334418 L 770 1117.1907639334413 L 771 1121.3923777914142 L 771 1121.3923777914138 L 772 1125.6037712154766 L 772 1125.6037712154766 L 773 1129.8249442056292 L 773 1129.824944205629 L 774 1134.0558967618717 L 774 1134.0558967618713 L 775 1138.296628884204 L 775 1138.2966288842038 L 776 1142.5471405726264 L 776 1142.5471405726262 L 777 1146.8074318271388 L 777 1146.8074318271383 L 778 1151.077502647741 L 778 1151.0775026477409 L 779 1155.3573530344336 L 779 1155.3573530344331 L 780 1159.6469829872158 L 780 1159.6469829872153 L 781 1163.9463925060882 L 781 1163.9463925060877 L 782 1168.2555815910505 L 782 1168.25558159105 L 783 1172.5745502421025 L 783 1172.5745502421023 L 784 1176.9032984592454 L 784 1176.903298459245 L 785 1181.2418262424771 L 785 1181.2418262424767 L 786 1185.5901335917997 L 786 1185.5901335917993 L 787 1189.9482205072115 L 787 1189.9482205072113 L 788 1194.3160869887142 L 788 1194.3160869887138 L 789 1198.6937330363062 L 789 1198.6937330363057 L 790 1203.0811586499885 L 790 1203.081158649988 L 791 1207.4783638297606 L 791 1207.4783638297604 L 792 1211.8853485756226 L 792 1211.8853485756222 L 793 1216.3021128875748 L 793 1216.3021128875744 L 794 1220.7286567656167 L 794 1220.7286567656165 L 795 1225.1649802097488 L 795 1225.1649802097486 L 796 1229.6110832199709 L 796 1229.6110832199706 L 797 1234.066965796283 L 797 1234.0669657962826 L 798 1238.532627938685 L 798 1238.5326279386845 L 799 1243.0080696471773 L 799 1243.0080696471769 L 800 1247.4932909217591 L 800 1247.4932909217587 L 801 1251.9882917624313 L 801 1251.988291762431 L 802 1256.4930721691928 L 802 1256.4930721691926 L 803 1261.0076321420452 L 803 1261.0076321420447 L 804 1265.5319716809868 L 804 1265.5319716809863 L 805 1270.0660907860192 L 805 1270.0660907860188 L 806 1274.6099894571407 L 806 1274.6099894571405 L 807 1279.1636676943526 L 807 1279.1636676943522 L 808 1283.7271254976547 L 808 1283.7271254976542 L 809 1288.3003628670465 L 809 1288.300362867046 L 810 1292.8833798025282 L 810 1292.883379802528 L 811 1297.4761763041 L 811 1297.4761763040997 L 812 1302.0787523717618 L 812 1302.0787523717613 L 813 1306.6911080055136 L 813 1306.6911080055133 L 814 1311.3132432053558 L 814 1311.3132432053553 L 815 1315.945157971287 L 815 1315.9451579712868 L 816 1320.5868523033091 L 816 1320.5868523033087 L 817 1325.2383262014205 L 817 1325.23832620142 L 818 1329.8995796656227 L 818 1329.8995796656222 L 819 1334.5706126959137 L 819 1334.5706126959133 L 820 1339.251425292296 L 820 1339.2514252922956 L 821 1343.9420174547677 L 821 1343.9420174547672 L 822 1348.6423891833292 L 822 1348.6423891833288 L 823 1353.3525404779807 L 823 1353.3525404779803 L 824 1358.0724713387222 L 824 1358.072471338722 L 825 1362.802181765554 L 825 1362.8021817655535 L 826 1367.5416717584753 L 826 1367.5416717584749 L 827 1372.2909413174868 L 827 1372.2909413174866 L 828 1377.0499904425885 L 828 1377.049990442588 L 829 1381.8188191337804 L 829 1381.81881913378 L 830 1386.5974273910615 L 830 1386.597427391061 L 831 1391.3858152144335 L 831 1391.385815214433 L 832 1396.1839826038943 L 832 1396.183982603894 L 833 1400.9919295594464 L 833 1400.991929559446 L 834 1405.8096560810873 L 834 1405.8096560810868 L 835 1410.637162168819 L 835 1410.6371621688186 L 836 1415.4744478226403 L 836 1415.4744478226398 L 837 1420.3215130425517 L 837 1420.3215130425513 L 838 1425.178357828553 L 838 1425.1783578285526 L 839 1430.0449821806442 L 839 1430.044982180644 L 840 1434.9213860988257 L 840 1434.9213860988252 L 841 1439.8075695830971 L 841 1439.8075695830967 L 842 1444.7035326334583 L 842 1444.7035326334578 L 843 1449.6092752499094 L 843 1449.6092752499092 L 844 1454.5247974324511 L 844 1454.5247974324507 L 845 1459.4500991810821 L 845 1459.4500991810817 L 846 1464.3851804958035 L 846 1464.3851804958033 L 847 1469.3300413766144 L 847 1469.3300413766137 L 848 1474.2846818235162 L 848 1474.2846818235157 L 849 1479.2491018365067 L 849 1479.2491018365063 L 850 1484.2233014155884 L 850 1484.2233014155881 L 851 1489.207280560759 L 851 1489.2072805607586 L 852 1494.2010392720206 L 852 1494.2010392720201 L 853 1499.2045775493716 L 853 1499.2045775493714 L 854 1504.2178953928128 L 854 1504.2178953928124 L 855 1509.240992802344 L 855 1509.2409928023435 L 856 1514.2738697779648 L 856 1514.2738697779644 L 857 1519.3165263196759 L 857 1519.3165263196756 L 858 1524.368962427477 L 858 1524.3689624274766 L 859 1529.431178101368 L 859 1529.4311781013675 L 860 1534.5031733413489 L 860 1534.5031733413484 L 861 1539.5849481474202 L 861 1539.5849481474197 L 862 1544.6765025195807 L 862 1544.6765025195803 L 863 1549.777836457832 L 863 1549.7778364578317 L 863.9999999999999 1554.8889499621725 L 863.9999999999999 1554.8889499621723 L 865 1560.0098430326038 L 865 1560.0098430326036 L 865.9999999999999 1565.1405156691244 L 865.9999999999999 1565.140515669124 L 867 1570.2809678717358 L 867 1570.2809678717354 L 868 1575.4311996404365 L 868 1575.4311996404363 L 869 1580.5912109752276 L 869 1580.5912109752269 L 870 1585.7610018761081 L 870 1585.761001876108 L 871 1590.940572343079 L 871 1590.9405723430787 L 872 1596.1299223761398 L 872 1596.1299223761393 L 873 1601.3290519752904 L 873 1601.3290519752902 L 874 1606.5379611405313 L 874 1606.5379611405308 L 875 1611.756649871862 L 875 1611.7566498718616 L 876.0000000000001 1616.9851181692832 L 876.0000000000001 1616.985118169283 L 877 1622.2233660327934 L 877 1622.223366032793 L 878 1627.4713934623946 L 878 1627.4713934623942 L 879 1632.7292004580845 L 879 1632.7292004580843 L 880 1637.9967870198657 L 880 1637.9967870198652 L 880.9999999999999 1643.274153147736 L 880.9999999999999 1643.2741531477354 L 882 1648.5612988416972 L 882 1648.5612988416967 L 883 1653.858224101748 L 883 1653.8582241017473 L 884 1659.1649289278882 L 884 1659.1649289278878 L 885 1664.481413320119 L 885 1664.4814133201185 L 886 1669.8076772784393 L 886 1669.807677278439 L 887 1675.1437208028499 L 887 1675.1437208028494 L 888 1680.4895438933504 L 888 1680.48954389335 L 889 1685.8451465499409 L 889 1685.8451465499404 L 890 1691.2105287726213 L 890 1691.210528772621 L 891.0000000000001 1696.5856905613925 L 891.0000000000001 1696.585690561392 L 892 1701.9706319162524 L 892 1701.970631916252 L 893 1707.3653528372033 L 893 1707.3653528372029 L 894 1712.769853324243 L 894 1712.7698533242426 L 895 1718.184133377374 L 895 1718.1841333773737 L 895.9999999999999 1723.608192996594 L 895.9999999999999 1723.6081929965935 L 897 1729.042032181905 L 897 1729.0420321819042 L 898 1734.4856509333051 L 898 1734.485650933305 L 899 1739.9390492507955 L 899 1739.939049250795 L 900 1745.4022271343758 L 900 1745.4022271343754 L 901 1750.875184584046 L 901 1750.8751845840459 L 902 1756.3579215998063 L 902 1756.357921599806 L 903 1761.8504381816565 L 903 1761.8504381816563 L 904 1767.3527343295968 L 904 1767.3527343295964 L 905 1772.8648100436271 L 905 1772.8648100436264 L 906.0000000000001 1778.386665323748 L 906.0000000000001 1778.3866653237474 L 907 1783.9183001699575 L 907 1783.9183001699569 L 908 1789.4597145822581 L 908 1789.4597145822577 L 909 1795.0109085606477 L 909 1795.0109085606475 L 910 1800.5718821051285 L 910 1800.5718821051282 L 910.9999999999999 1806.1426352156982 L 910.9999999999999 1806.1426352156975 L 912 1811.7231678923586 L 912 1811.7231678923583 L 912.9999999999999 1817.3134801351084 L 912.9999999999999 1817.3134801351077 L 914 1822.913571943949 L 914 1822.9135719439485 L 915 1828.523443318879 L 915 1828.5234433188784 L 916 1834.1430942598988 L 916 1834.1430942598984 L 917 1839.772524767009 L 917 1839.7725247670087 L 918 1845.4117348402092 L 918 1845.4117348402085 L 919 1851.0607244794992 L 919 1851.0607244794987 L 920 1856.719493684879 L 920 1856.7194936848784 L 921 1862.3880424563488 L 921 1862.3880424563486 L 922 1868.0663707939088 L 922 1868.0663707939084 L 923.0000000000001 1873.7544786975593 L 923.0000000000001 1873.754478697559 L 924 1879.4523661672986 L 924 1879.4523661672984 L 925 1885.1600332031292 L 925 1885.1600332031287 L 925.9999999999999 1890.8774798050486 L 925.9999999999999 1890.877479805048 L 927 1896.6047059730588 L 927 1896.6047059730586 L 927.9999999999999 1902.3417117071583 L 927.9999999999999 1902.3417117071579 L 929 1908.0884970073487 L 929 1908.0884970073482 L 930 1913.8450618736285 L 930 1913.845061873628 L 931 1919.6114063059981 L 931 1919.6114063059977 L 932 1925.387530304458 L 932 1925.3875303044576 L 933 1931.1734338690076 L 933 1931.1734338690073 L 934 1936.9691169996477 L 934 1936.969116999647 L 935 1942.7745796963773 L 935 1942.7745796963768 L 936 1948.589821959197 L 936 1948.5898219591966 L 937 1954.4148437881067 L 937 1954.4148437881063 L 938.0000000000001 1960.2496451831068 L 938.0000000000001 1960.2496451831064 L 939 1966.0942261441958 L 939 1966.0942261441955 L 940 1971.9485866713762 L 940 1971.9485866713756 L 941 1977.8127267646453 L 941 1977.8127267646448 L 942 1983.6866464240054 L 942 1983.6866464240052 L 942.9999999999999 1989.5703456494543 L 942.9999999999999 1989.570345649454 L 944 1995.4638244409946 L 944 1995.4638244409941 L 945 2001.367082798624 L 945 2001.3670827986236 L 946 2007.2801207223436 L 946 2007.280120722343 L 947 2013.2029382121532 L 947 2013.2029382121527 L 948 2019.1355352680528 L 948 2019.1355352680523 L 949 2025.0779118900423 L 949 2025.0779118900418 L 950 2031.0300680781218 L 950 2031.0300680781213 L 951 2036.9920038322912 L 951 2036.9920038322907 L 952 2042.9637191525505 L 952 2042.9637191525499 L 953.0000000000001 2048.9452140389003 L 953.0000000000001 2048.9452140389003 L 954 2054.9364884913393 L 954 2054.936488491339 L 955 2060.937542509869 L 955 2060.9375425098688 L 956 2066.948376094488 L 956 2066.9483760944877 L 957 2072.968989245198 L 957 2072.9689892451975 L 957.9999999999999 2078.9993819619967 L 957.9999999999999 2078.999381961996 L 959 2085.039554244887 L 959 2085.0395542448864 L 960 2091.089506093866 L 960 2091.0895060938656 L 961 2097.1492375089356 L 961 2097.1492375089347 L 962 2103.218748490095 L 962 2103.218748490094 L 963 2109.298039037344 L 963 2109.298039037343 L 964 2115.387109150683 L 964 2115.3871091506826 L 965 2121.4859588301124 L 965 2121.4859588301115 L 966 2127.5945880756317 L 966 2127.594588075631 L 967 2133.712996887241 L 967 2133.71299688724 L 968.0000000000001 2139.8411852649406 L 968.0000000000001 2139.84118526494 L 969 2145.9791532087293 L 969 2145.9791532087283 L 970 2152.1269007186092 L 970 2152.1269007186083 L 971 2158.284427794578 L 971 2158.284427794577 L 972 2164.451734436637 L 972 2164.4517344366363 L 972.9999999999999 2170.628820644786 L 972.9999999999999 2170.6288206447853 L 974 2176.8156864190255 L 974 2176.8156864190246 L 974.9999999999999 2183.012331759354 L 974.9999999999999 2183.0123317593534 L 976 2189.2187566657735 L 976 2189.218756665773 L 977 2195.4349611382822 L 977 2195.4349611382813 L 978 2201.660945176882 L 978 2201.660945176881 L 979 2207.896708781571 L 979 2207.89670878157 L 980 2214.1422519523494 L 980 2214.1422519523485 L 981 2220.3975746892183 L 981 2220.3975746892174 L 982 2226.6626769921777 L 982 2226.6626769921763 L 983 2232.9375588612265 L 983 2232.9375588612256 L 984 2239.222220296365 L 984 2239.2222202963644 L 985.0000000000001 2245.516661297595 L 985.0000000000001 2245.516661297594 L 986 2251.8208818649127 L 986 2251.8208818649123 L 987 2258.1348819983223 L 987 2258.1348819983214 L 988 2264.4586616978204 L 988 2264.45866169782 L 989 2270.79222096341 L 989 2270.7922209634094 L 989.9999999999999 2277.1355597950883 L 989.9999999999999 2277.1355597950874 L 991 2283.4886781928576 L 991 2283.488678192857 L 992 2289.8515761567164 L 992 2289.8515761567155 L 993 2296.224253686665 L 993 2296.2242536866643 L 994 2302.606710782704 L 994 2302.6067107827034 L 995 2308.998947444833 L 995 2308.998947444832 L 996 2315.4009636730516 L 996 2315.4009636730507 L 997 2321.8127594673606 L 997 2321.8127594673597 L 998 2328.234334827759 L 998 2328.234334827758 L 999 2334.6656897542475 L 999 2334.665689754246 L 1000.0000000000001 2341.106824246827 L 1000.0000000000001 2341.1068242468264 L 1001 2347.5577383054947 L 1001 2347.5577383054942 L 1002 2354.0184319302543 L 1002 2354.0184319302534 L 1003 2360.488905121102 L 1003 2360.488905121101 L 1004 2366.969157878041 L 1004 2366.9691578780403 L 1004.9999999999999 2373.459190201069 L 1004.9999999999999 2373.459190201068 L 1006 2379.9590020901883 L 1006 2379.9590020901874 L 1007 2386.4685935453963 L 1007 2386.4685935453954 L 1008 2392.987964566695 L 1008 2392.9879645666942 L 1009 2399.517115154084 L 1009 2399.5171151540835 L 1010 2406.0560453075623 L 1010 2406.0560453075614 L 1011 2412.6047550271305 L 1011 2412.6047550271296 L 1012 2419.163244312789 L 1012 2419.1632443127883 L 1013 2425.731513164538 L 1013 2425.731513164537 L 1014 2432.3095615823763 L 1014 2432.3095615823754 L 1015 2438.897389566304 L 1015 2438.8973895663034 L 1016 2445.494997116323 L 1016 2445.4949971163223 L 1017 2452.102384232431 L 1017 2452.1023842324303 L 1018 2458.7195509146295 L 1018 2458.7195509146286 L 1019 2465.3464971629182 L 1019 2465.3464971629173 L 1020 2471.9832229772965 L 1020 2471.9832229772956 L 1021 2478.629728357765 L 1021 2478.629728357764 L 1022 2485.2860133043237 L 1022 2485.2860133043223 L 1023 2491.9520778169717 L 1023 2491.952077816971 L 1024 2498.6279218957097 L 1024 2498.627921895709 L 1025 2505.313545540538 L 1025 2505.3135455405372 L 1026 2512.008948751456 L 1026 2512.008948751455 L 1027 2518.7141315284643 L 1027 2518.714131528464 L 1028 2525.4290938715626 L 1028 2525.4290938715612 L 1029 2532.1538357807503 L 1029 2532.15383578075 L 1030 2538.888357256029 L 1030 2538.888357256028 L 1031 2545.632658297397 L 1031 2545.632658297396 L 1032 2552.3867389048555 L 1032 2552.386738904854 L 1033 2559.150599078403 L 1033 2559.1505990784026 L 1034 2565.924238818042 L 1034 2565.924238818041 L 1035 2572.7076581237698 L 1035 2572.707658123769 L 1036 2579.500856995588 L 1036 2579.500856995587 L 1037 2586.303835433496 L 1037 2586.303835433495 L 1038 2593.116593437494 L 1038 2593.116593437493 L 1039 2599.939131007582 L 1039 2599.9391310075816 L 1040 2606.7714481437597 L 1040 2606.771448143759 L 1041 2613.613544846028 L 1041 2613.6135448460273 L 1042 2620.465421114386 L 1042 2620.465421114385 L 1043 2627.3270769488336 L 1043 2627.3270769488327 L 1044 2634.1985123493714 L 1044 2634.1985123493705 L 1045 2641.0797273159997 L 1045 2641.0797273159988 L 1046 2647.9707218487174 L 1046 2647.9707218487165 L 1047 2654.8714959475255 L 1047 2654.8714959475246 L 1048 2661.782049612423 L 1048 2661.7820496124223 L 1049 2668.702382843411 L 1049 2668.7023828434103 L 1050 2675.6324956404897 L 1050 2675.6324956404887 L 1051 2682.5723880036576 L 1051 2682.5723880036567 L 1052 2689.522059932915 L 1052 2689.5220599329145 L 1053 2696.4815114282624 L 1053 2696.481511428262 L 1054 2703.4507424897006 L 1054 2703.4507424896997 L 1055 2710.4297531172283 L 1055 2710.429753117228 L 1056 2717.418543310846 L 1056 2717.418543310845 L 1057 2724.4171130705536 L 1057 2724.417113070553 L 1058 2731.425462396351 L 1058 2731.42546239635 L 1059 2738.4435912882386 L 1059 2738.443591288238 L 1060 2745.4714997462165 L 1060 2745.4714997462156 L 1061 2752.5091877702844 L 1061 2752.5091877702835 L 1062 2759.556655360442 L 1062 2759.5566553604413 L 1063 2766.6139025166894 L 1063 2766.6139025166885 L 1064 2773.6809292390267 L 1064 2773.680929239026 L 1065 2780.757735527455 L 1065 2780.7577355274543 L 1066 2787.844321381973 L 1066 2787.844321381972 L 1067 2794.9406868025803 L 1067 2794.9406868025794 L 1068 2802.046831789278 L 1068 2802.046831789277 L 1069 2809.1627563420657 L 1069 2809.1627563420648 L 1070 2816.288460460943 L 1070 2816.288460460942 L 1071 2823.42394414591 L 1071 2823.423944145909 L 1072 2830.569207396968 L 1072 2830.5692073969667 L 1073 2837.724250214115 L 1073 2837.7242502141144 L 1074 2844.8890725973524 L 1074 2844.8890725973515 L 1075 2852.0636745466795 L 1075 2852.063674546679 L 1076 2859.248056062097 L 1076 2859.248056062096 L 1077 2866.4422171436045 L 1077 2866.442217143604 L 1078 2873.646157791202 L 1078 2873.646157791201 L 1079 2880.8598780048897 L 1079 2880.8598780048883 L 1080 2888.0833777846665 L 1080 2888.0833777846656 L 1081 2895.3166571305346 L 1081 2895.3166571305337 L 1082 2902.559716042492 L 1082 2902.559716042491 L 1083 2909.812554520539 L 1083 2909.8125545205385 L 1084 2917.0751725646764 L 1084 2917.0751725646755 L 1085 2924.347570174904 L 1085 2924.347570174903 L 1086 2931.629747351221 L 1086 2931.62974735122 L 1087 2938.921704093628 L 1087 2938.921704093627 L 1088 2946.223440402125 L 1088 2946.223440402124 L 1089 2953.5349562767124 L 1089 2953.5349562767115 L 1090 2960.8562517173896 L 1090 2960.8562517173887 L 1091 2968.1873267241567 L 1091 2968.187326724156 L 1092 2975.528181297014 L 1092 2975.528181297013 L 1093 2982.8788154359604 L 1093 2982.8788154359595 L 1094 2990.239229140998 L 1094 2990.239229140997 L 1095 2997.6094224121252 L 1095 2997.609422412124 L 1096 3004.9893952493426 L 1096 3004.989395249342 L 1097 3012.3791476526494 L 1097 3012.379147652649 L 1098 3019.7786796220466 L 1098 3019.7786796220457 L 1099 3027.187991157534 L 1099 3027.187991157533 L 1100 3034.6070822591105 L 1100 3034.60708225911 L 1101 3042.035952926777 L 1101 3042.0359529267766 L 1102 3049.4746031605346 L 1102 3049.4746031605337 L 1103 3056.923032960381 L 1103 3056.9230329603806 L 1104 3064.3812423263184 L 1104 3064.3812423263175 L 1105 3071.8492312583453 L 1105 3071.8492312583444 L 1106 3079.326999756462 L 1106 3079.3269997564616 L 1107 3086.8145478206693 L 1107 3086.8145478206684 L 1108 3094.311875450966 L 1108 3094.311875450965 L 1109 3101.8189826473526 L 1109 3101.8189826473517 L 1110 3109.3358694098292 L 1110 3109.3358694098283 L 1111 3116.862535738396 L 1111 3116.8625357383958 L 1112 3124.398981633054 L 1112 3124.398981633053 L 1113 3131.9452070938005 L 1113 3131.9452070937996 L 1114 3139.5012121206373 L 1114 3139.5012121206364 L 1115 3147.066996713564 L 1115 3147.066996713563 L 1116 3154.6425608725804 L 1116 3154.64256087258 L 1117 3162.2279045976875 L 1117 3162.2279045976866 L 1118 3169.823027888884 L 1118 3169.823027888883 L 1119 3177.427930746171 L 1119 3177.4279307461697 L 1120 3185.042613169547 L 1120 3185.0426131695463 L 1121 3192.667075159014 L 1121 3192.667075159013 L 1122 3200.3013167145705 L 1122 3200.30131671457 L 1123 3207.9453378362173 L 1123 3207.9453378362164 L 1124 3215.5991385239536 L 1124 3215.5991385239527 L 1125 3223.2627187777807 L 1125 3223.26271877778 L 1126 3230.936078597697 L 1126 3230.936078597696 L 1127 3238.619217983704 L 1127 3238.619217983703 L 1128 3246.3121369358005 L 1128 3246.3121369357996 L 1129 3254.014835453987 L 1129 3254.014835453986 L 1130 3261.7273135382634 L 1130 3261.7273135382625 L 1131 3269.4495711886298 L 1131 3269.4495711886293 L 1132 3277.1816084050865 L 1132 3277.1816084050856 L 1133 3284.9234251876333 L 1133 3284.923425187632 L 1134 3292.6750215362695 L 1134 3292.6750215362686 L 1135 3300.436397450996 L 1135 3300.436397450995 L 1136 3308.2075529318117 L 1136 3308.2075529318113 L 1137 3315.9884879787187 L 1137 3315.9884879787173 L 1138 3323.7792025917147 L 1138 3323.779202591714 L 1139 3331.5796967708006 L 1139 3331.5796967708 L 1140 3339.3899705159774 L 1140 3339.389970515977 L 1141 3347.2100238272437 L 1141 3347.2100238272433 L 1142 3355.0398567046 L 1142 3355.0398567045995 L 1143 3362.879469148047 L 1143 3362.879469148046 L 1144 3370.728861157583 L 1144 3370.728861157582 L 1145 3378.5880327332093 L 1145 3378.5880327332084 L 1146 3386.4569838749253 L 1146 3386.456983874925 L 1147 3394.335714582732 L 1147 3394.3357145827313 L 1148 3402.224224856628 L 1148 3402.224224856627 L 1149 3410.1225146966144 L 1149 3410.122514696613 L 1150 3418.03058410269 L 1150 3418.0305841026893 L 1151 3425.9484330748564 L 1151 3425.9484330748555 L 1152 3433.876061613112" stroke-opacity="0.6980392156862745" stroke-linecap="round" stroke-linejoin="round" stroke-miterlimit="10" stroke-width="2.5"/><text fill="rgb(153,51,0)" stroke="none" font-family="geogebra-sans-serif, sans-serif" font-size="16px" font-style="normal" font-weight="normal" text-decoration="normal" x="17" y="729" text-anchor="start" dominant-baseline="alphabetic" fill-opacity="1">p</text><text fill="none" stroke="rgb(255,255,255)" font-family="geogebra-sans-serif, sans-serif" font-size="16px" font-style="normal" font-weight="normal" text-decoration="normal" x="17" y="729" text-anchor="start" dominant-baseline="alphabetic" stroke-opacity="1" stroke-linejoin="bevel" stroke-miterlimit="10" stroke-width="3">p</text><text fill="rgb(153,51,0)" stroke="none" font-family="geogebra-sans-serif, sans-serif" font-size="16px" font-style="normal" font-weight="normal" text-decoration="normal" x="17" y="729" text-anchor="start" dominant-baseline="alphabetic" fill-opacity="1">p</text><text fill="rgb(0,0,0)" stroke="none" font-family="geogebra-sans-serif, sans-serif" font-size="22px" font-style="normal" font-weight="bold" text-decoration="normal" x="464" y="217" text-anchor="start" dominant-baseline="alphabetic" fill-opacity="1">Hydrostatisches Gleichgewicht</text><text fill="rgb(0,0,0)" stroke="none" font-family="geogebra-sans-serif, sans-serif" font-size="16px" font-style="normal" font-weight="normal" text-decoration="normal" x="465" y="245" text-anchor="start" dominant-baseline="alphabetic" fill-opacity="1">Gravitationsdruck in einer homogenen Gaskugel</text><text fill="rgb(0,0,0)" stroke="none" font-family="geogebra-sans-serif, sans-serif" font-size="16px" font-style="normal" font-weight="normal" text-decoration="normal" x="666" y="636" text-anchor="start" dominant-baseline="alphabetic" fill-opacity="1">Abstand vom Zentrum</text><g transform="scale(19,19) translate(18.90452631578947,22.901736842105265) rotate(-90,0,0) translate(-18.90452631578947,-22.901736842105265)"><g transform="translate(19.23752631578947,22.901736842105265)"><path fill="rgb(0,0,0)" stroke="none" paint-order="stroke fill markers" d=" M 0.599 -0.299 L 0.599 -0.027 Q 0.498 0.022 0.391 0.022 Q 0.256 0.022 0.1615 -0.08600000000000001 Q 0.067 -0.194 0.067 -0.34700000000000003 Q 0.067 -0.499 0.1605 -0.6075 Q 0.254 -0.716 0.393 -0.716 Q 0.437 -0.716 0.47600000000000003 -0.708 Q 0.515 -0.7000000000000001 0.5345 -0.6920000000000001 Q 0.554 -0.684 0.591 -0.667 L 0.5760000000000001 -0.586 Q 0.496 -0.652 0.392 -0.652 Q 0.291 -0.652 0.2235 -0.5625 Q 0.156 -0.47300000000000003 0.156 -0.34700000000000003 Q 0.156 -0.221 0.2235 -0.1315 Q 0.291 -0.042 0.392 -0.042 Q 0.455 -0.042 0.521 -0.062 L 0.521 -0.23800000000000002 L 0.389 -0.23800000000000002 L 0.389 -0.299 L 0.599 -0.299 Z"/></g><g transform="translate(19.90452631578947,22.901736842105265)"><path fill="rgb(0,0,0)" stroke="none" paint-order="stroke fill markers" d=" M 0.157 -0.214 L 0.157 0 L 0.082 0 L 0.082 -0.45 L 0.152 -0.45 L 0.152 -0.359 Q 0.216 -0.454 0.327 -0.455 L 0.327 -0.388 Q 0.253 -0.386 0.20500000000000002 -0.3375 Q 0.157 -0.289 0.157 -0.214 Z"/></g><g transform="translate(20.24652631578947,22.901736842105265)"><path fill="rgb(0,0,0)" stroke="none" paint-order="stroke fill markers" d=" M 0.399 -0.289 L 0.399 0 L 0.324 0 L 0.324 -0.036000000000000004 Q 0.263 0.011 0.158 0.011 Q 0.1 0.011 0.07200000000000001 -0.029500000000000002 Q 0.044 -0.07 0.044 -0.113 Q 0.044 -0.176 0.1225 -0.2095 Q 0.201 -0.243 0.321 -0.245 L 0.321 -0.28800000000000003 Q 0.321 -0.341 0.296 -0.3715 Q 0.271 -0.402 0.234 -0.402 Q 0.153 -0.402 0.083 -0.352 L 0.077 -0.418 Q 0.152 -0.461 0.234 -0.461 Q 0.304 -0.461 0.35150000000000003 -0.41250000000000003 Q 0.399 -0.364 0.399 -0.289 M 0.321 -0.132 L 0.321 -0.194 Q 0.116 -0.184 0.116 -0.115 Q 0.116 -0.085 0.14350000000000002 -0.0675 Q 0.171 -0.05 0.209 -0.05 Q 0.256 -0.05 0.28700000000000003 -0.069 Q 0.321 -0.088 0.321 -0.132 Z"/></g><g transform="translate(20.727526315789472,22.901736842105265)"><path fill="rgb(0,0,0)" stroke="none" paint-order="stroke fill markers" d=" M 0.446 -0.444 L 0.274 0 L 0.186 0 L 0.014 -0.444 L 0.092 -0.444 L 0.189 -0.185 Q 0.225 -0.08700000000000001 0.231 -0.053 L 0.232 -0.053 Q 0.24 -0.1 0.292 -0.23600000000000002 L 0.371 -0.444 L 0.446 -0.444 Z"/></g><g transform="translate(21.18852631578947,22.901736842105265)"><path fill="rgb(0,0,0)" stroke="none" paint-order="stroke fill markers" d=" M 0.163 -0.68 L 0.163 -0.591 L 0.074 -0.591 L 0.074 -0.68 L 0.163 -0.68 M 0.156 -0.444 L 0.156 0 L 0.081 0 L 0.081 -0.444 L 0.156 -0.444 Z"/></g><g transform="translate(21.42752631578947,22.901736842105265)"><path fill="rgb(0,0,0)" stroke="none" paint-order="stroke fill markers" d=" M 0.17500000000000002 -0.386 L 0.17500000000000002 -0.136 Q 0.17500000000000002 -0.053 0.226 -0.053 Q 0.275 -0.053 0.316 -0.08600000000000001 L 0.332 -0.027 Q 0.259 0.011 0.186 0.011 Q 0.10300000000000001 0.011 0.10300000000000001 -0.11900000000000001 L 0.10300000000000001 -0.386 L 0.019 -0.386 L 0.019 -0.444 L 0.106 -0.444 L 0.106 -0.5710000000000001 L 0.17500000000000002 -0.5710000000000001 L 0.17500000000000002 -0.444 L 0.316 -0.444 L 0.316 -0.386 L 0.17500000000000002 -0.386 Z"/></g><g transform="translate(21.788526315789472,22.901736842105265)"><path fill="rgb(0,0,0)" stroke="none" paint-order="stroke fill markers" d=" M 0.399 -0.289 L 0.399 0 L 0.324 0 L 0.324 -0.036000000000000004 Q 0.263 0.011 0.158 0.011 Q 0.1 0.011 0.07200000000000001 -0.029500000000000002 Q 0.044 -0.07 0.044 -0.113 Q 0.044 -0.176 0.1225 -0.2095 Q 0.201 -0.243 0.321 -0.245 L 0.321 -0.28800000000000003 Q 0.321 -0.341 0.296 -0.3715 Q 0.271 -0.402 0.234 -0.402 Q 0.153 -0.402 0.083 -0.352 L 0.077 -0.418 Q 0.152 -0.461 0.234 -0.461 Q 0.304 -0.461 0.35150000000000003 -0.41250000000000003 Q 0.399 -0.364 0.399 -0.289 M 0.321 -0.132 L 0.321 -0.194 Q 0.116 -0.184 0.116 -0.115 Q 0.116 -0.085 0.14350000000000002 -0.0675 Q 0.171 -0.05 0.209 -0.05 Q 0.256 -0.05 0.28700000000000003 -0.069 Q 0.321 -0.088 0.321 -0.132 Z"/></g><g transform="translate(22.269526315789474,22.901736842105265)"><path fill="rgb(0,0,0)" stroke="none" paint-order="stroke fill markers" d=" M 0.17500000000000002 -0.386 L 0.17500000000000002 -0.136 Q 0.17500000000000002 -0.053 0.226 -0.053 Q 0.275 -0.053 0.316 -0.08600000000000001 L 0.332 -0.027 Q 0.259 0.011 0.186 0.011 Q 0.10300000000000001 0.011 0.10300000000000001 -0.11900000000000001 L 0.10300000000000001 -0.386 L 0.019 -0.386 L 0.019 -0.444 L 0.106 -0.444 L 0.106 -0.5710000000000001 L 0.17500000000000002 -0.5710000000000001 L 0.17500000000000002 -0.444 L 0.316 -0.444 L 0.316 -0.386 L 0.17500000000000002 -0.386 Z"/></g><g transform="translate(22.630526315789474,22.901736842105265)"><path fill="rgb(0,0,0)" stroke="none" paint-order="stroke fill markers" d=" M 0.163 -0.68 L 0.163 -0.591 L 0.074 -0.591 L 0.074 -0.68 L 0.163 -0.68 M 0.156 -0.444 L 0.156 0 L 0.081 0 L 0.081 -0.444 L 0.156 -0.444 Z"/></g><g transform="translate(22.869526315789475,22.901736842105265)"><path fill="rgb(0,0,0)" stroke="none" paint-order="stroke fill markers" d=" M 0.46900000000000003 -0.22 Q 0.46900000000000003 -0.123 0.4045 -0.056 Q 0.34 0.011 0.249 0.011 Q 0.16 0.011 0.095 -0.0555 Q 0.03 -0.122 0.03 -0.22 Q 0.03 -0.319 0.094 -0.39 Q 0.158 -0.461 0.25 -0.461 Q 0.34 -0.461 0.4045 -0.3905 Q 0.46900000000000003 -0.32 0.46900000000000003 -0.22 M 0.249 -0.053 Q 0.308 -0.053 0.34950000000000003 -0.0995 Q 0.391 -0.146 0.391 -0.23 Q 0.391 -0.313 0.34900000000000003 -0.3565 Q 0.307 -0.4 0.249 -0.4 Q 0.193 -0.4 0.1505 -0.357 Q 0.108 -0.314 0.108 -0.23 Q 0.108 -0.145 0.15 -0.099 Q 0.192 -0.053 0.249 -0.053 Z"/></g><g transform="translate(23.369526315789475,22.901736842105265)"><path fill="rgb(0,0,0)" stroke="none" paint-order="stroke fill markers" d=" M 0.435 -0.298 L 0.435 0 L 0.357 0 L 0.357 -0.291 Q 0.357 -0.305 0.3565 -0.3145 Q 0.356 -0.324 0.35050000000000003 -0.3405 Q 0.34500000000000003 -0.357 0.3355 -0.3675 Q 0.326 -0.378 0.3065 -0.386 Q 0.28700000000000003 -0.394 0.26 -0.394 Q 0.20800000000000002 -0.394 0.1835 -0.34900000000000003 Q 0.159 -0.304 0.159 -0.245 L 0.159 0 L 0.081 0 L 0.081 -0.45 L 0.153 -0.45 L 0.153 -0.379 Q 0.21 -0.455 0.298 -0.455 Q 0.435 -0.455 0.435 -0.298 Z"/></g><g transform="translate(23.886526315789474,22.901736842105265)"><path fill="rgb(0,0,0)" stroke="none" paint-order="stroke fill markers" d=" M 0.343 -0.429 L 0.331 -0.364 Q 0.267 -0.402 0.189 -0.402 Q 0.10400000000000001 -0.402 0.10400000000000001 -0.34 Q 0.10400000000000001 -0.326 0.11 -0.315 Q 0.116 -0.304 0.1235 -0.2975 Q 0.131 -0.291 0.1465 -0.28550000000000003 Q 0.162 -0.28 0.17300000000000001 -0.277 Q 0.184 -0.274 0.20500000000000002 -0.27 Q 0.248 -0.262 0.271 -0.253 Q 0.294 -0.244 0.321 -0.22 L 0.326 -0.214 Q 0.331 -0.209 0.336 -0.2015 Q 0.341 -0.194 0.34700000000000003 -0.1835 Q 0.353 -0.17300000000000001 0.3565 -0.158 Q 0.36 -0.14300000000000002 0.36 -0.128 Q 0.36 -0.058 0.312 -0.021 Q 0.269 0.011 0.196 0.011 Q 0.116 0.011 0.028 -0.033 L 0.04 -0.101 Q 0.114 -0.052000000000000005 0.195 -0.052000000000000005 Q 0.289 -0.052000000000000005 0.289 -0.121 Q 0.289 -0.136 0.28200000000000003 -0.148 Q 0.275 -0.16 0.2665 -0.167 Q 0.258 -0.17400000000000002 0.243 -0.18 Q 0.228 -0.186 0.219 -0.188 Q 0.21 -0.19 0.195 -0.193 Q 0.161 -0.2 0.148 -0.203 Q 0.135 -0.20600000000000002 0.11850000000000001 -0.2125 Q 0.10200000000000001 -0.219 0.08700000000000001 -0.23 Q 0.033 -0.271 0.033 -0.33 Q 0.033 -0.367 0.0485 -0.3935 Q 0.064 -0.42 0.0835 -0.4325 Q 0.10300000000000001 -0.445 0.1305 -0.452 Q 0.158 -0.459 0.171 -0.46 Q 0.184 -0.461 0.199 -0.461 Q 0.274 -0.461 0.343 -0.429 Z"/></g><g transform="translate(24.269526315789474,22.901736842105265)"><path fill="rgb(0,0,0)" stroke="none" paint-order="stroke fill markers" d=" M 0.434 -0.6940000000000001 L 0.434 0 L 0.356 0 L 0.356 -0.052000000000000005 Q 0.291 0.011 0.20800000000000002 0.011 Q 0.136 0.011 0.08600000000000001 -0.0565 Q 0.036000000000000004 -0.124 0.036000000000000004 -0.222 Q 0.036000000000000004 -0.319 0.08750000000000001 -0.387 Q 0.139 -0.455 0.213 -0.455 Q 0.293 -0.455 0.359 -0.4 L 0.359 -0.6940000000000001 L 0.434 -0.6940000000000001 M 0.356 -0.139 L 0.356 -0.339 Q 0.318 -0.394 0.259 -0.394 Q 0.20400000000000001 -0.394 0.159 -0.352 Q 0.114 -0.31 0.114 -0.221 Q 0.114 -0.135 0.1545 -0.0925 Q 0.195 -0.05 0.249 -0.05 Q 0.291 -0.05 0.323 -0.078 Q 0.356 -0.108 0.356 -0.139 Z"/></g><g transform="translate(24.786526315789473,22.901736842105265)"><path fill="rgb(0,0,0)" stroke="none" paint-order="stroke fill markers" d=" M 0.157 -0.214 L 0.157 0 L 0.082 0 L 0.082 -0.45 L 0.152 -0.45 L 0.152 -0.359 Q 0.216 -0.454 0.327 -0.455 L 0.327 -0.388 Q 0.253 -0.386 0.20500000000000002 -0.3375 Q 0.157 -0.289 0.157 -0.214 Z"/></g><g transform="translate(25.128526315789472,22.901736842105265)"><path fill="rgb(0,0,0)" stroke="none" paint-order="stroke fill markers" d=" M 0.435 -0.444 L 0.435 0 L 0.36 0 L 0.36 -0.048 Q 0.293 0.011 0.187 0.011 Q 0.128 0.011 0.1045 -0.0195 Q 0.081 -0.05 0.081 -0.109 L 0.081 -0.444 L 0.159 -0.444 L 0.159 -0.113 Q 0.159 -0.076 0.17350000000000002 -0.06 Q 0.188 -0.044 0.23700000000000002 -0.044 Q 0.28800000000000003 -0.044 0.3225 -0.0725 Q 0.357 -0.101 0.357 -0.154 L 0.357 -0.444 L 0.435 -0.444 Z"/></g><g transform="translate(25.64552631578947,22.901736842105265)"><path fill="rgb(0,0,0)" stroke="none" paint-order="stroke fill markers" d=" M 0.41000000000000003 -0.418 L 0.398 -0.353 Q 0.358 -0.379 0.328 -0.388 Q 0.298 -0.397 0.257 -0.397 Q 0.20700000000000002 -0.397 0.17350000000000002 -0.369 Q 0.14 -0.341 0.127 -0.3035 Q 0.114 -0.266 0.114 -0.223 Q 0.114 -0.149 0.1525 -0.101 Q 0.191 -0.053 0.253 -0.053 Q 0.34 -0.053 0.40900000000000003 -0.107 L 0.41500000000000004 -0.04 Q 0.341 0.011 0.252 0.011 Q 0.16 0.011 0.098 -0.058 Q 0.036000000000000004 -0.127 0.036000000000000004 -0.222 Q 0.036000000000000004 -0.317 0.0965 -0.389 Q 0.157 -0.461 0.256 -0.461 Q 0.302 -0.461 0.334 -0.452 Q 0.366 -0.443 0.41000000000000003 -0.418 Z"/></g><g transform="translate(26.08952631578947,22.901736842105265)"><path fill="rgb(0,0,0)" stroke="none" paint-order="stroke fill markers" d=" M 0.281 -0.272 L 0.47100000000000003 0 L 0.389 0 L 0.233 -0.224 L 0.153 -0.14100000000000001 L 0.153 0 L 0.084 0 L 0.084 -0.6940000000000001 L 0.156 -0.6940000000000001 L 0.156 -0.23600000000000002 L 0.359 -0.444 L 0.449 -0.444 L 0.281 -0.272 Z"/></g><g transform="translate(18.90452631578947,22.901736842105265) rotate(90,0,0) translate(-18.90452631578947,-22.901736842105265)"/></g></g></g></svg>