<svg width="2265" height="1308" xmlns="http://www.w3.org/2000/svg" xmlns:xlink="http://www.w3.org/1999/xlink" overflow="hidden"><defs><clipPath id="clip0"><rect x="2594" y="1059" width="2265" height="1308"/></clipPath><clipPath id="clip1"><rect x="2595" y="1060" width="2262" height="1305"/></clipPath><clipPath id="clip2"><rect x="2595" y="1060" width="2262" height="1305"/></clipPath><clipPath id="clip3"><rect x="2595" y="1060" width="2262" height="1305"/></clipPath><clipPath id="clip4"><rect x="2595" y="1060" width="2262" height="1305"/></clipPath><clipPath id="clip5"><rect x="2814" y="1230" width="1964" height="1018"/></clipPath><clipPath id="clip6"><rect x="2595" y="1060" width="2262" height="1305"/></clipPath><clipPath id="clip7"><rect x="2595" y="1060" width="2262" height="1305"/></clipPath><clipPath id="clip8"><rect x="2595" y="1060" width="2262" height="1305"/></clipPath><clipPath id="clip9"><rect x="2595" y="1060" width="2262" height="1305"/></clipPath><clipPath id="clip10"><rect x="2595" y="1060" width="2262" height="1305"/></clipPath><clipPath id="clip11"><rect x="2595" y="1060" width="2262" height="1305"/></clipPath><clipPath id="clip12"><rect x="2595" y="1060" width="2262" height="1305"/></clipPath><clipPath id="clip13"><rect x="2595" y="1060" width="2262" height="1305"/></clipPath><clipPath id="clip14"><rect x="2595" y="1060" width="2262" height="1305"/></clipPath><clipPath id="clip15"><rect x="2595" y="1060" width="2262" height="1305"/></clipPath><clipPath id="clip16"><rect x="2595" y="1060" width="2262" height="1305"/></clipPath><clipPath id="clip17"><rect x="2595" y="1060" width="2262" height="1305"/></clipPath><clipPath id="clip18"><rect x="2595" y="1060" width="2262" height="1305"/></clipPath><clipPath id="clip19"><rect x="2595" y="1060" width="2262" height="1305"/></clipPath><clipPath id="clip20"><rect x="2595" y="1060" width="2262" height="1305"/></clipPath><clipPath id="clip21"><rect x="2595" y="1060" width="2262" height="1305"/></clipPath><clipPath id="clip22"><rect x="2595" y="1060" width="2262" height="1305"/></clipPath><clipPath id="clip23"><rect x="2595" y="1060" width="2262" height="1305"/></clipPath><clipPath id="clip24"><rect x="2595" y="1060" width="2262" height="1305"/></clipPath><clipPath id="clip25"><rect x="2595" y="1060" width="2262" height="1305"/></clipPath><clipPath id="clip26"><rect x="2595" y="1060" width="2262" height="1305"/></clipPath><clipPath id="clip27"><rect x="2595" y="1060" width="2262" height="1305"/></clipPath><clipPath id="clip28"><rect x="2595" y="1060" width="2262" height="1305"/></clipPath><clipPath id="clip29"><rect x="2595" y="1060" width="2262" height="1305"/></clipPath><clipPath id="clip30"><rect x="2595" y="1060" width="2262" height="1305"/></clipPath><clipPath id="clip31"><rect x="2595" y="1060" width="2262" height="1305"/></clipPath><clipPath id="clip32"><rect x="2595" y="1060" width="2262" height="1305"/></clipPath><clipPath id="clip33"><rect x="2595" y="1060" width="2262" height="1305"/></clipPath><clipPath id="clip34"><rect x="2595" y="1060" width="2262" height="1305"/></clipPath><clipPath id="clip35"><rect x="2595" y="1060" width="2262" height="1305"/></clipPath><clipPath id="clip36"><rect x="2595" y="1060" width="2262" height="1305"/></clipPath><clipPath id="clip37"><rect x="2595" y="1060" width="2262" height="1305"/></clipPath><clipPath id="clip38"><rect x="2595" y="1060" width="2262" height="1305"/></clipPath><clipPath id="clip39"><rect x="2595" y="1060" width="2262" height="1305"/></clipPath><clipPath id="clip40"><rect x="2595" y="1060" width="2262" height="1305"/></clipPath><clipPath id="clip41"><rect x="2595" y="1060" width="2262" height="1305"/></clipPath></defs><g clip-path="url(#clip0)" transform="translate(-2594 -1059)"><rect x="2595" y="1060" width="2262" height="1305" fill="#FFFFFF"/><g clip-path="url(#clip1)"><path d="M2814.5 2244.5 4775.5 2244.5M2814.5 2160.57 4775.5 2160.57M2814.5 2075.57 4775.5 2075.57M2814.5 1991.57 4775.5 1991.57M2814.5 1906.56 4775.5 1906.56M2814.5 1822.56 4775.5 1822.56M2814.5 1653.55 4775.5 1653.55M2814.5 1568.55 4775.5 1568.55M2814.5 1484.55 4775.5 1484.55M2814.5 1399.55 4775.5 1399.55M2814.5 1314.54 4775.5 1314.54M2814.5 1230.5 4775.5 1230.5" stroke="#D9D9D9" stroke-width="3.4375" stroke-linejoin="round" stroke-miterlimit="10" fill="none"/></g><g clip-path="url(#clip2)"><path d="M2978.6 1230.5 2978.6 2244.5M3141.6 1230.5 3141.6 2244.5M3304.61 1230.5 3304.61 2244.5M3468.61 1230.5 3468.61 2244.5M3631.62 1230.5 3631.62 2244.5M3795.62 1230.5 3795.62 2244.5M3958.63 1230.5 3958.63 2244.5M4121.64 1230.5 4121.64 2244.5M4285.64 1230.5 4285.64 2244.5M4448.65 1230.5 4448.65 2244.5M4611.65 1230.5 4611.65 2244.5M4775.5 1230.5 4775.5 2244.5" stroke="#D9D9D9" stroke-width="3.4375" stroke-linejoin="round" stroke-miterlimit="10" fill="none"/></g><g clip-path="url(#clip3)"><path d="M0 0 0.000360892 1014" stroke="#BFBFBF" stroke-width="3.4375" stroke-linejoin="round" stroke-miterlimit="10" fill="none" fill-rule="evenodd" transform="matrix(1 0 0 -1 2814.5 2244.5)"/></g><g clip-path="url(#clip4)"><path d="M2814.5 1737.5 4775.5 1737.5" stroke="#BFBFBF" stroke-width="3.4375" stroke-linejoin="round" stroke-miterlimit="10" fill="none" fill-rule="evenodd"/></g><g clip-path="url(#clip5)"><path d="M2814.5 1399.5C2832.66 1400.22 2850.82 1400.18 2868.97 1401.65 2887.13 1403.12 2905.29 1405.22 2923.44 1408.33 2941.6 1411.43 2959.76 1415.18 2977.92 1420.29 2996.07 1425.39 3014.23 1431.22 3032.39 1438.96 3050.55 1446.7 3068.7 1455.34 3086.86 1466.71 3105.02 1478.07 3123.18 1490.77 3141.33 1507.13 3159.49 1523.5 3177.65 1542.2 3195.81 1564.88 3213.96 1587.56 3232.12 1614.43 3250.28 1643.2 3268.44 1671.97 3286.59 1706.07 3304.75 1737.5 3322.91 1768.93 3341.06 1803.03 3359.22 1831.8 3377.38 1860.57 3395.54 1887.44 3413.69 1910.12 3431.85 1932.8 3450.01 1951.5 3468.17 1967.87 3486.32 1984.23 3504.48 1996.93 3522.64 2008.29 3540.8 2019.66 3558.95 2028.3 3577.11 2036.04 3595.27 2043.78 3613.43 2049.61 3631.58 2054.71 3649.74 2059.82 3667.9 2063.57 3686.06 2066.67 3704.21 2069.78 3722.37 2071.88 3740.53 2073.35 3758.69 2074.82 3776.84 2075.5 3795 2075.5 3813.16 2075.5 3831.31 2074.82 3849.47 2073.35 3867.63 2071.88 3885.79 2069.78 3903.94 2066.67 3922.1 2063.57 3940.26 2059.82 3958.42 2054.71 3976.57 2049.61 3994.73 2043.78 4012.89 2036.04 4031.05 2028.3 4049.2 2019.66 4067.36 2008.29 4085.52 1996.93 4103.68 1984.23 4121.83 1967.87 4139.99 1951.5 4158.15 1932.8 4176.31 1910.12 4194.46 1887.44 4212.62 1860.57 4230.78 1831.8 4248.94 1803.03 4267.09 1768.93 4285.25 1737.5 4303.41 1706.07 4321.56 1671.97 4339.72 1643.2 4357.88 1614.43 4376.04 1587.56 4394.19 1564.88 4412.35 1542.2 4430.51 1523.5 4448.67 1507.13 4466.82 1490.77 4484.98 1478.07 4503.14 1466.71 4521.3 1455.34 4539.45 1446.7 4557.61 1438.96 4575.77 1431.22 4593.93 1425.39 4612.08 1420.29 4630.24 1415.18 4648.4 1411.43 4666.56 1408.33 4684.71 1405.22 4702.87 1403.12 4721.03 1401.65 4739.19 1400.18 4757.34 1400.22 4775.5 1399.5" stroke="#4F81BD" stroke-width="6.875" stroke-linecap="round" stroke-linejoin="round" stroke-miterlimit="10" fill="none"/></g><g clip-path="url(#clip6)"><path d="M2825.81 1399.97C2825.81 1406.04 2820.89 1410.97 2814.81 1410.97 2808.74 1410.97 2803.81 1406.04 2803.81 1399.97 2803.81 1393.89 2808.74 1388.97 2814.81 1388.97 2820.89 1388.97 2825.81 1393.89 2825.81 1399.97Z" stroke="#4F81BD" stroke-width="3.4375" stroke-linejoin="round" stroke-miterlimit="10" fill="#4F81BD"/><path d="M2880.81 1401.97C2880.81 1408.04 2875.89 1412.97 2869.81 1412.97 2863.74 1412.97 2858.81 1408.04 2858.81 1401.97 2858.81 1395.89 2863.74 1390.97 2869.81 1390.97 2875.89 1390.97 2880.81 1395.89 2880.81 1401.97Z" stroke="#4F81BD" stroke-width="3.4375" stroke-linejoin="round" stroke-miterlimit="10" fill="#4F81BD"/><path d="M2934.81 1408.97C2934.81 1415.04 2929.89 1419.97 2923.81 1419.97 2917.74 1419.97 2912.81 1415.04 2912.81 1408.97 2912.81 1402.89 2917.74 1397.97 2923.81 1397.97 2929.89 1397.97 2934.81 1402.89 2934.81 1408.97Z" stroke="#4F81BD" stroke-width="3.4375" stroke-linejoin="round" stroke-miterlimit="10" fill="#4F81BD"/><path d="M2989.81 1420.97C2989.81 1427.04 2984.89 1431.97 2978.81 1431.97 2972.74 1431.97 2967.81 1427.04 2967.81 1420.97 2967.81 1414.89 2972.74 1409.97 2978.81 1409.97 2984.89 1409.97 2989.81 1414.89 2989.81 1420.97Z" stroke="#4F81BD" stroke-width="3.4375" stroke-linejoin="round" stroke-miterlimit="10" fill="#4F81BD"/><path d="M3043.81 1439.97C3043.81 1446.04 3038.89 1450.97 3032.81 1450.97 3026.74 1450.97 3021.81 1446.04 3021.81 1439.97 3021.81 1433.89 3026.74 1428.97 3032.81 1428.97 3038.89 1428.97 3043.81 1433.89 3043.81 1439.97Z" stroke="#4F81BD" stroke-width="3.4375" stroke-linejoin="round" stroke-miterlimit="10" fill="#4F81BD"/><path d="M3098.81 1466.97C3098.81 1473.04 3093.89 1477.97 3087.81 1477.97 3081.74 1477.97 3076.81 1473.04 3076.81 1466.97 3076.81 1460.89 3081.74 1455.97 3087.81 1455.97 3093.89 1455.97 3098.81 1460.89 3098.81 1466.97Z" stroke="#4F81BD" stroke-width="3.4375" stroke-linejoin="round" stroke-miterlimit="10" fill="#4F81BD"/><path d="M3152.81 1507.97C3152.81 1514.04 3147.89 1518.97 3141.81 1518.97 3135.74 1518.97 3130.81 1514.04 3130.81 1507.97 3130.81 1501.89 3135.74 1496.97 3141.81 1496.97 3147.89 1496.97 3152.81 1501.89 3152.81 1507.97Z" stroke="#4F81BD" stroke-width="3.4375" stroke-linejoin="round" stroke-miterlimit="10" fill="#4F81BD"/><path d="M3207.81 1564.97C3207.81 1571.04 3202.89 1575.97 3196.81 1575.97 3190.74 1575.97 3185.81 1571.04 3185.81 1564.97 3185.81 1558.89 3190.74 1553.97 3196.81 1553.97 3202.89 1553.97 3207.81 1558.89 3207.81 1564.97Z" stroke="#4F81BD" stroke-width="3.4375" stroke-linejoin="round" stroke-miterlimit="10" fill="#4F81BD"/><path d="M3261.81 1643.97C3261.81 1650.04 3256.89 1654.97 3250.81 1654.97 3244.74 1654.97 3239.81 1650.04 3239.81 1643.97 3239.81 1637.89 3244.74 1632.97 3250.81 1632.97 3256.89 1632.97 3261.81 1637.89 3261.81 1643.97Z" stroke="#4F81BD" stroke-width="3.4375" stroke-linejoin="round" stroke-miterlimit="10" fill="#4F81BD"/><path d="M3316.81 1737.97C3316.81 1744.04 3311.89 1748.97 3305.81 1748.97 3299.74 1748.97 3294.81 1744.04 3294.81 1737.97 3294.81 1731.89 3299.74 1726.97 3305.81 1726.97 3311.89 1726.97 3316.81 1731.89 3316.81 1737.97Z" stroke="#4F81BD" stroke-width="3.4375" stroke-linejoin="round" stroke-miterlimit="10" fill="#4F81BD"/><path d="M3370.81 1832.97C3370.81 1839.04 3365.89 1843.97 3359.81 1843.97 3353.74 1843.97 3348.81 1839.04 3348.81 1832.97 3348.81 1826.89 3353.74 1821.97 3359.81 1821.97 3365.89 1821.97 3370.81 1826.89 3370.81 1832.97Z" stroke="#4F81BD" stroke-width="3.4375" stroke-linejoin="round" stroke-miterlimit="10" fill="#4F81BD"/><path d="M3425.81 1910.97C3425.81 1917.04 3420.89 1921.97 3414.81 1921.97 3408.74 1921.97 3403.81 1917.04 3403.81 1910.97 3403.81 1904.89 3408.74 1899.97 3414.81 1899.97 3420.89 1899.97 3425.81 1904.89 3425.81 1910.97Z" stroke="#4F81BD" stroke-width="3.4375" stroke-linejoin="round" stroke-miterlimit="10" fill="#4F81BD"/><path d="M3479.81 1968.97C3479.81 1975.04 3474.89 1979.97 3468.81 1979.97 3462.74 1979.97 3457.81 1975.04 3457.81 1968.97 3457.81 1962.89 3462.74 1957.97 3468.81 1957.97 3474.89 1957.97 3479.81 1962.89 3479.81 1968.97Z" stroke="#4F81BD" stroke-width="3.4375" stroke-linejoin="round" stroke-miterlimit="10" fill="#4F81BD"/><path d="M3533.81 2008.97C3533.81 2015.04 3528.89 2019.97 3522.81 2019.97 3516.74 2019.97 3511.81 2015.04 3511.81 2008.97 3511.81 2002.89 3516.74 1997.97 3522.81 1997.97 3528.89 1997.97 3533.81 2002.89 3533.81 2008.97Z" stroke="#4F81BD" stroke-width="3.4375" stroke-linejoin="round" stroke-miterlimit="10" fill="#4F81BD"/><path d="M3588.81 2036.97C3588.81 2043.04 3583.89 2047.97 3577.81 2047.97 3571.74 2047.97 3566.81 2043.04 3566.81 2036.97 3566.81 2030.89 3571.74 2025.97 3577.81 2025.97 3583.89 2025.97 3588.81 2030.89 3588.81 2036.97Z" stroke="#4F81BD" stroke-width="3.4375" stroke-linejoin="round" stroke-miterlimit="10" fill="#4F81BD"/><path d="M3642.81 2055.97C3642.81 2062.04 3637.89 2066.97 3631.81 2066.97 3625.74 2066.97 3620.81 2062.04 3620.81 2055.97 3620.81 2049.89 3625.74 2044.97 3631.81 2044.97 3637.89 2044.97 3642.81 2049.89 3642.81 2055.97Z" stroke="#4F81BD" stroke-width="3.4375" stroke-linejoin="round" stroke-miterlimit="10" fill="#4F81BD"/><path d="M3697.81 2066.97C3697.81 2073.04 3692.89 2077.97 3686.81 2077.97 3680.74 2077.97 3675.81 2073.04 3675.81 2066.97 3675.81 2060.89 3680.74 2055.97 3686.81 2055.97 3692.89 2055.97 3697.81 2060.89 3697.81 2066.97Z" stroke="#4F81BD" stroke-width="3.4375" stroke-linejoin="round" stroke-miterlimit="10" fill="#4F81BD"/><path d="M3751.81 2073.97C3751.81 2080.04 3746.89 2084.97 3740.81 2084.97 3734.74 2084.97 3729.81 2080.04 3729.81 2073.97 3729.81 2067.89 3734.74 2062.97 3740.81 2062.97 3746.89 2062.97 3751.81 2067.89 3751.81 2073.97Z" stroke="#4F81BD" stroke-width="3.4375" stroke-linejoin="round" stroke-miterlimit="10" fill="#4F81BD"/><path d="M3806.81 2075.97C3806.81 2082.04 3801.89 2086.97 3795.81 2086.97 3789.74 2086.97 3784.81 2082.04 3784.81 2075.97 3784.81 2069.89 3789.74 2064.97 3795.81 2064.97 3801.89 2064.97 3806.81 2069.89 3806.81 2075.97Z" stroke="#4F81BD" stroke-width="3.4375" stroke-linejoin="round" stroke-miterlimit="10" fill="#4F81BD"/><path d="M3860.81 2073.97C3860.81 2080.04 3855.89 2084.97 3849.81 2084.97 3843.74 2084.97 3838.81 2080.04 3838.81 2073.97 3838.81 2067.89 3843.74 2062.97 3849.81 2062.97 3855.89 2062.97 3860.81 2067.89 3860.81 2073.97Z" stroke="#4F81BD" stroke-width="3.4375" stroke-linejoin="round" stroke-miterlimit="10" fill="#4F81BD"/><path d="M3915.81 2066.97C3915.81 2073.04 3910.89 2077.97 3904.81 2077.97 3898.74 2077.97 3893.81 2073.04 3893.81 2066.97 3893.81 2060.89 3898.74 2055.97 3904.81 2055.97 3910.89 2055.97 3915.81 2060.89 3915.81 2066.97Z" stroke="#4F81BD" stroke-width="3.4375" stroke-linejoin="round" stroke-miterlimit="10" fill="#4F81BD"/><path d="M3969.81 2055.97C3969.81 2062.04 3964.89 2066.97 3958.81 2066.97 3952.74 2066.97 3947.81 2062.04 3947.81 2055.97 3947.81 2049.89 3952.74 2044.97 3958.81 2044.97 3964.89 2044.97 3969.81 2049.89 3969.81 2055.97Z" stroke="#4F81BD" stroke-width="3.4375" stroke-linejoin="round" stroke-miterlimit="10" fill="#4F81BD"/><path d="M4024.81 2036.97C4024.81 2043.04 4019.89 2047.97 4013.81 2047.97 4007.74 2047.97 4002.81 2043.04 4002.81 2036.97 4002.81 2030.89 4007.74 2025.97 4013.81 2025.97 4019.89 2025.97 4024.81 2030.89 4024.81 2036.97Z" stroke="#4F81BD" stroke-width="3.4375" stroke-linejoin="round" stroke-miterlimit="10" fill="#4F81BD"/><path d="M4078.81 2008.97C4078.81 2015.04 4073.89 2019.97 4067.81 2019.97 4061.74 2019.97 4056.81 2015.04 4056.81 2008.97 4056.81 2002.89 4061.74 1997.97 4067.81 1997.97 4073.89 1997.97 4078.81 2002.89 4078.81 2008.97Z" stroke="#4F81BD" stroke-width="3.4375" stroke-linejoin="round" stroke-miterlimit="10" fill="#4F81BD"/><path d="M4132.81 1968.97C4132.81 1975.04 4127.89 1979.97 4121.81 1979.97 4115.74 1979.97 4110.81 1975.04 4110.81 1968.97 4110.81 1962.89 4115.74 1957.97 4121.81 1957.97 4127.89 1957.97 4132.81 1962.89 4132.81 1968.97Z" stroke="#4F81BD" stroke-width="3.4375" stroke-linejoin="round" stroke-miterlimit="10" fill="#4F81BD"/><path d="M4187.81 1910.97C4187.81 1917.04 4182.89 1921.97 4176.81 1921.97 4170.74 1921.97 4165.81 1917.04 4165.81 1910.97 4165.81 1904.89 4170.74 1899.97 4176.81 1899.97 4182.89 1899.97 4187.81 1904.89 4187.81 1910.97Z" stroke="#4F81BD" stroke-width="3.4375" stroke-linejoin="round" stroke-miterlimit="10" fill="#4F81BD"/><path d="M4241.81 1832.97C4241.81 1839.04 4236.89 1843.97 4230.81 1843.97 4224.74 1843.97 4219.81 1839.04 4219.81 1832.97 4219.81 1826.89 4224.74 1821.97 4230.81 1821.97 4236.89 1821.97 4241.81 1826.89 4241.81 1832.97Z" stroke="#4F81BD" stroke-width="3.4375" stroke-linejoin="round" stroke-miterlimit="10" fill="#4F81BD"/><path d="M4296.81 1737.97C4296.81 1744.04 4291.89 1748.97 4285.81 1748.97 4279.74 1748.97 4274.81 1744.04 4274.81 1737.97 4274.81 1731.89 4279.74 1726.97 4285.81 1726.97 4291.89 1726.97 4296.81 1731.89 4296.81 1737.97Z" stroke="#4F81BD" stroke-width="3.4375" stroke-linejoin="round" stroke-miterlimit="10" fill="#4F81BD"/><path d="M4350.81 1643.97C4350.81 1650.04 4345.89 1654.97 4339.81 1654.97 4333.74 1654.97 4328.81 1650.04 4328.81 1643.97 4328.81 1637.89 4333.74 1632.97 4339.81 1632.97 4345.89 1632.97 4350.81 1637.89 4350.81 1643.97Z" stroke="#4F81BD" stroke-width="3.4375" stroke-linejoin="round" stroke-miterlimit="10" fill="#4F81BD"/><path d="M4405.81 1564.97C4405.81 1571.04 4400.89 1575.97 4394.81 1575.97 4388.74 1575.97 4383.81 1571.04 4383.81 1564.97 4383.81 1558.89 4388.74 1553.97 4394.81 1553.97 4400.89 1553.97 4405.81 1558.89 4405.81 1564.97Z" stroke="#4F81BD" stroke-width="3.4375" stroke-linejoin="round" stroke-miterlimit="10" fill="#4F81BD"/><path d="M4459.81 1507.97C4459.81 1514.04 4454.89 1518.97 4448.81 1518.97 4442.74 1518.97 4437.81 1514.04 4437.81 1507.97 4437.81 1501.89 4442.74 1496.97 4448.81 1496.97 4454.89 1496.97 4459.81 1501.89 4459.81 1507.97Z" stroke="#4F81BD" stroke-width="3.4375" stroke-linejoin="round" stroke-miterlimit="10" fill="#4F81BD"/><path d="M4514.81 1466.97C4514.81 1473.04 4509.89 1477.97 4503.81 1477.97 4497.74 1477.97 4492.81 1473.04 4492.81 1466.97 4492.81 1460.89 4497.74 1455.97 4503.81 1455.97 4509.89 1455.97 4514.81 1460.89 4514.81 1466.97Z" stroke="#4F81BD" stroke-width="3.4375" stroke-linejoin="round" stroke-miterlimit="10" fill="#4F81BD"/><path d="M4568.81 1439.97C4568.81 1446.04 4563.89 1450.97 4557.81 1450.97 4551.74 1450.97 4546.81 1446.04 4546.81 1439.97 4546.81 1433.89 4551.74 1428.97 4557.81 1428.97 4563.89 1428.97 4568.81 1433.89 4568.81 1439.97Z" stroke="#4F81BD" stroke-width="3.4375" stroke-linejoin="round" stroke-miterlimit="10" fill="#4F81BD"/><path d="M4623.81 1420.97C4623.81 1427.04 4618.89 1431.97 4612.81 1431.97 4606.74 1431.97 4601.81 1427.04 4601.81 1420.97 4601.81 1414.89 4606.74 1409.97 4612.81 1409.97 4618.89 1409.97 4623.81 1414.89 4623.81 1420.97Z" stroke="#4F81BD" stroke-width="3.4375" stroke-linejoin="round" stroke-miterlimit="10" fill="#4F81BD"/><path d="M4677.81 1408.97C4677.81 1415.04 4672.89 1419.97 4666.81 1419.97 4660.74 1419.97 4655.81 1415.04 4655.81 1408.97 4655.81 1402.89 4660.74 1397.97 4666.81 1397.97 4672.89 1397.97 4677.81 1402.89 4677.81 1408.97Z" stroke="#4F81BD" stroke-width="3.4375" stroke-linejoin="round" stroke-miterlimit="10" fill="#4F81BD"/><path d="M4731.81 1401.97C4731.81 1408.04 4726.89 1412.97 4720.81 1412.97 4714.74 1412.97 4709.81 1408.04 4709.81 1401.97 4709.81 1395.89 4714.74 1390.97 4720.81 1390.97 4726.89 1390.97 4731.81 1395.89 4731.81 1401.97Z" stroke="#4F81BD" stroke-width="3.4375" stroke-linejoin="round" stroke-miterlimit="10" fill="#4F81BD"/><path d="M4786.81 1399.97C4786.81 1406.04 4781.89 1410.97 4775.81 1410.97 4769.74 1410.97 4764.81 1406.04 4764.81 1399.97 4764.81 1393.89 4769.74 1388.97 4775.81 1388.97 4781.89 1388.97 4786.81 1393.89 4786.81 1399.97Z" stroke="#4F81BD" stroke-width="3.4375" stroke-linejoin="round" stroke-miterlimit="10" fill="#4F81BD"/></g><g clip-path="url(#clip7)"><text fill="#595959" font-family="Calibri,Calibri_MSFontService,sans-serif" font-weight="400" font-size="41" transform="matrix(1 0 0 1 2722.29 2256)">-90</text></g><g clip-path="url(#clip8)"><text fill="#595959" font-family="Calibri,Calibri_MSFontService,sans-serif" font-weight="400" font-size="41" transform="matrix(1 0 0 1 2722.29 2172)">-75</text></g><g clip-path="url(#clip9)"><text fill="#595959" font-family="Calibri,Calibri_MSFontService,sans-serif" font-weight="400" font-size="41" transform="matrix(1 0 0 1 2722.29 2087)">-60</text></g><g clip-path="url(#clip10)"><text fill="#595959" font-family="Calibri,Calibri_MSFontService,sans-serif" font-weight="400" font-size="41" transform="matrix(1 0 0 1 2722.29 2003)">-45</text></g><g clip-path="url(#clip11)"><text fill="#595959" font-family="Calibri,Calibri_MSFontService,sans-serif" font-weight="400" font-size="41" transform="matrix(1 0 0 1 2722.29 1918)">-30</text></g><g clip-path="url(#clip12)"><text fill="#595959" font-family="Calibri,Calibri_MSFontService,sans-serif" font-weight="400" font-size="41" transform="matrix(1 0 0 1 2722.29 1834)">-15</text></g><g clip-path="url(#clip13)"><text fill="#595959" font-family="Calibri,Calibri_MSFontService,sans-serif" font-weight="400" font-size="41" transform="matrix(1 0 0 1 2755.82 1749)">0</text></g><g clip-path="url(#clip14)"><text fill="#595959" font-family="Calibri,Calibri_MSFontService,sans-serif" font-weight="400" font-size="41" transform="matrix(1 0 0 1 2734.92 1665)">15</text></g><g clip-path="url(#clip15)"><text fill="#595959" font-family="Calibri,Calibri_MSFontService,sans-serif" font-weight="400" font-size="41" transform="matrix(1 0 0 1 2734.92 1580)">30</text></g><g clip-path="url(#clip16)"><text fill="#595959" font-family="Calibri,Calibri_MSFontService,sans-serif" font-weight="400" font-size="41" transform="matrix(1 0 0 1 2734.92 1496)">45</text></g><g clip-path="url(#clip17)"><text fill="#595959" font-family="Calibri,Calibri_MSFontService,sans-serif" font-weight="400" font-size="41" transform="matrix(1 0 0 1 2734.92 1411)">60</text></g><g clip-path="url(#clip18)"><text fill="#595959" font-family="Calibri,Calibri_MSFontService,sans-serif" font-weight="400" font-size="41" transform="matrix(1 0 0 1 2734.92 1327)">75</text></g><g clip-path="url(#clip19)"><text fill="#595959" font-family="Calibri,Calibri_MSFontService,sans-serif" font-weight="400" font-size="41" transform="matrix(1 0 0 1 2734.92 1242)">90</text></g><g clip-path="url(#clip20)"><text fill="#595959" font-family="Calibri,Calibri_MSFontService,sans-serif" font-weight="400" font-size="41" transform="matrix(1 0 0 1 2804.54 1803)">0</text></g><g clip-path="url(#clip21)"><text fill="#595959" font-family="Calibri,Calibri_MSFontService,sans-serif" font-weight="400" font-size="41" transform="matrix(1 0 0 1 2957.46 1803)">30</text></g><g clip-path="url(#clip22)"><text fill="#595959" font-family="Calibri,Calibri_MSFontService,sans-serif" font-weight="400" font-size="41" transform="matrix(1 0 0 1 3120.83 1803)">60</text></g><g clip-path="url(#clip23)"><text fill="#595959" font-family="Calibri,Calibri_MSFontService,sans-serif" font-weight="400" font-size="41" transform="matrix(1 0 0 1 3284.2 1803)">90</text></g><g clip-path="url(#clip24)"><text fill="#595959" font-family="Calibri,Calibri_MSFontService,sans-serif" font-weight="400" font-size="41" transform="matrix(1 0 0 1 3437.11 1803)">120</text></g><g clip-path="url(#clip25)"><text fill="#595959" font-family="Calibri,Calibri_MSFontService,sans-serif" font-weight="400" font-size="41" transform="matrix(1 0 0 1 3600.48 1803)">150</text></g><g clip-path="url(#clip26)"><text fill="#595959" font-family="Calibri,Calibri_MSFontService,sans-serif" font-weight="400" font-size="41" transform="matrix(1 0 0 1 3763.85 1803)">180</text></g><g clip-path="url(#clip27)"><text fill="#595959" font-family="Calibri,Calibri_MSFontService,sans-serif" font-weight="400" font-size="41" transform="matrix(1 0 0 1 3927.22 1803)">210</text></g><g clip-path="url(#clip28)"><text fill="#595959" font-family="Calibri,Calibri_MSFontService,sans-serif" font-weight="400" font-size="41" transform="matrix(1 0 0 1 4090.59 1803)">240</text></g><g clip-path="url(#clip29)"><text fill="#595959" font-family="Calibri,Calibri_MSFontService,sans-serif" font-weight="400" font-size="41" transform="matrix(1 0 0 1 4253.96 1803)">270</text></g><g clip-path="url(#clip30)"><text fill="#595959" font-family="Calibri,Calibri_MSFontService,sans-serif" font-weight="400" font-size="41" transform="matrix(1 0 0 1 4417.33 1803)">300</text></g><g clip-path="url(#clip31)"><text fill="#595959" font-family="Calibri,Calibri_MSFontService,sans-serif" font-weight="400" font-size="41" transform="matrix(1 0 0 1 4580.7 1803)">330</text></g><g clip-path="url(#clip32)"><text fill="#595959" font-family="Calibri,Calibri_MSFontService,sans-serif" font-weight="400" font-size="41" transform="matrix(1 0 0 1 4744.07 1803)">360</text></g><g clip-path="url(#clip33)"><text fill="#595959" font-family="Calibri,Calibri_MSFontService,sans-serif" font-weight="400" font-size="46" transform="matrix(6.12323e-17 -1 1 6.12323e-17 2696.6 1941)">Geografische Breite </text></g><g clip-path="url(#clip34)"><text fill="#595959" font-family="Calibri,Calibri_MSFontService,sans-serif" font-weight="400" font-size="46" transform="matrix(6.12323e-17 -1 1 6.12323e-17 2696.6 1564)">ϕ</text></g><g clip-path="url(#clip35)"><text fill="#595959" font-family="Calibri,Calibri_MSFontService,sans-serif" font-weight="400" font-size="46" transform="matrix(1 0 0 1 3597.35 2296)">Geografische Länge </text></g><g clip-path="url(#clip36)"><text fill="#595959" font-family="Calibri,Calibri_MSFontService,sans-serif" font-weight="400" font-size="46" transform="matrix(1 0 0 1 3971.83 2296)">λ</text></g><g clip-path="url(#clip37)"><text fill="#595959" font-family="Calibri,Calibri_MSFontService,sans-serif" font-weight="400" font-size="64" transform="matrix(1 0 0 1 3169.29 1156)">Großkreis auf der Erde (Scheitel bei </text></g><g clip-path="url(#clip38)"><text fill="#595959" font-family="Calibri,Calibri_MSFontService,sans-serif" font-weight="400" font-size="64" transform="matrix(1 0 0 1 4103.03 1156)">ϕ</text></g><g clip-path="url(#clip39)"><text fill="#595959" font-family="Calibri,Calibri_MSFontService,sans-serif" font-weight="400" font-size="64" transform="matrix(1 0 0 1 4144.99 1156)">=60</text></g><g clip-path="url(#clip40)"><text fill="#595959" font-family="Calibri,Calibri_MSFontService,sans-serif" font-weight="400" font-size="64" transform="matrix(1 0 0 1 4242 1156)">°</text></g><g clip-path="url(#clip41)"><text fill="#595959" font-family="Calibri,Calibri_MSFontService,sans-serif" font-weight="400" font-size="64" transform="matrix(1 0 0 1 4263.75 1156)">)</text></g><rect x="2595.5" y="1060.5" width="2262" height="1305" stroke="#D9D9D9" stroke-width="3.4375" stroke-linejoin="round" stroke-miterlimit="10" fill="none"/></g></svg>