<?xml version="1.0" encoding="UTF-8" standalone="no"?>
<svg
   xmlns:dc="http://purl.org/dc/elements/1.1/"
   xmlns:cc="http://creativecommons.org/ns#"
   xmlns:rdf="http://www.w3.org/1999/02/22-rdf-syntax-ns#"
   xmlns:svg="http://www.w3.org/2000/svg"
   xmlns="http://www.w3.org/2000/svg"
   xmlns:sodipodi="http://sodipodi.sourceforge.net/DTD/sodipodi-0.dtd"
   xmlns:inkscape="http://www.inkscape.org/namespaces/inkscape"
   version="1.1"
   id="LinsenFernrohrTypen"
   x="0px"
   y="0px"
   width="400"
   height="220"
   viewBox="0 0 400 220"
   enable-background="new 0 0 400 380"
   xml:space="preserve"
   inkscape:version="0.91 r13725"
   sodipodi:docname="KeplerFernrohr.svg"><metadata
     id="metadata200"><rdf:RDF><cc:Work
         rdf:about=""><dc:format>image/svg+xml</dc:format><dc:type
           rdf:resource="http://purl.org/dc/dcmitype/StillImage" /><dc:title></dc:title></cc:Work></rdf:RDF></metadata><defs
     id="defs198" /><sodipodi:namedview
     pagecolor="#ffffff"
     bordercolor="#666666"
     borderopacity="1"
     objecttolerance="10"
     gridtolerance="10"
     guidetolerance="10"
     inkscape:pageopacity="0"
     inkscape:pageshadow="2"
     inkscape:window-width="1348"
     inkscape:window-height="778"
     id="namedview196"
     showgrid="false"
     inkscape:zoom="1.2421053"
     inkscape:cx="76.260106"
     inkscape:cy="38.588136"
     inkscape:window-x="0"
     inkscape:window-y="0"
     inkscape:window-maximized="0"
     inkscape:current-layer="LinsenFernrohrTypen" /><g
     id="KeplerFernrohr"
     transform="translate(0,-176)"><g
       id="Skizze_1_"><line
         id="optischeAchse_1_"
         x1="13.25"
         y1="292.29199"
         x2="386.75"
         y2="292.29199"
         style="fill:none;stroke:#000000;stroke-width:0.5;stroke-dasharray:3" /><polyline
         id="StrahlUnten_1_"
         points="13.25,346.154 41.076,346.154 49.774,344.965     355.562,265.021 363.289,263.975 386.75,263.975   "
         style="fill:none;stroke:#f7931e" /><polyline
         id="StrahlOben_1_"
         points="13.25,238.43 41.076,238.43 49.778,239.62 355.563,319.563     363.289,320.609 386.75,320.609   "
         style="fill:none;stroke:#f7931e" /><polygon
         id="PfeilSpitze_4_"
         points="28.396,238.385 19.596,241.67 20.357,238.43 19.597,235.189 "
         style="fill:#f7931e" /><polygon
         id="PfeilSpitze_3_"
         points="28.396,346.109 19.596,349.395 20.357,346.154 19.597,342.914 "
         style="fill:#f7931e" /><g
         id="Linse_2_"><path
           id="Fuellung_1_"
           d="m 359.565,253.975 c -9.579,19.159 -9.579,57.477 0,76.635 9.58,-19.159 9.58,-57.476 0,-76.635 z"
           inkscape:connector-curvature="0"
           style="opacity:0.3;fill:#cccccc" /><path
           id="Kontur_1_"
           d="m 359.565,253.975 c -9.579,19.159 -9.579,57.477 0,76.635 9.58,-19.159 9.58,-57.476 0,-76.635 z"
           inkscape:connector-curvature="0"
           style="fill:none;stroke:#000000;stroke-width:0.5" /></g><g
         id="Linse_1_"><path
           id="Fuellung_3_"
           d="m 45.225,228.43 c -15.966,31.932 -15.966,95.794 0,127.725 15.964,-31.931 15.964,-95.794 0,-127.725 z"
           inkscape:connector-curvature="0"
           style="opacity:0.3;fill:#cccccc" /><path
           id="Kontur_3_"
           d="m 45.225,228.43 c -15.966,31.932 -15.966,95.794 0,127.725 15.964,-31.931 15.964,-95.794 0,-127.725 z"
           inkscape:connector-curvature="0"
           style="fill:none;stroke:#000000;stroke-width:0.5" /></g></g><g
       id="Beschriftung_1_"><g
         id="g18"><path
           d="m 348.207,339.477 c 0,0.401 -0.037,0.85 -0.109,1.344 -0.074,0.495 -0.195,0.998 -0.367,1.508 -0.172,0.511 -0.4,1.007 -0.684,1.488 -0.285,0.482 -0.635,0.909 -1.051,1.281 -0.418,0.373 -0.912,0.674 -1.484,0.902 -0.574,0.229 -1.23,0.344 -1.969,0.344 -0.594,0 -1.115,-0.074 -1.563,-0.223 -0.449,-0.148 -0.822,-0.369 -1.121,-0.664 -0.301,-0.294 -0.525,-0.657 -0.676,-1.09 -0.152,-0.432 -0.227,-0.932 -0.227,-1.5 0,-0.447 0.039,-0.93 0.117,-1.445 0.078,-0.515 0.207,-1.029 0.387,-1.543 0.18,-0.513 0.414,-1.006 0.703,-1.48 0.289,-0.474 0.643,-0.895 1.063,-1.262 0.418,-0.367 0.91,-0.658 1.473,-0.875 0.563,-0.216 1.207,-0.324 1.938,-0.324 0.588,0 1.105,0.077 1.551,0.23 0.445,0.154 0.816,0.381 1.117,0.68 0.299,0.3 0.523,0.67 0.676,1.109 0.15,0.44 0.226,0.947 0.226,1.52 z m -1.437,0.093 c 0,-0.364 -0.043,-0.699 -0.125,-1.004 -0.084,-0.305 -0.217,-0.566 -0.398,-0.785 -0.184,-0.219 -0.426,-0.389 -0.727,-0.512 -0.303,-0.122 -0.668,-0.184 -1.094,-0.184 -0.543,0 -1.018,0.101 -1.426,0.301 -0.41,0.201 -0.764,0.463 -1.063,0.785 -0.301,0.323 -0.547,0.689 -0.742,1.098 -0.195,0.409 -0.352,0.822 -0.469,1.238 -0.117,0.417 -0.201,0.82 -0.25,1.211 -0.051,0.391 -0.074,0.729 -0.074,1.016 0,0.37 0.039,0.705 0.121,1.004 0.08,0.3 0.215,0.557 0.402,0.77 0.188,0.214 0.43,0.379 0.73,0.496 0.299,0.117 0.664,0.176 1.098,0.176 0.535,0 1.008,-0.098 1.414,-0.293 0.406,-0.195 0.758,-0.451 1.055,-0.77 0.297,-0.317 0.543,-0.678 0.742,-1.082 0.197,-0.403 0.355,-0.813 0.477,-1.227 0.119,-0.414 0.203,-0.816 0.254,-1.207 0.049,-0.39 0.075,-0.734 0.075,-1.031 z"
           id="path20"
           inkscape:connector-curvature="0" /><path
           d="m 355.934,338.945 c 0,0.063 -0.023,0.128 -0.066,0.195 -0.045,0.068 -0.133,0.162 -0.262,0.281 l -3.055,2.617 2.102,3.539 c 0.051,0.094 0.088,0.174 0.109,0.238 0.02,0.065 0.031,0.116 0.031,0.152 0,0.047 -0.012,0.088 -0.031,0.121 -0.021,0.034 -0.059,0.062 -0.113,0.082 -0.055,0.021 -0.129,0.037 -0.219,0.051 -0.092,0.013 -0.205,0.02 -0.34,0.02 -0.146,0 -0.262,-0.004 -0.344,-0.012 -0.084,-0.008 -0.152,-0.022 -0.203,-0.043 -0.053,-0.021 -0.092,-0.047 -0.117,-0.078 -0.027,-0.031 -0.051,-0.07 -0.07,-0.117 l -2.25,-3.891 -0.774,3.9 c -0.012,0.042 -0.029,0.077 -0.055,0.105 -0.027,0.029 -0.066,0.054 -0.121,0.074 -0.055,0.02 -0.125,0.036 -0.211,0.047 -0.086,0.01 -0.191,0.016 -0.316,0.016 -0.125,0 -0.229,-0.006 -0.309,-0.016 -0.082,-0.011 -0.145,-0.025 -0.188,-0.043 -0.045,-0.018 -0.074,-0.043 -0.09,-0.074 -0.016,-0.031 -0.02,-0.067 -0.008,-0.109 l 2.086,-10.438 c 0.01,-0.041 0.027,-0.078 0.051,-0.109 0.024,-0.031 0.063,-0.057 0.117,-0.078 0.055,-0.021 0.125,-0.036 0.211,-0.047 0.086,-0.01 0.193,-0.016 0.324,-0.016 0.125,0 0.227,0.006 0.309,0.016 0.08,0.011 0.143,0.026 0.188,0.047 0.043,0.021 0.07,0.047 0.082,0.078 0.01,0.031 0.012,0.068 0.008,0.109 l -1.273,6.359 3.258,-2.945 c 0.041,-0.047 0.088,-0.087 0.141,-0.121 0.051,-0.033 0.111,-0.06 0.18,-0.078 0.066,-0.018 0.146,-0.031 0.238,-0.039 0.09,-0.008 0.199,-0.012 0.324,-0.012 0.125,0 0.23,0.004 0.316,0.012 0.086,0.008 0.152,0.021 0.203,0.039 0.049,0.019 0.084,0.042 0.105,0.07 0.02,0.03 0.032,0.062 0.032,0.098 z"
           id="path22"
           inkscape:connector-curvature="0" /><path
           d="m 361.801,346 c -0.006,0.042 -0.021,0.078 -0.047,0.109 -0.027,0.031 -0.063,0.057 -0.109,0.074 -0.046,0.017 -0.109,0.032 -0.184,0.043 -0.076,0.01 -0.168,0.016 -0.277,0.016 -0.105,0 -0.191,-0.006 -0.262,-0.016 -0.07,-0.011 -0.125,-0.025 -0.164,-0.043 -0.039,-0.018 -0.066,-0.043 -0.078,-0.074 -0.014,-0.031 -0.016,-0.067 -0.004,-0.109 l 0.258,-1.32 c -0.084,0.178 -0.215,0.363 -0.395,0.559 -0.18,0.196 -0.391,0.377 -0.633,0.543 -0.242,0.167 -0.508,0.303 -0.797,0.406 -0.289,0.103 -0.582,0.156 -0.879,0.156 -0.355,0 -0.652,-0.049 -0.895,-0.145 -0.243,-0.096 -0.438,-0.229 -0.586,-0.398 -0.148,-0.169 -0.256,-0.369 -0.32,-0.602 -0.066,-0.231 -0.098,-0.485 -0.098,-0.762 0,-0.172 0.012,-0.348 0.035,-0.527 0.023,-0.179 0.053,-0.36 0.09,-0.543 l 0.867,-4.406 c 0.01,-0.036 0.027,-0.07 0.055,-0.102 0.025,-0.031 0.066,-0.057 0.121,-0.078 0.055,-0.021 0.125,-0.035 0.211,-0.043 0.086,-0.008 0.191,-0.012 0.316,-0.012 0.125,0 0.227,0.004 0.309,0.012 0.08,0.008 0.143,0.022 0.188,0.043 0.043,0.021 0.072,0.047 0.086,0.078 0.012,0.031 0.016,0.065 0.012,0.102 l -0.859,4.359 c -0.031,0.136 -0.055,0.276 -0.07,0.422 -0.016,0.146 -0.023,0.295 -0.023,0.445 0,0.156 0.014,0.299 0.043,0.426 0.027,0.128 0.078,0.238 0.148,0.332 0.07,0.094 0.16,0.167 0.273,0.219 0.111,0.053 0.248,0.078 0.41,0.078 0.275,0 0.559,-0.079 0.848,-0.238 0.289,-0.158 0.559,-0.379 0.809,-0.66 0.25,-0.281 0.473,-0.615 0.668,-1.004 0.195,-0.388 0.34,-0.811 0.434,-1.27 l 0.617,-3.109 c 0.004,-0.036 0.021,-0.07 0.051,-0.102 0.027,-0.031 0.07,-0.057 0.125,-0.078 0.055,-0.021 0.125,-0.035 0.211,-0.043 0.086,-0.008 0.191,-0.012 0.316,-0.012 0.125,0 0.227,0.004 0.309,0.012 0.08,0.008 0.143,0.022 0.188,0.043 0.043,0.021 0.072,0.047 0.086,0.078 0.012,0.031 0.016,0.065 0.012,0.102 L 361.801,346 Z"
           id="path24"
           inkscape:connector-curvature="0" /><path
           d="m 365.48,346 c -0.012,0.042 -0.029,0.077 -0.055,0.105 -0.027,0.029 -0.066,0.054 -0.117,0.074 -0.053,0.021 -0.121,0.036 -0.207,0.047 -0.086,0.01 -0.191,0.016 -0.316,0.016 -0.131,0 -0.236,-0.006 -0.316,-0.016 -0.082,-0.011 -0.145,-0.026 -0.188,-0.047 -0.045,-0.021 -0.074,-0.045 -0.086,-0.074 -0.014,-0.028 -0.016,-0.063 -0.004,-0.105 l 2.078,-10.438 c 0.01,-0.041 0.027,-0.078 0.051,-0.109 0.024,-0.031 0.063,-0.057 0.117,-0.078 0.055,-0.021 0.125,-0.036 0.211,-0.047 0.086,-0.01 0.193,-0.016 0.324,-0.016 0.125,0 0.227,0.006 0.309,0.016 0.08,0.011 0.143,0.026 0.188,0.047 0.043,0.021 0.07,0.047 0.082,0.078 0.01,0.031 0.012,0.068 0.008,0.109 L 365.48,346 Z"
           id="path26"
           inkscape:connector-curvature="0" /><path
           d="m 373.699,346 c -0.021,0.089 -0.078,0.151 -0.172,0.188 -0.094,0.037 -0.25,0.055 -0.469,0.055 -0.105,0 -0.191,-0.006 -0.258,-0.016 -0.068,-0.011 -0.123,-0.025 -0.164,-0.043 -0.043,-0.018 -0.07,-0.041 -0.086,-0.07 -0.016,-0.028 -0.016,-0.066 0,-0.113 l 0.258,-1.328 c -0.068,0.167 -0.191,0.35 -0.367,0.547 -0.178,0.198 -0.387,0.381 -0.629,0.547 -0.242,0.167 -0.512,0.305 -0.809,0.414 -0.297,0.109 -0.6,0.164 -0.906,0.164 -0.418,0 -0.762,-0.073 -1.035,-0.219 -0.273,-0.146 -0.492,-0.338 -0.652,-0.578 -0.162,-0.239 -0.273,-0.51 -0.332,-0.813 -0.061,-0.302 -0.09,-0.611 -0.09,-0.93 0,-0.291 0.027,-0.622 0.082,-0.992 0.055,-0.369 0.143,-0.747 0.266,-1.133 0.121,-0.385 0.281,-0.76 0.477,-1.125 0.195,-0.364 0.43,-0.691 0.707,-0.98 0.275,-0.289 0.596,-0.521 0.961,-0.695 0.363,-0.174 0.777,-0.262 1.242,-0.262 0.463,0 0.859,0.094 1.191,0.281 0.33,0.188 0.625,0.445 0.887,0.773 l 0.148,-0.711 c 0.02,-0.083 0.08,-0.143 0.18,-0.18 0.098,-0.036 0.252,-0.055 0.461,-0.055 0.104,0 0.191,0.004 0.262,0.012 0.071,0.008 0.125,0.022 0.168,0.043 0.041,0.021 0.066,0.047 0.078,0.078 0.01,0.031 0.012,0.065 0.008,0.102 L 373.699,346 Z m -0.242,-5.195 c -0.246,-0.359 -0.51,-0.629 -0.793,-0.809 -0.285,-0.18 -0.604,-0.27 -0.957,-0.27 -0.281,0 -0.535,0.066 -0.762,0.199 -0.227,0.133 -0.428,0.309 -0.602,0.527 -0.176,0.219 -0.326,0.468 -0.453,0.746 -0.129,0.279 -0.232,0.566 -0.313,0.863 -0.082,0.297 -0.141,0.589 -0.18,0.875 -0.039,0.287 -0.059,0.545 -0.059,0.773 0,0.183 0.014,0.363 0.043,0.543 0.027,0.18 0.082,0.344 0.164,0.492 0.08,0.148 0.191,0.269 0.332,0.359 0.141,0.092 0.322,0.137 0.547,0.137 0.285,0 0.574,-0.079 0.863,-0.238 0.289,-0.158 0.559,-0.379 0.809,-0.66 0.25,-0.281 0.471,-0.611 0.664,-0.992 0.191,-0.38 0.336,-0.799 0.43,-1.258 l 0.267,-1.287 z"
           id="path28"
           inkscape:connector-curvature="0" /><path
           d="m 381.473,338.977 c 0,0.021 -0.004,0.062 -0.012,0.121 -0.008,0.061 -0.018,0.129 -0.027,0.207 -0.012,0.078 -0.027,0.159 -0.047,0.242 -0.021,0.084 -0.047,0.16 -0.078,0.23 -0.031,0.07 -0.064,0.129 -0.098,0.176 -0.035,0.047 -0.072,0.07 -0.113,0.07 -0.043,0 -0.088,-0.009 -0.137,-0.027 -0.051,-0.018 -0.105,-0.04 -0.164,-0.066 -0.061,-0.025 -0.129,-0.048 -0.207,-0.066 -0.078,-0.018 -0.17,-0.027 -0.273,-0.027 -0.178,0 -0.383,0.077 -0.613,0.23 -0.232,0.154 -0.461,0.366 -0.684,0.637 -0.225,0.271 -0.43,0.592 -0.613,0.961 -0.186,0.37 -0.322,0.771 -0.41,1.203 L 377.379,346 c -0.012,0.042 -0.029,0.077 -0.055,0.105 -0.027,0.029 -0.066,0.054 -0.117,0.074 -0.053,0.021 -0.121,0.036 -0.207,0.047 -0.086,0.01 -0.191,0.016 -0.316,0.016 -0.131,0 -0.236,-0.006 -0.316,-0.016 -0.082,-0.011 -0.145,-0.026 -0.188,-0.047 -0.045,-0.021 -0.074,-0.045 -0.086,-0.074 -0.014,-0.028 -0.016,-0.063 -0.004,-0.105 l 1.398,-7.039 c 0.004,-0.036 0.02,-0.07 0.047,-0.102 0.025,-0.031 0.064,-0.057 0.117,-0.078 0.051,-0.021 0.115,-0.035 0.191,-0.043 0.074,-0.008 0.164,-0.012 0.27,-0.012 0.109,0 0.199,0.004 0.27,0.012 0.071,0.008 0.125,0.022 0.164,0.043 0.039,0.021 0.063,0.047 0.074,0.078 0.01,0.031 0.012,0.065 0.008,0.102 l -0.258,1.281 c 0.119,-0.213 0.262,-0.419 0.426,-0.617 0.164,-0.197 0.342,-0.371 0.535,-0.52 0.191,-0.148 0.395,-0.267 0.605,-0.355 0.211,-0.088 0.418,-0.133 0.621,-0.133 0.088,0 0.178,0.007 0.27,0.02 0.09,0.014 0.176,0.029 0.254,0.047 0.078,0.019 0.146,0.039 0.207,0.063 0.059,0.023 0.105,0.051 0.137,0.082 0.032,0.031 0.047,0.08 0.047,0.148 z"
           id="path30"
           inkscape:connector-curvature="0" /></g><g
         id="g32"><path
           d="m 28.662,365.021 c 0,0.4 -0.037,0.85 -0.109,1.344 -0.072,0.494 -0.195,0.998 -0.367,1.508 -0.172,0.51 -0.4,1.006 -0.684,1.488 -0.284,0.482 -0.634,0.908 -1.051,1.281 -0.417,0.373 -0.912,0.674 -1.484,0.902 -0.572,0.228 -1.229,0.344 -1.969,0.344 -0.594,0 -1.115,-0.074 -1.563,-0.223 -0.448,-0.149 -0.822,-0.369 -1.121,-0.664 -0.299,-0.295 -0.525,-0.658 -0.676,-1.09 -0.151,-0.432 -0.227,-0.932 -0.227,-1.5 0,-0.447 0.039,-0.93 0.117,-1.445 0.078,-0.515 0.207,-1.029 0.387,-1.543 0.18,-0.514 0.414,-1.006 0.703,-1.48 0.289,-0.474 0.643,-0.895 1.063,-1.262 0.42,-0.367 0.91,-0.658 1.473,-0.875 0.563,-0.217 1.208,-0.324 1.938,-0.324 0.588,0 1.105,0.076 1.551,0.23 0.446,0.154 0.818,0.381 1.117,0.68 0.299,0.299 0.525,0.67 0.676,1.109 0.151,0.439 0.226,0.948 0.226,1.52 z m -1.438,0.094 c 0,-0.365 -0.042,-0.699 -0.125,-1.004 -0.083,-0.305 -0.216,-0.566 -0.398,-0.785 -0.182,-0.219 -0.424,-0.389 -0.727,-0.512 -0.303,-0.123 -0.667,-0.184 -1.094,-0.184 -0.542,0 -1.017,0.1 -1.426,0.301 -0.409,0.201 -0.763,0.463 -1.063,0.785 -0.3,0.322 -0.547,0.689 -0.742,1.098 -0.195,0.409 -0.352,0.822 -0.469,1.238 -0.117,0.416 -0.201,0.82 -0.25,1.211 -0.049,0.391 -0.074,0.729 -0.074,1.016 0,0.369 0.041,0.705 0.121,1.004 0.08,0.299 0.215,0.557 0.402,0.77 0.187,0.213 0.431,0.379 0.73,0.496 0.299,0.117 0.666,0.176 1.098,0.176 0.537,0 1.008,-0.098 1.414,-0.293 0.406,-0.195 0.758,-0.451 1.055,-0.77 0.297,-0.319 0.544,-0.678 0.742,-1.082 0.198,-0.404 0.357,-0.813 0.477,-1.227 0.12,-0.414 0.205,-0.816 0.254,-1.207 0.049,-0.391 0.075,-0.734 0.075,-1.031 z"
           id="path34"
           inkscape:connector-curvature="0" /><path
           d="m 36.615,366.709 c 0,0.313 -0.029,0.658 -0.086,1.035 -0.057,0.377 -0.15,0.758 -0.277,1.141 -0.127,0.383 -0.288,0.756 -0.48,1.117 -0.192,0.361 -0.428,0.682 -0.707,0.961 -0.279,0.279 -0.599,0.502 -0.961,0.672 -0.362,0.17 -0.77,0.254 -1.223,0.254 -0.469,0 -0.87,-0.088 -1.203,-0.266 -0.333,-0.178 -0.63,-0.432 -0.891,-0.766 l -0.141,0.688 c -0.01,0.088 -0.066,0.15 -0.168,0.188 -0.102,0.038 -0.256,0.055 -0.465,0.055 -0.219,0 -0.365,-0.021 -0.438,-0.063 -0.073,-0.042 -0.099,-0.102 -0.078,-0.18 l 2.078,-10.438 c 0.01,-0.041 0.027,-0.078 0.051,-0.109 0.024,-0.031 0.063,-0.057 0.117,-0.078 0.054,-0.021 0.125,-0.037 0.211,-0.047 0.086,-0.01 0.194,-0.016 0.324,-0.016 0.125,0 0.227,0.006 0.305,0.016 0.078,0.01 0.141,0.025 0.188,0.047 0.047,0.022 0.076,0.047 0.086,0.078 0.01,0.031 0.013,0.068 0.008,0.109 l -0.625,3.141 c -0.026,0.135 -0.057,0.275 -0.094,0.422 -0.037,0.147 -0.074,0.291 -0.113,0.434 -0.039,0.143 -0.078,0.279 -0.117,0.406 -0.039,0.127 -0.074,0.238 -0.105,0.332 0.083,-0.182 0.215,-0.371 0.395,-0.566 0.18,-0.195 0.391,-0.375 0.633,-0.539 0.242,-0.164 0.506,-0.301 0.793,-0.41 0.287,-0.109 0.576,-0.164 0.867,-0.164 0.313,0 0.581,0.041 0.805,0.125 0.224,0.084 0.414,0.193 0.57,0.332 0.156,0.139 0.283,0.295 0.379,0.473 0.096,0.178 0.17,0.359 0.223,0.547 0.053,0.188 0.088,0.373 0.109,0.559 0.021,0.186 0.03,0.354 0.03,0.51 z m -1.352,0.109 c 0,-0.141 -0.013,-0.303 -0.039,-0.484 -0.026,-0.181 -0.077,-0.352 -0.152,-0.508 -0.075,-0.156 -0.185,-0.287 -0.328,-0.395 -0.143,-0.108 -0.334,-0.16 -0.574,-0.16 -0.281,0 -0.568,0.08 -0.859,0.242 -0.291,0.162 -0.563,0.385 -0.813,0.668 -0.25,0.283 -0.473,0.617 -0.668,1 -0.195,0.383 -0.337,0.801 -0.426,1.254 l -0.258,1.297 c 0.245,0.359 0.508,0.625 0.789,0.797 0.281,0.172 0.599,0.258 0.953,0.258 0.271,0 0.516,-0.063 0.734,-0.188 0.218,-0.125 0.417,-0.291 0.594,-0.5 0.177,-0.209 0.331,-0.447 0.461,-0.715 0.13,-0.268 0.238,-0.549 0.324,-0.844 0.086,-0.295 0.151,-0.59 0.195,-0.887 0.044,-0.297 0.067,-0.575 0.067,-0.835 z"
           id="path36"
           inkscape:connector-curvature="0" /><path
           d="m 39.052,372.006 c -0.078,0.406 -0.18,0.77 -0.305,1.09 -0.125,0.32 -0.287,0.592 -0.484,0.813 -0.197,0.221 -0.438,0.391 -0.719,0.508 -0.281,0.117 -0.615,0.176 -1,0.176 -0.213,0 -0.392,-0.016 -0.535,-0.047 -0.143,-0.031 -0.233,-0.063 -0.27,-0.094 -0.021,-0.025 -0.037,-0.055 -0.047,-0.086 -0.01,-0.031 -0.016,-0.072 -0.016,-0.125 0,-0.025 0.004,-0.064 0.012,-0.113 0.008,-0.049 0.017,-0.104 0.027,-0.16 0.01,-0.056 0.023,-0.117 0.039,-0.18 0.016,-0.063 0.037,-0.119 0.063,-0.168 0.026,-0.049 0.055,-0.09 0.086,-0.121 0.031,-0.031 0.065,-0.047 0.102,-0.047 0.037,0 0.068,0.002 0.094,0.008 0.026,0.006 0.055,0.01 0.086,0.012 0.031,0.002 0.072,0.006 0.121,0.012 0.049,0.006 0.113,0.008 0.191,0.008 0.172,0 0.326,-0.025 0.461,-0.074 0.135,-0.049 0.254,-0.135 0.355,-0.254 0.101,-0.119 0.189,-0.275 0.262,-0.469 0.073,-0.194 0.138,-0.43 0.195,-0.711 l 1.492,-7.469 c 0.01,-0.037 0.029,-0.07 0.055,-0.102 0.026,-0.032 0.066,-0.057 0.121,-0.078 0.055,-0.021 0.125,-0.037 0.211,-0.047 0.086,-0.01 0.191,-0.016 0.316,-0.016 0.12,0 0.221,0.006 0.305,0.016 0.084,0.01 0.147,0.025 0.191,0.047 0.044,0.022 0.073,0.047 0.086,0.078 0.013,0.031 0.017,0.064 0.012,0.102 l -1.507,7.491 z m 2.133,-9.86 c -0.031,0.146 -0.069,0.268 -0.113,0.367 -0.044,0.099 -0.102,0.178 -0.172,0.238 -0.07,0.06 -0.159,0.104 -0.266,0.129 -0.107,0.025 -0.238,0.039 -0.395,0.039 -0.151,0 -0.275,-0.014 -0.371,-0.039 -0.096,-0.025 -0.17,-0.068 -0.223,-0.129 -0.053,-0.061 -0.08,-0.139 -0.082,-0.238 -0.002,-0.099 0.009,-0.221 0.035,-0.367 0.031,-0.146 0.068,-0.268 0.109,-0.363 0.041,-0.095 0.1,-0.178 0.176,-0.242 0.076,-0.064 0.166,-0.109 0.27,-0.133 0.104,-0.024 0.234,-0.035 0.391,-0.035 0.157,0 0.284,0.012 0.383,0.035 0.099,0.023 0.172,0.068 0.219,0.133 0.047,0.065 0.073,0.146 0.078,0.242 0.005,0.096 -0.008,0.217 -0.039,0.363 z"
           id="path38"
           inkscape:connector-curvature="0" /><path
           d="m 48.271,365.951 c 0,0.359 -0.083,0.682 -0.25,0.969 -0.167,0.287 -0.427,0.531 -0.781,0.734 -0.354,0.203 -0.807,0.359 -1.359,0.469 -0.552,0.11 -1.213,0.164 -1.984,0.164 l -0.828,0 c -0.037,0.172 -0.061,0.338 -0.074,0.5 -0.013,0.162 -0.02,0.313 -0.02,0.453 0,0.521 0.129,0.92 0.387,1.195 0.258,0.275 0.676,0.414 1.254,0.414 0.333,0 0.633,-0.025 0.898,-0.074 0.265,-0.049 0.496,-0.104 0.691,-0.16 0.195,-0.056 0.355,-0.111 0.48,-0.16 0.125,-0.049 0.211,-0.074 0.258,-0.074 0.047,0 0.082,0.018 0.105,0.051 0.023,0.033 0.035,0.082 0.035,0.145 0,0.053 -0.005,0.115 -0.016,0.188 -0.011,0.073 -0.026,0.146 -0.047,0.223 -0.021,0.077 -0.048,0.146 -0.082,0.215 -0.034,0.069 -0.072,0.125 -0.113,0.172 -0.063,0.063 -0.173,0.123 -0.332,0.184 -0.159,0.061 -0.348,0.115 -0.566,0.164 -0.218,0.049 -0.458,0.09 -0.719,0.121 -0.261,0.031 -0.521,0.047 -0.781,0.047 -0.463,0 -0.87,-0.053 -1.219,-0.156 -0.349,-0.103 -0.639,-0.264 -0.871,-0.48 -0.232,-0.216 -0.405,-0.486 -0.52,-0.809 -0.115,-0.323 -0.172,-0.703 -0.172,-1.141 0,-0.338 0.033,-0.701 0.098,-1.09 0.065,-0.389 0.168,-0.771 0.309,-1.152 0.141,-0.381 0.323,-0.744 0.547,-1.094 0.224,-0.35 0.491,-0.656 0.801,-0.922 0.31,-0.266 0.668,-0.479 1.074,-0.641 0.406,-0.162 0.865,-0.242 1.375,-0.242 0.438,0 0.809,0.055 1.113,0.164 0.304,0.109 0.555,0.25 0.75,0.422 0.195,0.172 0.337,0.363 0.426,0.574 0.089,0.211 0.133,0.418 0.133,0.627 z m -1.32,0.117 c 0,-0.266 -0.104,-0.48 -0.313,-0.645 -0.209,-0.165 -0.505,-0.246 -0.891,-0.246 -0.338,0 -0.638,0.059 -0.898,0.176 -0.26,0.117 -0.491,0.275 -0.691,0.473 -0.2,0.198 -0.373,0.428 -0.516,0.691 -0.143,0.263 -0.259,0.541 -0.348,0.832 l 0.797,0 c 0.547,0 1.004,-0.033 1.371,-0.102 0.367,-0.069 0.662,-0.16 0.883,-0.277 0.221,-0.117 0.377,-0.254 0.469,-0.41 0.092,-0.156 0.137,-0.32 0.137,-0.492 z"
           id="path40"
           inkscape:connector-curvature="0" /><path
           d="m 56.083,364.49 c 0,0.063 -0.022,0.127 -0.066,0.195 -0.044,0.068 -0.131,0.162 -0.262,0.281 l -3.055,2.617 2.102,3.539 c 0.052,0.094 0.088,0.174 0.109,0.238 0.021,0.064 0.031,0.115 0.031,0.152 0,0.047 -0.01,0.088 -0.031,0.121 -0.021,0.033 -0.059,0.061 -0.113,0.082 -0.054,0.021 -0.127,0.037 -0.219,0.051 -0.092,0.014 -0.205,0.02 -0.34,0.02 -0.146,0 -0.26,-0.004 -0.344,-0.012 -0.084,-0.008 -0.151,-0.021 -0.203,-0.043 -0.052,-0.022 -0.091,-0.047 -0.117,-0.078 -0.026,-0.031 -0.049,-0.07 -0.07,-0.117 l -2.25,-3.891 -0.773,3.898 c -0.01,0.041 -0.029,0.076 -0.055,0.105 -0.026,0.029 -0.066,0.053 -0.121,0.074 -0.055,0.021 -0.125,0.037 -0.211,0.047 -0.086,0.01 -0.191,0.016 -0.316,0.016 -0.125,0 -0.228,-0.006 -0.309,-0.016 -0.081,-0.01 -0.143,-0.025 -0.188,-0.043 -0.045,-0.018 -0.074,-0.043 -0.09,-0.074 -0.016,-0.031 -0.018,-0.068 -0.008,-0.109 l 2.086,-10.438 c 0.01,-0.041 0.027,-0.078 0.051,-0.109 0.024,-0.031 0.063,-0.057 0.117,-0.078 0.054,-0.021 0.125,-0.037 0.211,-0.047 0.086,-0.01 0.194,-0.016 0.324,-0.016 0.125,0 0.228,0.006 0.309,0.016 0.081,0.01 0.143,0.025 0.188,0.047 0.045,0.022 0.072,0.047 0.082,0.078 0.01,0.031 0.013,0.068 0.008,0.109 l -1.273,6.359 3.258,-2.945 c 0.042,-0.047 0.088,-0.088 0.141,-0.121 0.053,-0.033 0.112,-0.061 0.18,-0.078 0.068,-0.017 0.147,-0.031 0.238,-0.039 0.091,-0.008 0.199,-0.012 0.324,-0.012 0.125,0 0.23,0.004 0.316,0.012 0.086,0.008 0.154,0.021 0.203,0.039 0.049,0.018 0.084,0.041 0.105,0.07 0.021,0.029 0.031,0.063 0.031,0.1 z"
           id="path42"
           inkscape:connector-curvature="0" /><path
           d="m 62.912,371.545 c -0.01,0.041 -0.029,0.076 -0.055,0.105 -0.026,0.029 -0.065,0.053 -0.117,0.074 -0.052,0.021 -0.121,0.037 -0.207,0.047 -0.086,0.01 -0.191,0.016 -0.316,0.016 -0.125,0 -0.229,-0.006 -0.313,-0.016 -0.084,-0.01 -0.147,-0.025 -0.191,-0.047 -0.044,-0.022 -0.074,-0.045 -0.09,-0.074 -0.016,-0.029 -0.018,-0.064 -0.008,-0.105 l 1.234,-6.164 -3.633,0 -0.789,3.922 c -0.021,0.109 -0.039,0.232 -0.055,0.367 -0.016,0.135 -0.023,0.248 -0.023,0.336 0,0.266 0.056,0.459 0.168,0.582 0.112,0.123 0.293,0.184 0.543,0.184 0.141,0 0.263,-0.012 0.367,-0.035 0.104,-0.023 0.194,-0.049 0.27,-0.074 0.076,-0.025 0.142,-0.051 0.199,-0.074 0.057,-0.023 0.107,-0.035 0.148,-0.035 0.041,0 0.074,0.014 0.098,0.043 0.024,0.029 0.035,0.082 0.035,0.16 0,0.068 -0.006,0.143 -0.02,0.223 -0.014,0.08 -0.03,0.16 -0.051,0.238 -0.021,0.078 -0.047,0.148 -0.078,0.211 -0.031,0.063 -0.065,0.111 -0.102,0.148 -0.042,0.037 -0.104,0.072 -0.188,0.109 -0.084,0.037 -0.18,0.068 -0.289,0.098 -0.109,0.03 -0.225,0.051 -0.348,0.066 -0.123,0.015 -0.244,0.023 -0.363,0.023 -0.292,0 -0.544,-0.031 -0.758,-0.094 -0.214,-0.063 -0.393,-0.16 -0.539,-0.293 -0.146,-0.133 -0.254,-0.299 -0.324,-0.5 -0.07,-0.201 -0.105,-0.441 -0.105,-0.723 0,-0.063 0.002,-0.131 0.008,-0.207 0.006,-0.076 0.014,-0.154 0.027,-0.238 0.013,-0.084 0.026,-0.166 0.039,-0.25 0.013,-0.084 0.027,-0.162 0.043,-0.234 l 0.789,-3.953 -0.977,0 c -0.057,0 -0.102,-0.018 -0.133,-0.051 -0.031,-0.033 -0.047,-0.1 -0.047,-0.199 0,-0.072 0.008,-0.158 0.023,-0.254 0.015,-0.096 0.039,-0.186 0.07,-0.27 0.031,-0.084 0.072,-0.154 0.121,-0.211 0.049,-0.057 0.108,-0.086 0.176,-0.086 l 0.984,0 0.336,-1.672 c 0.005,-0.037 0.022,-0.07 0.051,-0.102 0.029,-0.032 0.069,-0.059 0.121,-0.082 0.052,-0.023 0.121,-0.041 0.207,-0.051 0.086,-0.01 0.191,-0.016 0.316,-0.016 0.125,0 0.229,0.006 0.313,0.016 0.084,0.01 0.147,0.027 0.191,0.051 0.044,0.024 0.073,0.051 0.086,0.082 0.013,0.031 0.014,0.064 0.004,0.102 l -0.336,1.672 4.523,0 c 0.156,0 0.256,0.035 0.301,0.105 0.045,0.07 0.051,0.174 0.02,0.309 l -1.356,6.821 z m 2.015,-9.399 c -0.026,0.146 -0.061,0.268 -0.105,0.367 -0.044,0.099 -0.103,0.178 -0.176,0.238 -0.073,0.06 -0.163,0.104 -0.27,0.129 -0.107,0.025 -0.238,0.039 -0.395,0.039 -0.157,0 -0.283,-0.014 -0.379,-0.039 -0.096,-0.025 -0.167,-0.068 -0.211,-0.129 -0.044,-0.061 -0.069,-0.139 -0.074,-0.238 -0.005,-0.099 0.005,-0.221 0.031,-0.367 0.026,-0.146 0.061,-0.268 0.105,-0.363 0.044,-0.095 0.104,-0.178 0.18,-0.242 0.076,-0.064 0.166,-0.109 0.27,-0.133 0.104,-0.024 0.234,-0.035 0.391,-0.035 0.157,0 0.283,0.012 0.379,0.035 0.096,0.023 0.168,0.068 0.215,0.133 0.047,0.065 0.073,0.146 0.078,0.242 0.005,0.096 -0.008,0.217 -0.039,0.363 z"
           id="path44"
           inkscape:connector-curvature="0" /><path
           d="m 72.068,364.451 c 0,0.053 -0.008,0.105 -0.023,0.16 -0.015,0.055 -0.034,0.111 -0.055,0.168 -0.193,0.568 -0.41,1.143 -0.652,1.723 -0.242,0.58 -0.51,1.158 -0.805,1.734 -0.295,0.576 -0.617,1.141 -0.969,1.695 -0.352,0.554 -0.736,1.09 -1.152,1.605 -0.037,0.057 -0.078,0.102 -0.125,0.133 -0.047,0.031 -0.103,0.057 -0.168,0.074 -0.065,0.017 -0.139,0.029 -0.223,0.035 -0.084,0.006 -0.182,0.008 -0.297,0.008 -0.162,0 -0.292,-0.006 -0.391,-0.016 -0.099,-0.01 -0.176,-0.025 -0.23,-0.047 -0.054,-0.022 -0.094,-0.049 -0.117,-0.086 -0.023,-0.037 -0.038,-0.08 -0.043,-0.133 l -1.039,-6.664 c -0.005,-0.057 -0.009,-0.107 -0.012,-0.152 -0.003,-0.045 -0.004,-0.084 -0.004,-0.121 0,-0.068 0.01,-0.119 0.031,-0.156 0.021,-0.037 0.055,-0.064 0.102,-0.086 0.047,-0.022 0.111,-0.035 0.191,-0.043 0.08,-0.008 0.189,-0.012 0.324,-0.012 0.135,0 0.245,0.004 0.328,0.012 0.083,0.008 0.147,0.021 0.191,0.039 0.044,0.018 0.074,0.045 0.09,0.078 0.016,0.033 0.026,0.074 0.031,0.121 l 0.844,5.797 0,0.094 0.039,-0.047 c 0.307,-0.463 0.588,-0.912 0.844,-1.348 0.256,-0.436 0.492,-0.885 0.711,-1.348 0.219,-0.463 0.426,-0.951 0.621,-1.461 0.195,-0.51 0.395,-1.072 0.598,-1.688 0.016,-0.047 0.038,-0.088 0.066,-0.121 0.028,-0.033 0.07,-0.061 0.125,-0.078 0.055,-0.017 0.127,-0.031 0.219,-0.039 0.092,-0.008 0.205,-0.012 0.34,-0.012 0.125,0 0.227,0.004 0.305,0.012 0.078,0.008 0.139,0.018 0.184,0.031 0.045,0.013 0.076,0.031 0.094,0.055 0.018,0.024 0.027,0.053 0.027,0.084 z"
           id="path46"
           inkscape:connector-curvature="0" /></g><g
         id="g48"><path
           d="m 21.734,215.18 c 0,0.058 -0.015,0.108 -0.043,0.152 -0.029,0.044 -0.083,0.081 -0.164,0.109 -0.081,0.028 -0.191,0.051 -0.332,0.066 -0.141,0.015 -0.318,0.023 -0.531,0.023 -0.339,0 -0.582,-0.013 -0.73,-0.039 -0.148,-0.026 -0.255,-0.065 -0.32,-0.117 -0.065,-0.052 -0.116,-0.114 -0.152,-0.188 l -3.055,-4.797 0,4.797 c 0,0.058 -0.016,0.106 -0.047,0.148 -0.031,0.042 -0.086,0.077 -0.164,0.105 -0.078,0.028 -0.183,0.051 -0.313,0.066 -0.13,0.016 -0.297,0.023 -0.5,0.023 -0.198,0 -0.363,-0.008 -0.496,-0.023 -0.133,-0.015 -0.238,-0.038 -0.316,-0.066 -0.078,-0.028 -0.134,-0.063 -0.168,-0.105 -0.034,-0.042 -0.051,-0.091 -0.051,-0.148 l 0,-9.523 c 0,-0.058 0.017,-0.106 0.051,-0.148 0.034,-0.042 0.09,-0.075 0.168,-0.102 0.078,-0.027 0.184,-0.047 0.316,-0.063 0.132,-0.016 0.298,-0.023 0.496,-0.023 0.203,0 0.37,0.008 0.5,0.023 0.13,0.016 0.234,0.036 0.313,0.063 0.079,0.027 0.133,0.06 0.164,0.102 0.031,0.042 0.047,0.091 0.047,0.148 l 0,4.305 2.961,-4.297 c 0.036,-0.067 0.081,-0.124 0.133,-0.168 0.052,-0.044 0.12,-0.079 0.203,-0.105 0.083,-0.026 0.19,-0.044 0.32,-0.055 0.13,-0.011 0.297,-0.016 0.5,-0.016 0.208,0 0.38,0.008 0.516,0.023 0.135,0.016 0.243,0.038 0.324,0.066 0.081,0.028 0.137,0.063 0.168,0.105 0.031,0.042 0.047,0.089 0.047,0.141 0,0.089 -0.023,0.18 -0.07,0.273 -0.047,0.093 -0.136,0.242 -0.266,0.445 l -2.773,3.633 3.023,4.57 c 0.114,0.214 0.184,0.355 0.207,0.426 0.023,0.071 0.034,0.129 0.034,0.171 z"
           id="path50"
           inkscape:connector-curvature="0" /><path
           d="m 29.133,211.531 c 0,0.239 -0.054,0.417 -0.16,0.531 -0.107,0.114 -0.254,0.172 -0.441,0.172 l -4.242,0 c 0,0.297 0.035,0.566 0.105,0.809 0.07,0.243 0.182,0.448 0.336,0.617 0.153,0.169 0.352,0.298 0.594,0.387 0.242,0.089 0.532,0.133 0.871,0.133 0.344,0 0.646,-0.024 0.906,-0.074 0.26,-0.05 0.485,-0.104 0.676,-0.164 0.19,-0.06 0.348,-0.114 0.473,-0.164 0.125,-0.05 0.227,-0.074 0.305,-0.074 0.047,0 0.086,0.009 0.117,0.027 0.031,0.018 0.057,0.051 0.078,0.098 0.021,0.047 0.035,0.113 0.043,0.199 0.008,0.086 0.012,0.194 0.012,0.324 0,0.114 -0.003,0.212 -0.008,0.293 -0.005,0.081 -0.013,0.149 -0.023,0.207 -0.011,0.058 -0.026,0.105 -0.047,0.145 -0.021,0.039 -0.048,0.077 -0.082,0.113 -0.034,0.036 -0.126,0.086 -0.277,0.148 -0.151,0.063 -0.344,0.124 -0.578,0.184 -0.234,0.06 -0.503,0.112 -0.805,0.156 -0.302,0.044 -0.625,0.066 -0.969,0.066 -0.62,0 -1.163,-0.078 -1.629,-0.234 -0.466,-0.156 -0.855,-0.394 -1.168,-0.711 -0.313,-0.317 -0.546,-0.719 -0.699,-1.203 -0.154,-0.484 -0.23,-1.052 -0.23,-1.703 0,-0.62 0.081,-1.179 0.242,-1.676 0.161,-0.497 0.396,-0.919 0.703,-1.266 0.307,-0.347 0.681,-0.61 1.121,-0.793 0.44,-0.183 0.936,-0.273 1.488,-0.273 0.583,0 1.082,0.086 1.496,0.258 0.414,0.172 0.754,0.41 1.02,0.715 0.266,0.305 0.461,0.665 0.586,1.082 0.125,0.417 0.188,0.87 0.188,1.359 l 0,0.312 z m -1.906,-0.562 c 0.016,-0.552 -0.095,-0.985 -0.332,-1.301 -0.237,-0.315 -0.603,-0.473 -1.098,-0.473 -0.25,0 -0.468,0.047 -0.652,0.141 -0.185,0.094 -0.339,0.22 -0.461,0.379 -0.123,0.159 -0.216,0.347 -0.281,0.563 -0.065,0.216 -0.103,0.446 -0.113,0.691 l 2.937,0 z"
           id="path52"
           inkscape:connector-curvature="0" /><path
           d="m 37.766,211.633 c 0,0.62 -0.066,1.179 -0.199,1.676 -0.133,0.497 -0.327,0.921 -0.582,1.27 -0.255,0.349 -0.573,0.617 -0.953,0.805 -0.38,0.188 -0.815,0.281 -1.305,0.281 -0.203,0 -0.39,-0.02 -0.559,-0.059 -0.169,-0.039 -0.333,-0.099 -0.492,-0.18 -0.159,-0.081 -0.316,-0.181 -0.473,-0.301 -0.157,-0.12 -0.318,-0.261 -0.484,-0.422 l 0,3.281 c 0,0.052 -0.016,0.099 -0.047,0.141 -0.031,0.042 -0.085,0.077 -0.16,0.105 -0.076,0.028 -0.176,0.051 -0.301,0.066 -0.125,0.015 -0.284,0.023 -0.477,0.023 -0.193,0 -0.352,-0.008 -0.477,-0.023 -0.125,-0.015 -0.226,-0.038 -0.301,-0.066 -0.076,-0.028 -0.129,-0.063 -0.16,-0.105 -0.031,-0.042 -0.047,-0.089 -0.047,-0.141 l 0,-9.734 c 0,-0.052 0.013,-0.098 0.039,-0.137 0.026,-0.039 0.071,-0.071 0.137,-0.098 0.065,-0.026 0.151,-0.046 0.258,-0.059 0.106,-0.013 0.241,-0.02 0.402,-0.02 0.156,0 0.288,0.007 0.395,0.02 0.106,0.013 0.192,0.032 0.258,0.059 0.065,0.026 0.11,0.059 0.137,0.098 0.026,0.039 0.039,0.085 0.039,0.137 l 0,0.82 c 0.203,-0.208 0.402,-0.392 0.598,-0.551 0.196,-0.159 0.395,-0.292 0.598,-0.398 0.203,-0.106 0.413,-0.187 0.629,-0.238 0.216,-0.052 0.446,-0.078 0.691,-0.078 0.51,0 0.945,0.101 1.305,0.301 0.36,0.2 0.652,0.476 0.879,0.824 0.227,0.348 0.392,0.755 0.496,1.219 0.103,0.463 0.156,0.957 0.156,1.484 z m -2.047,0.14 c 0,-0.297 -0.022,-0.582 -0.066,-0.855 -0.044,-0.273 -0.12,-0.517 -0.227,-0.73 -0.107,-0.214 -0.248,-0.384 -0.422,-0.512 -0.175,-0.128 -0.392,-0.191 -0.652,-0.191 -0.13,0 -0.259,0.02 -0.387,0.059 -0.128,0.039 -0.258,0.103 -0.391,0.191 -0.133,0.088 -0.27,0.203 -0.41,0.344 -0.14,0.141 -0.289,0.315 -0.445,0.523 l 0,2.297 c 0.276,0.349 0.539,0.618 0.789,0.809 0.25,0.191 0.51,0.285 0.781,0.285 0.255,0 0.473,-0.065 0.652,-0.195 0.179,-0.13 0.327,-0.301 0.441,-0.512 0.114,-0.211 0.199,-0.449 0.254,-0.715 0.055,-0.266 0.083,-0.532 0.083,-0.798 z"
           id="path54"
           inkscape:connector-curvature="0" /><path
           d="m 41.305,215.219 c 0,0.052 -0.016,0.098 -0.047,0.137 -0.031,0.039 -0.085,0.071 -0.16,0.098 -0.076,0.026 -0.176,0.046 -0.301,0.059 -0.125,0.013 -0.284,0.02 -0.477,0.02 -0.193,0 -0.352,-0.007 -0.477,-0.02 -0.125,-0.013 -0.226,-0.032 -0.301,-0.059 -0.076,-0.026 -0.129,-0.059 -0.16,-0.098 -0.031,-0.039 -0.047,-0.085 -0.047,-0.137 l 0,-10.273 c 0,-0.052 0.016,-0.099 0.047,-0.141 0.031,-0.042 0.084,-0.077 0.16,-0.105 0.075,-0.028 0.176,-0.051 0.301,-0.066 0.125,-0.015 0.284,-0.023 0.477,-0.023 0.192,0 0.352,0.008 0.477,0.023 0.125,0.015 0.225,0.038 0.301,0.066 0.075,0.028 0.129,0.063 0.16,0.105 0.031,0.042 0.047,0.089 0.047,0.141 l 0,10.273 z"
           id="path56"
           inkscape:connector-curvature="0" /><path
           d="m 49.703,211.531 c 0,0.239 -0.054,0.417 -0.16,0.531 -0.107,0.114 -0.254,0.172 -0.441,0.172 l -4.242,0 c 0,0.297 0.035,0.566 0.105,0.809 0.07,0.243 0.182,0.448 0.336,0.617 0.153,0.169 0.352,0.298 0.594,0.387 0.242,0.089 0.532,0.133 0.871,0.133 0.344,0 0.646,-0.024 0.906,-0.074 0.26,-0.05 0.485,-0.104 0.676,-0.164 0.19,-0.06 0.348,-0.114 0.473,-0.164 0.125,-0.05 0.227,-0.074 0.305,-0.074 0.047,0 0.086,0.009 0.117,0.027 0.031,0.018 0.057,0.051 0.078,0.098 0.021,0.047 0.035,0.113 0.043,0.199 0.008,0.086 0.012,0.194 0.012,0.324 0,0.114 -0.003,0.212 -0.008,0.293 -0.005,0.081 -0.013,0.149 -0.023,0.207 -0.011,0.058 -0.026,0.105 -0.047,0.145 -0.021,0.039 -0.048,0.077 -0.082,0.113 -0.034,0.036 -0.126,0.086 -0.277,0.148 -0.151,0.063 -0.344,0.124 -0.578,0.184 -0.234,0.06 -0.503,0.112 -0.805,0.156 -0.302,0.044 -0.625,0.066 -0.969,0.066 -0.62,0 -1.163,-0.078 -1.629,-0.234 -0.466,-0.156 -0.855,-0.394 -1.168,-0.711 -0.313,-0.317 -0.546,-0.719 -0.699,-1.203 -0.154,-0.484 -0.23,-1.052 -0.23,-1.703 0,-0.62 0.081,-1.179 0.242,-1.676 0.161,-0.497 0.396,-0.919 0.703,-1.266 0.307,-0.347 0.681,-0.61 1.121,-0.793 0.44,-0.183 0.936,-0.273 1.488,-0.273 0.583,0 1.082,0.086 1.496,0.258 0.414,0.172 0.754,0.41 1.02,0.715 0.266,0.305 0.461,0.665 0.586,1.082 0.125,0.417 0.188,0.87 0.188,1.359 l 0,0.312 z m -1.906,-0.562 c 0.016,-0.552 -0.095,-0.985 -0.332,-1.301 -0.237,-0.315 -0.603,-0.473 -1.098,-0.473 -0.25,0 -0.468,0.047 -0.652,0.141 -0.185,0.094 -0.339,0.22 -0.461,0.379 -0.123,0.159 -0.216,0.347 -0.281,0.563 -0.065,0.216 -0.103,0.446 -0.113,0.691 l 2.937,0 z"
           id="path58"
           inkscape:connector-curvature="0" /><path
           d="m 55.797,208.898 c 0,0.188 -0.005,0.341 -0.016,0.461 -0.011,0.12 -0.026,0.214 -0.047,0.281 -0.021,0.067 -0.048,0.114 -0.082,0.141 -0.034,0.026 -0.077,0.039 -0.129,0.039 -0.042,0 -0.089,-0.009 -0.141,-0.027 -0.052,-0.019 -0.111,-0.038 -0.176,-0.059 -0.065,-0.021 -0.137,-0.04 -0.215,-0.059 -0.078,-0.019 -0.164,-0.027 -0.258,-0.027 -0.109,0 -0.219,0.022 -0.328,0.066 -0.109,0.044 -0.223,0.113 -0.34,0.207 -0.117,0.094 -0.24,0.219 -0.367,0.375 -0.128,0.156 -0.265,0.349 -0.41,0.578 l 0,4.344 c 0,0.052 -0.016,0.098 -0.047,0.137 -0.031,0.039 -0.085,0.071 -0.16,0.098 -0.076,0.026 -0.176,0.046 -0.301,0.059 -0.125,0.013 -0.284,0.02 -0.477,0.02 -0.193,0 -0.352,-0.007 -0.477,-0.02 -0.125,-0.013 -0.226,-0.032 -0.301,-0.059 -0.076,-0.026 -0.129,-0.059 -0.16,-0.098 -0.031,-0.039 -0.047,-0.085 -0.047,-0.137 l 0,-6.969 c 0,-0.052 0.013,-0.098 0.039,-0.137 0.026,-0.039 0.073,-0.071 0.141,-0.098 0.067,-0.026 0.155,-0.046 0.262,-0.059 0.106,-0.013 0.241,-0.02 0.402,-0.02 0.167,0 0.305,0.007 0.414,0.02 0.109,0.013 0.194,0.032 0.254,0.059 0.06,0.026 0.103,0.059 0.129,0.098 0.026,0.039 0.039,0.085 0.039,0.137 l 0,0.867 c 0.182,-0.261 0.354,-0.476 0.516,-0.645 0.161,-0.169 0.315,-0.304 0.461,-0.402 0.146,-0.099 0.292,-0.168 0.438,-0.207 0.146,-0.039 0.292,-0.059 0.438,-0.059 0.067,0 0.141,0.004 0.219,0.012 0.078,0.008 0.159,0.021 0.242,0.039 0.083,0.019 0.156,0.039 0.219,0.063 0.063,0.024 0.108,0.048 0.137,0.074 0.028,0.026 0.049,0.055 0.063,0.086 0.013,0.031 0.024,0.074 0.035,0.129 0.01,0.055 0.018,0.137 0.023,0.246 0.005,0.111 0.008,0.259 0.008,0.446 z"
           id="path60"
           inkscape:connector-curvature="0" /><path
           d="m 60.148,211.555 c 0,0.302 -0.029,0.513 -0.086,0.633 -0.058,0.12 -0.148,0.18 -0.273,0.18 l -3.25,0 c -0.13,0 -0.224,-0.062 -0.281,-0.184 -0.058,-0.122 -0.086,-0.332 -0.086,-0.629 0,-0.292 0.028,-0.497 0.086,-0.617 0.057,-0.12 0.151,-0.18 0.281,-0.18 l 3.25,0 c 0.063,0 0.116,0.013 0.16,0.039 0.044,0.026 0.082,0.07 0.113,0.133 0.031,0.063 0.053,0.146 0.066,0.25 0.014,0.104 0.02,0.229 0.02,0.375 z"
           id="path62"
           inkscape:connector-curvature="0" /><path
           d="m 67.383,206.219 c 0,0.156 -0.007,0.288 -0.02,0.395 -0.013,0.106 -0.034,0.191 -0.063,0.254 -0.029,0.063 -0.062,0.109 -0.098,0.141 -0.037,0.031 -0.078,0.047 -0.125,0.047 l -3.305,0 0,2.719 3.102,0 c 0.047,0 0.088,0.013 0.125,0.039 0.036,0.026 0.069,0.07 0.098,0.133 0.028,0.063 0.049,0.146 0.063,0.25 0.013,0.104 0.02,0.234 0.02,0.391 0,0.157 -0.007,0.286 -0.02,0.391 -0.013,0.104 -0.034,0.19 -0.063,0.258 -0.029,0.067 -0.062,0.116 -0.098,0.145 -0.037,0.028 -0.078,0.043 -0.125,0.043 l -3.102,0 0,3.766 c 0,0.058 -0.016,0.106 -0.047,0.148 -0.031,0.042 -0.087,0.077 -0.168,0.105 -0.081,0.028 -0.187,0.051 -0.316,0.066 -0.13,0.016 -0.297,0.023 -0.5,0.023 -0.198,0 -0.363,-0.008 -0.496,-0.023 -0.133,-0.015 -0.238,-0.038 -0.316,-0.066 -0.078,-0.028 -0.134,-0.063 -0.168,-0.105 -0.034,-0.042 -0.051,-0.091 -0.051,-0.148 l 0,-9.164 c 0,-0.229 0.059,-0.395 0.176,-0.496 0.117,-0.101 0.262,-0.152 0.434,-0.152 l 4.758,0 c 0.047,0 0.088,0.015 0.125,0.043 0.036,0.028 0.069,0.075 0.098,0.141 0.028,0.065 0.049,0.152 0.063,0.262 0.012,0.105 0.019,0.238 0.019,0.394 z"
           id="path64"
           inkscape:connector-curvature="0" /><path
           d="m 75.141,211.531 c 0,0.239 -0.054,0.417 -0.16,0.531 -0.107,0.114 -0.254,0.172 -0.441,0.172 l -4.242,0 c 0,0.297 0.035,0.566 0.105,0.809 0.07,0.243 0.182,0.448 0.336,0.617 0.153,0.169 0.352,0.298 0.594,0.387 0.242,0.089 0.532,0.133 0.871,0.133 0.344,0 0.646,-0.024 0.906,-0.074 0.26,-0.05 0.485,-0.104 0.676,-0.164 0.19,-0.06 0.348,-0.114 0.473,-0.164 0.125,-0.05 0.227,-0.074 0.305,-0.074 0.047,0 0.086,0.009 0.117,0.027 0.031,0.018 0.057,0.051 0.078,0.098 0.021,0.047 0.035,0.113 0.043,0.199 0.008,0.086 0.012,0.194 0.012,0.324 0,0.114 -0.003,0.212 -0.008,0.293 -0.005,0.081 -0.013,0.149 -0.023,0.207 -0.011,0.058 -0.026,0.105 -0.047,0.145 -0.021,0.039 -0.048,0.077 -0.082,0.113 -0.034,0.036 -0.126,0.086 -0.277,0.148 -0.151,0.063 -0.344,0.124 -0.578,0.184 -0.234,0.06 -0.503,0.112 -0.805,0.156 -0.302,0.044 -0.625,0.066 -0.969,0.066 -0.62,0 -1.163,-0.078 -1.629,-0.234 -0.466,-0.156 -0.855,-0.394 -1.168,-0.711 -0.313,-0.317 -0.546,-0.719 -0.699,-1.203 -0.154,-0.484 -0.23,-1.052 -0.23,-1.703 0,-0.62 0.081,-1.179 0.242,-1.676 0.161,-0.497 0.396,-0.919 0.703,-1.266 0.307,-0.347 0.681,-0.61 1.121,-0.793 0.44,-0.183 0.936,-0.273 1.488,-0.273 0.583,0 1.082,0.086 1.496,0.258 0.414,0.172 0.754,0.41 1.02,0.715 0.266,0.305 0.461,0.665 0.586,1.082 0.125,0.417 0.188,0.87 0.188,1.359 l 0,0.312 z m -1.907,-0.562 c 0.016,-0.552 -0.095,-0.985 -0.332,-1.301 -0.237,-0.315 -0.603,-0.473 -1.098,-0.473 -0.25,0 -0.468,0.047 -0.652,0.141 -0.185,0.094 -0.339,0.22 -0.461,0.379 -0.123,0.159 -0.216,0.347 -0.281,0.563 -0.065,0.216 -0.103,0.446 -0.113,0.691 l 2.937,0 z"
           id="path66"
           inkscape:connector-curvature="0" /><path
           d="m 81.234,208.898 c 0,0.188 -0.005,0.341 -0.016,0.461 -0.011,0.12 -0.026,0.214 -0.047,0.281 -0.021,0.067 -0.048,0.114 -0.082,0.141 -0.034,0.026 -0.077,0.039 -0.129,0.039 -0.042,0 -0.089,-0.009 -0.141,-0.027 -0.052,-0.019 -0.111,-0.038 -0.176,-0.059 -0.065,-0.021 -0.137,-0.04 -0.215,-0.059 -0.078,-0.019 -0.164,-0.027 -0.258,-0.027 -0.109,0 -0.219,0.022 -0.328,0.066 -0.109,0.044 -0.223,0.113 -0.34,0.207 -0.117,0.094 -0.24,0.219 -0.367,0.375 -0.128,0.156 -0.265,0.349 -0.41,0.578 l 0,4.344 c 0,0.052 -0.016,0.098 -0.047,0.137 -0.031,0.039 -0.085,0.071 -0.16,0.098 -0.076,0.026 -0.176,0.046 -0.301,0.059 -0.125,0.013 -0.284,0.02 -0.477,0.02 -0.193,0 -0.352,-0.007 -0.477,-0.02 -0.125,-0.013 -0.226,-0.032 -0.301,-0.059 -0.076,-0.026 -0.129,-0.059 -0.16,-0.098 -0.031,-0.039 -0.047,-0.085 -0.047,-0.137 l 0,-6.969 c 0,-0.052 0.013,-0.098 0.039,-0.137 0.026,-0.039 0.073,-0.071 0.141,-0.098 0.067,-0.026 0.155,-0.046 0.262,-0.059 0.106,-0.013 0.241,-0.02 0.402,-0.02 0.167,0 0.305,0.007 0.414,0.02 0.109,0.013 0.194,0.032 0.254,0.059 0.06,0.026 0.103,0.059 0.129,0.098 0.026,0.039 0.039,0.085 0.039,0.137 l 0,0.867 c 0.182,-0.261 0.354,-0.476 0.516,-0.645 0.161,-0.169 0.315,-0.304 0.461,-0.402 0.146,-0.099 0.292,-0.168 0.438,-0.207 0.146,-0.039 0.292,-0.059 0.438,-0.059 0.067,0 0.141,0.004 0.219,0.012 0.078,0.008 0.159,0.021 0.242,0.039 0.083,0.019 0.156,0.039 0.219,0.063 0.063,0.024 0.108,0.048 0.137,0.074 0.028,0.026 0.049,0.055 0.063,0.086 0.013,0.031 0.024,0.074 0.035,0.129 0.01,0.055 0.018,0.137 0.023,0.246 0.005,0.111 0.008,0.259 0.008,0.446 z"
           id="path68"
           inkscape:connector-curvature="0" /><path
           d="m 89.102,215.219 c 0,0.052 -0.016,0.098 -0.047,0.137 -0.031,0.039 -0.083,0.071 -0.156,0.098 -0.073,0.026 -0.173,0.046 -0.301,0.059 -0.128,0.013 -0.285,0.02 -0.473,0.02 -0.193,0 -0.353,-0.007 -0.48,-0.02 -0.128,-0.013 -0.228,-0.032 -0.301,-0.059 -0.073,-0.026 -0.125,-0.059 -0.156,-0.098 -0.031,-0.039 -0.047,-0.085 -0.047,-0.137 l 0,-3.977 c 0,-0.339 -0.025,-0.604 -0.074,-0.797 -0.05,-0.192 -0.121,-0.358 -0.215,-0.496 -0.094,-0.138 -0.215,-0.245 -0.363,-0.32 -0.148,-0.075 -0.322,-0.113 -0.52,-0.113 -0.25,0 -0.503,0.091 -0.758,0.273 -0.255,0.183 -0.521,0.448 -0.797,0.797 l 0,4.633 c 0,0.052 -0.016,0.098 -0.047,0.137 -0.031,0.039 -0.085,0.071 -0.16,0.098 -0.076,0.026 -0.176,0.046 -0.301,0.059 -0.125,0.013 -0.284,0.02 -0.477,0.02 -0.193,0 -0.352,-0.007 -0.477,-0.02 -0.125,-0.013 -0.226,-0.032 -0.301,-0.059 -0.076,-0.026 -0.129,-0.059 -0.16,-0.098 -0.031,-0.039 -0.047,-0.085 -0.047,-0.137 l 0,-6.969 c 0,-0.052 0.013,-0.098 0.039,-0.137 0.026,-0.039 0.073,-0.071 0.141,-0.098 0.067,-0.026 0.155,-0.046 0.262,-0.059 0.106,-0.013 0.241,-0.02 0.402,-0.02 0.167,0 0.305,0.007 0.414,0.02 0.109,0.013 0.194,0.032 0.254,0.059 0.06,0.026 0.103,0.059 0.129,0.098 0.026,0.039 0.039,0.085 0.039,0.137 l 0,0.805 c 0.385,-0.417 0.777,-0.729 1.176,-0.938 0.399,-0.209 0.813,-0.313 1.246,-0.313 0.474,0 0.874,0.078 1.199,0.234 0.325,0.156 0.588,0.368 0.789,0.637 0.2,0.269 0.345,0.582 0.434,0.941 0.088,0.359 0.133,0.792 0.133,1.297 l 0,4.306 z"
           id="path70"
           inkscape:connector-curvature="0" /><path
           d="m 95.508,208.898 c 0,0.188 -0.005,0.341 -0.016,0.461 -0.011,0.12 -0.026,0.214 -0.047,0.281 -0.021,0.067 -0.048,0.114 -0.082,0.141 -0.034,0.026 -0.077,0.039 -0.129,0.039 -0.042,0 -0.089,-0.009 -0.141,-0.027 -0.052,-0.019 -0.111,-0.038 -0.176,-0.059 -0.065,-0.021 -0.137,-0.04 -0.215,-0.059 -0.078,-0.019 -0.164,-0.027 -0.258,-0.027 -0.109,0 -0.219,0.022 -0.328,0.066 -0.109,0.044 -0.223,0.113 -0.34,0.207 -0.117,0.094 -0.24,0.219 -0.367,0.375 -0.128,0.156 -0.265,0.349 -0.41,0.578 l 0,4.344 c 0,0.052 -0.016,0.098 -0.047,0.137 -0.031,0.039 -0.085,0.071 -0.16,0.098 -0.076,0.026 -0.176,0.046 -0.301,0.059 -0.125,0.013 -0.284,0.02 -0.477,0.02 -0.193,0 -0.352,-0.007 -0.477,-0.02 -0.125,-0.013 -0.226,-0.032 -0.301,-0.059 -0.076,-0.026 -0.129,-0.059 -0.16,-0.098 -0.031,-0.039 -0.047,-0.085 -0.047,-0.137 l 0,-6.969 c 0,-0.052 0.013,-0.098 0.039,-0.137 0.026,-0.039 0.073,-0.071 0.141,-0.098 0.067,-0.026 0.155,-0.046 0.262,-0.059 0.106,-0.013 0.241,-0.02 0.402,-0.02 0.167,0 0.305,0.007 0.414,0.02 0.109,0.013 0.194,0.032 0.254,0.059 0.06,0.026 0.103,0.059 0.129,0.098 0.026,0.039 0.039,0.085 0.039,0.137 l 0,0.867 c 0.182,-0.261 0.354,-0.476 0.516,-0.645 0.161,-0.169 0.315,-0.304 0.461,-0.402 0.146,-0.099 0.292,-0.168 0.438,-0.207 0.146,-0.039 0.292,-0.059 0.438,-0.059 0.067,0 0.141,0.004 0.219,0.012 0.078,0.008 0.159,0.021 0.242,0.039 0.083,0.019 0.156,0.039 0.219,0.063 0.063,0.024 0.108,0.048 0.137,0.074 0.028,0.026 0.049,0.055 0.063,0.086 0.013,0.031 0.024,0.074 0.035,0.129 0.01,0.055 0.018,0.137 0.023,0.246 0.005,0.111 0.008,0.259 0.008,0.446 z"
           id="path72"
           inkscape:connector-curvature="0" /><path
           d="m 103.57,211.664 c 0,0.594 -0.078,1.136 -0.234,1.625 -0.156,0.489 -0.394,0.911 -0.711,1.266 -0.318,0.354 -0.716,0.628 -1.195,0.82 -0.479,0.192 -1.039,0.289 -1.68,0.289 -0.62,0 -1.159,-0.086 -1.617,-0.258 -0.458,-0.172 -0.839,-0.422 -1.141,-0.75 -0.302,-0.328 -0.526,-0.731 -0.672,-1.211 -0.146,-0.479 -0.219,-1.026 -0.219,-1.641 0,-0.594 0.079,-1.137 0.238,-1.629 0.159,-0.492 0.397,-0.914 0.715,-1.266 0.317,-0.352 0.715,-0.624 1.191,-0.816 0.476,-0.192 1.035,-0.289 1.676,-0.289 0.625,0 1.167,0.085 1.625,0.254 0.458,0.169 0.837,0.418 1.137,0.746 0.299,0.328 0.522,0.731 0.668,1.211 0.146,0.48 0.219,1.029 0.219,1.649 z m -2.023,0.078 c 0,-0.344 -0.027,-0.66 -0.082,-0.949 -0.055,-0.289 -0.147,-0.54 -0.277,-0.754 -0.13,-0.214 -0.304,-0.38 -0.52,-0.5 -0.216,-0.12 -0.488,-0.18 -0.816,-0.18 -0.292,0 -0.547,0.054 -0.766,0.16 -0.219,0.106 -0.398,0.263 -0.539,0.469 -0.141,0.206 -0.246,0.453 -0.316,0.742 -0.07,0.289 -0.105,0.618 -0.105,0.988 0,0.344 0.028,0.66 0.086,0.949 0.057,0.289 0.149,0.54 0.277,0.754 0.127,0.214 0.301,0.379 0.52,0.496 0.219,0.117 0.489,0.176 0.813,0.176 0.297,0 0.555,-0.054 0.773,-0.16 0.218,-0.106 0.398,-0.262 0.539,-0.465 0.141,-0.203 0.245,-0.449 0.313,-0.738 0.066,-0.289 0.1,-0.618 0.1,-0.988 z"
           id="path74"
           inkscape:connector-curvature="0" /><path
           d="m 111.781,215.219 c 0,0.052 -0.016,0.098 -0.047,0.137 -0.031,0.039 -0.083,0.071 -0.156,0.098 -0.073,0.026 -0.173,0.046 -0.301,0.059 -0.128,0.013 -0.285,0.02 -0.473,0.02 -0.193,0 -0.353,-0.007 -0.48,-0.02 -0.128,-0.013 -0.228,-0.032 -0.301,-0.059 -0.073,-0.026 -0.125,-0.059 -0.156,-0.098 -0.031,-0.039 -0.047,-0.085 -0.047,-0.137 l 0,-3.977 c 0,-0.339 -0.025,-0.604 -0.074,-0.797 -0.05,-0.192 -0.121,-0.358 -0.215,-0.496 -0.094,-0.138 -0.215,-0.245 -0.363,-0.32 -0.148,-0.075 -0.322,-0.113 -0.52,-0.113 -0.25,0 -0.503,0.091 -0.758,0.273 -0.255,0.183 -0.521,0.448 -0.797,0.797 l 0,4.633 c 0,0.052 -0.016,0.098 -0.047,0.137 -0.031,0.039 -0.085,0.071 -0.16,0.098 -0.076,0.026 -0.176,0.046 -0.301,0.059 -0.125,0.013 -0.284,0.02 -0.477,0.02 -0.193,0 -0.352,-0.007 -0.477,-0.02 -0.125,-0.013 -0.226,-0.032 -0.301,-0.059 -0.076,-0.026 -0.129,-0.059 -0.16,-0.098 -0.031,-0.039 -0.047,-0.085 -0.047,-0.137 l 0,-10.273 c 0,-0.052 0.016,-0.099 0.047,-0.141 0.031,-0.042 0.084,-0.077 0.16,-0.105 0.075,-0.028 0.176,-0.051 0.301,-0.066 0.125,-0.015 0.284,-0.023 0.477,-0.023 0.192,0 0.352,0.008 0.477,0.023 0.125,0.015 0.225,0.038 0.301,0.066 0.075,0.028 0.129,0.063 0.16,0.105 0.031,0.042 0.047,0.089 0.047,0.141 l 0,3.852 c 0.338,-0.333 0.684,-0.582 1.035,-0.746 0.351,-0.164 0.717,-0.246 1.098,-0.246 0.474,0 0.874,0.078 1.199,0.234 0.325,0.156 0.588,0.37 0.789,0.641 0.2,0.271 0.345,0.587 0.434,0.949 0.088,0.362 0.133,0.801 0.133,1.316 l 0,4.273 z"
           id="path76"
           inkscape:connector-curvature="0" /><path
           d="m 118.188,208.898 c 0,0.188 -0.005,0.341 -0.016,0.461 -0.011,0.12 -0.026,0.214 -0.047,0.281 -0.021,0.067 -0.048,0.114 -0.082,0.141 -0.034,0.026 -0.077,0.039 -0.129,0.039 -0.042,0 -0.089,-0.009 -0.141,-0.027 -0.052,-0.019 -0.111,-0.038 -0.176,-0.059 -0.065,-0.021 -0.137,-0.04 -0.215,-0.059 -0.078,-0.019 -0.164,-0.027 -0.258,-0.027 -0.109,0 -0.219,0.022 -0.328,0.066 -0.109,0.044 -0.223,0.113 -0.34,0.207 -0.117,0.094 -0.24,0.219 -0.367,0.375 -0.128,0.156 -0.265,0.349 -0.41,0.578 l 0,4.344 c 0,0.052 -0.016,0.098 -0.047,0.137 -0.031,0.039 -0.085,0.071 -0.16,0.098 -0.076,0.026 -0.176,0.046 -0.301,0.059 -0.125,0.013 -0.284,0.02 -0.477,0.02 -0.193,0 -0.352,-0.007 -0.477,-0.02 -0.125,-0.013 -0.226,-0.032 -0.301,-0.059 -0.076,-0.026 -0.129,-0.059 -0.16,-0.098 -0.031,-0.039 -0.047,-0.085 -0.047,-0.137 l 0,-6.969 c 0,-0.052 0.013,-0.098 0.039,-0.137 0.026,-0.039 0.073,-0.071 0.141,-0.098 0.067,-0.026 0.155,-0.046 0.262,-0.059 0.106,-0.013 0.241,-0.02 0.402,-0.02 0.167,0 0.305,0.007 0.414,0.02 0.109,0.013 0.194,0.032 0.254,0.059 0.06,0.026 0.103,0.059 0.129,0.098 0.026,0.039 0.039,0.085 0.039,0.137 l 0,0.867 c 0.182,-0.261 0.354,-0.476 0.516,-0.645 0.161,-0.169 0.315,-0.304 0.461,-0.402 0.146,-0.099 0.292,-0.168 0.438,-0.207 0.146,-0.039 0.292,-0.059 0.438,-0.059 0.067,0 0.141,0.004 0.219,0.012 0.078,0.008 0.159,0.021 0.242,0.039 0.083,0.019 0.156,0.039 0.219,0.063 0.063,0.024 0.108,0.048 0.137,0.074 0.028,0.026 0.049,0.055 0.063,0.086 0.013,0.031 0.024,0.074 0.035,0.129 0.01,0.055 0.018,0.137 0.023,0.246 0.005,0.111 0.008,0.259 0.008,0.446 z"
           id="path78"
           inkscape:connector-curvature="0" /></g><g
         id="g80"><path
           d="m 239.678,305.157 c 0,0.031 -0.001,0.073 -0.004,0.125 -0.003,0.052 -0.011,0.11 -0.023,0.176 -0.012,0.066 -0.03,0.132 -0.051,0.199 -0.021,0.067 -0.047,0.13 -0.078,0.188 -0.031,0.058 -0.067,0.103 -0.109,0.137 -0.042,0.034 -0.089,0.051 -0.141,0.051 l -3.695,0 -0.688,3.438 3.5,0 c 0.063,0 0.108,0.022 0.137,0.066 0.029,0.044 0.043,0.105 0.043,0.184 0,0.042 -0.003,0.09 -0.008,0.145 -0.005,0.055 -0.015,0.112 -0.027,0.172 -0.012,0.06 -0.03,0.124 -0.051,0.191 -0.021,0.067 -0.047,0.128 -0.078,0.18 -0.031,0.052 -0.067,0.095 -0.109,0.129 -0.042,0.034 -0.089,0.051 -0.141,0.051 l -3.492,0 -0.844,4.211 c -0.005,0.042 -0.022,0.078 -0.051,0.109 -0.029,0.031 -0.07,0.056 -0.125,0.074 -0.055,0.018 -0.126,0.034 -0.215,0.047 -0.089,0.013 -0.198,0.02 -0.328,0.02 -0.13,0 -0.238,-0.007 -0.324,-0.02 -0.086,-0.013 -0.152,-0.028 -0.199,-0.047 -0.047,-0.019 -0.078,-0.043 -0.094,-0.074 -0.016,-0.031 -0.019,-0.067 -0.008,-0.109 l 1.875,-9.359 c 0.036,-0.203 0.117,-0.345 0.242,-0.426 0.125,-0.081 0.247,-0.121 0.367,-0.121 l 4.539,0 c 0.073,0 0.121,0.024 0.145,0.074 0.024,0.05 0.035,0.111 0.035,0.189 z"
           id="path82"
           inkscape:connector-curvature="0" /><path
           d="m 246.561,310.103 c 0,0.386 -0.036,0.778 -0.109,1.18 -0.073,0.402 -0.184,0.788 -0.332,1.16 -0.148,0.372 -0.337,0.723 -0.566,1.051 -0.229,0.328 -0.499,0.614 -0.809,0.859 -0.31,0.245 -0.661,0.438 -1.055,0.582 -0.394,0.144 -0.832,0.215 -1.316,0.215 -0.5,0 -0.929,-0.06 -1.285,-0.18 -0.356,-0.12 -0.649,-0.294 -0.879,-0.523 -0.23,-0.229 -0.398,-0.511 -0.508,-0.844 -0.11,-0.333 -0.164,-0.711 -0.164,-1.133 0,-0.386 0.035,-0.778 0.105,-1.18 0.07,-0.402 0.181,-0.786 0.332,-1.156 0.151,-0.37 0.34,-0.72 0.566,-1.051 0.226,-0.331 0.495,-0.618 0.805,-0.863 0.31,-0.245 0.661,-0.438 1.055,-0.582 0.394,-0.144 0.832,-0.215 1.316,-0.215 0.5,0 0.929,0.062 1.285,0.184 0.356,0.122 0.651,0.298 0.883,0.527 0.232,0.229 0.402,0.511 0.512,0.844 0.11,0.333 0.164,0.708 0.164,1.125 z m -1.36,0.078 c 0,-0.261 -0.027,-0.495 -0.082,-0.703 -0.055,-0.208 -0.146,-0.384 -0.273,-0.527 -0.127,-0.143 -0.294,-0.254 -0.5,-0.332 -0.206,-0.078 -0.454,-0.117 -0.746,-0.117 -0.313,0 -0.597,0.056 -0.852,0.168 -0.255,0.112 -0.483,0.263 -0.684,0.453 -0.201,0.19 -0.375,0.413 -0.523,0.668 -0.148,0.255 -0.271,0.527 -0.367,0.816 -0.096,0.289 -0.168,0.586 -0.215,0.891 -0.047,0.305 -0.07,0.603 -0.07,0.895 0,0.261 0.028,0.495 0.086,0.703 0.058,0.208 0.149,0.386 0.277,0.531 0.128,0.145 0.293,0.258 0.496,0.336 0.203,0.078 0.45,0.117 0.742,0.117 0.317,0 0.603,-0.056 0.855,-0.168 0.252,-0.112 0.479,-0.265 0.68,-0.457 0.201,-0.192 0.375,-0.417 0.523,-0.672 0.148,-0.255 0.271,-0.528 0.367,-0.82 0.096,-0.292 0.168,-0.589 0.215,-0.891 0.047,-0.302 0.071,-0.599 0.071,-0.891 z"
           id="path84"
           inkscape:connector-curvature="0" /><path
           d="m 254.537,307.751 c 0,0.063 -0.022,0.128 -0.066,0.195 -0.044,0.067 -0.132,0.161 -0.262,0.281 l -3.055,2.617 2.102,3.539 c 0.052,0.094 0.089,0.173 0.109,0.238 0.02,0.065 0.031,0.116 0.031,0.152 0,0.047 -0.011,0.087 -0.031,0.121 -0.02,0.034 -0.059,0.062 -0.113,0.082 -0.054,0.02 -0.128,0.038 -0.219,0.051 -0.091,0.013 -0.204,0.02 -0.34,0.02 -0.146,0 -0.261,-0.004 -0.344,-0.012 -0.083,-0.008 -0.151,-0.022 -0.203,-0.043 -0.052,-0.021 -0.091,-0.047 -0.117,-0.078 -0.026,-0.031 -0.05,-0.07 -0.07,-0.117 l -2.25,-3.891 -0.773,3.898 c -0.011,0.042 -0.028,0.077 -0.055,0.105 -0.027,0.028 -0.066,0.054 -0.121,0.074 -0.055,0.02 -0.125,0.036 -0.211,0.047 -0.086,0.011 -0.191,0.016 -0.316,0.016 -0.125,0 -0.228,-0.005 -0.309,-0.016 -0.081,-0.011 -0.144,-0.024 -0.188,-0.043 -0.044,-0.019 -0.074,-0.043 -0.09,-0.074 -0.016,-0.031 -0.019,-0.067 -0.008,-0.109 l 2.086,-10.438 c 0.011,-0.042 0.027,-0.078 0.051,-0.109 0.024,-0.031 0.063,-0.058 0.117,-0.078 0.054,-0.02 0.125,-0.036 0.211,-0.047 0.086,-0.011 0.194,-0.016 0.324,-0.016 0.125,0 0.228,0.005 0.309,0.016 0.081,0.011 0.144,0.026 0.188,0.047 0.044,0.021 0.071,0.047 0.082,0.078 0.011,0.031 0.013,0.067 0.008,0.109 l -1.273,6.359 3.258,-2.945 c 0.042,-0.047 0.089,-0.087 0.141,-0.121 0.052,-0.034 0.112,-0.06 0.18,-0.078 0.068,-0.018 0.147,-0.031 0.238,-0.039 0.091,-0.008 0.199,-0.012 0.324,-0.012 0.125,0 0.23,0.004 0.316,0.012 0.086,0.008 0.153,0.021 0.203,0.039 0.05,0.018 0.085,0.042 0.105,0.07 0.02,0.028 0.031,0.064 0.031,0.1 z"
           id="path86"
           inkscape:connector-curvature="0" /><path
           d="m 260.404,314.806 c -0.005,0.042 -0.021,0.078 -0.047,0.109 -0.026,0.031 -0.063,0.056 -0.109,0.074 -0.046,0.018 -0.108,0.032 -0.184,0.043 -0.076,0.011 -0.168,0.016 -0.277,0.016 -0.104,0 -0.191,-0.005 -0.262,-0.016 -0.071,-0.011 -0.125,-0.024 -0.164,-0.043 -0.039,-0.019 -0.065,-0.043 -0.078,-0.074 -0.013,-0.031 -0.015,-0.067 -0.004,-0.109 l 0.258,-1.32 c -0.083,0.177 -0.215,0.363 -0.395,0.559 -0.18,0.196 -0.391,0.376 -0.633,0.543 -0.242,0.167 -0.508,0.302 -0.797,0.406 -0.289,0.104 -0.582,0.156 -0.879,0.156 -0.354,0 -0.652,-0.048 -0.895,-0.145 -0.243,-0.097 -0.438,-0.229 -0.586,-0.398 -0.148,-0.169 -0.255,-0.37 -0.32,-0.602 -0.065,-0.232 -0.098,-0.485 -0.098,-0.762 0,-0.172 0.012,-0.348 0.035,-0.527 0.023,-0.179 0.054,-0.36 0.09,-0.543 l 0.867,-4.406 c 0.011,-0.036 0.028,-0.07 0.055,-0.102 0.027,-0.032 0.066,-0.058 0.121,-0.078 0.055,-0.02 0.125,-0.035 0.211,-0.043 0.086,-0.008 0.191,-0.012 0.316,-0.012 0.125,0 0.228,0.004 0.309,0.012 0.081,0.008 0.144,0.022 0.188,0.043 0.044,0.021 0.073,0.047 0.086,0.078 0.013,0.031 0.017,0.065 0.012,0.102 l -0.859,4.359 c -0.031,0.136 -0.055,0.276 -0.07,0.422 -0.015,0.146 -0.023,0.294 -0.023,0.445 0,0.156 0.015,0.298 0.043,0.426 0.028,0.128 0.078,0.238 0.148,0.332 0.07,0.094 0.161,0.167 0.273,0.219 0.112,0.052 0.249,0.078 0.41,0.078 0.276,0 0.559,-0.079 0.848,-0.238 0.289,-0.159 0.559,-0.379 0.809,-0.66 0.25,-0.281 0.473,-0.616 0.668,-1.004 0.195,-0.388 0.34,-0.812 0.434,-1.27 l 0.617,-3.109 c 0.005,-0.036 0.022,-0.07 0.051,-0.102 0.029,-0.032 0.07,-0.058 0.125,-0.078 0.055,-0.02 0.125,-0.035 0.211,-0.043 0.086,-0.008 0.191,-0.012 0.316,-0.012 0.125,0 0.228,0.004 0.309,0.012 0.081,0.008 0.144,0.022 0.188,0.043 0.044,0.021 0.073,0.047 0.086,0.078 0.013,0.031 0.017,0.065 0.012,0.102 l -1.416,7.039 z"
           id="path88"
           inkscape:connector-curvature="0" /><path
           d="m 268.123,308.157 c 0,0.052 -0.008,0.121 -0.023,0.207 -0.015,0.086 -0.038,0.171 -0.066,0.254 -0.028,0.083 -0.063,0.153 -0.102,0.211 -0.039,0.058 -0.082,0.086 -0.129,0.086 -0.063,0 -0.137,-0.024 -0.223,-0.074 -0.086,-0.05 -0.191,-0.105 -0.316,-0.168 -0.125,-0.063 -0.274,-0.12 -0.449,-0.172 -0.175,-0.052 -0.382,-0.078 -0.621,-0.078 -0.229,0 -0.433,0.032 -0.609,0.098 -0.176,0.066 -0.325,0.153 -0.445,0.266 -0.12,0.113 -0.211,0.239 -0.273,0.383 -0.062,0.144 -0.094,0.293 -0.094,0.449 0,0.208 0.069,0.382 0.207,0.52 0.138,0.138 0.312,0.262 0.52,0.371 0.208,0.109 0.434,0.218 0.676,0.324 0.242,0.106 0.466,0.237 0.672,0.391 0.206,0.154 0.378,0.339 0.516,0.555 0.138,0.216 0.207,0.488 0.207,0.816 0,0.364 -0.071,0.704 -0.215,1.02 -0.144,0.316 -0.349,0.586 -0.617,0.813 -0.268,0.227 -0.593,0.403 -0.973,0.531 -0.38,0.128 -0.805,0.191 -1.273,0.191 -0.245,0 -0.476,-0.019 -0.691,-0.055 -0.215,-0.036 -0.411,-0.083 -0.586,-0.141 -0.175,-0.058 -0.324,-0.121 -0.449,-0.191 -0.125,-0.07 -0.222,-0.137 -0.289,-0.199 -0.042,-0.042 -0.071,-0.085 -0.09,-0.129 -0.019,-0.044 -0.027,-0.098 -0.027,-0.16 0,-0.042 0.003,-0.091 0.008,-0.148 0.005,-0.057 0.016,-0.117 0.031,-0.18 0.015,-0.063 0.032,-0.122 0.051,-0.18 0.019,-0.058 0.04,-0.109 0.066,-0.156 0.026,-0.047 0.052,-0.085 0.078,-0.113 0.026,-0.028 0.058,-0.043 0.094,-0.043 0.063,0 0.138,0.035 0.227,0.105 0.089,0.07 0.204,0.146 0.348,0.227 0.144,0.081 0.321,0.156 0.535,0.227 0.214,0.071 0.479,0.105 0.797,0.105 0.286,0 0.532,-0.035 0.738,-0.105 0.206,-0.07 0.376,-0.164 0.512,-0.281 0.136,-0.117 0.235,-0.254 0.301,-0.41 0.066,-0.156 0.098,-0.32 0.098,-0.492 0,-0.219 -0.067,-0.397 -0.203,-0.535 -0.136,-0.138 -0.306,-0.263 -0.512,-0.375 -0.206,-0.112 -0.429,-0.223 -0.668,-0.332 -0.239,-0.109 -0.462,-0.238 -0.668,-0.387 -0.206,-0.149 -0.378,-0.331 -0.516,-0.547 -0.138,-0.216 -0.207,-0.491 -0.207,-0.824 0,-0.344 0.067,-0.663 0.203,-0.957 0.136,-0.294 0.327,-0.55 0.574,-0.766 0.247,-0.216 0.544,-0.384 0.891,-0.504 0.347,-0.12 0.73,-0.18 1.152,-0.18 0.198,0 0.39,0.016 0.574,0.047 0.184,0.031 0.355,0.07 0.512,0.117 0.157,0.047 0.292,0.099 0.406,0.156 0.114,0.057 0.2,0.114 0.258,0.172 0.054,0.05 0.082,0.131 0.082,0.24 z"
           id="path90"
           inkscape:connector-curvature="0" /></g></g></g></svg>