<?xml version="1.0" encoding="UTF-8" standalone="no"?>
<!-- Created with Inkscape (http://www.inkscape.org/) -->
<svg xmlns:dc="http://purl.org/dc/elements/1.1/" xmlns:cc="http://web.resource.org/cc/" xmlns:rdf="http://www.w3.org/1999/02/22-rdf-syntax-ns#" xmlns:svg="http://www.w3.org/2000/svg" xmlns="http://www.w3.org/2000/svg" xmlns:xlink="http://www.w3.org/1999/xlink" xmlns:sodipodi="http://sodipodi.sourceforge.net/DTD/sodipodi-0.dtd" xmlns:inkscape="http://www.inkscape.org/namespaces/inkscape" width="600.0993" height="1058.5577" id="svg1435" sodipodi:version="0.32" inkscape:version="0.45" sodipodi:docbase="C:\Dokumente und Einstellungen\jser\Eigene Dateien\FLG\HomepageFLG\wiki.bnv-bamberg.de" sodipodi:docname="Lunar_eclipse.svg" version="1.0" inkscape:output_extension="org.inkscape.output.svg.inkscape" sodipodi:modified="true">
  <defs id="defs1437">
    <linearGradient inkscape:collect="always" id="linearGradient3028">
      <stop style="stop-color:#989898;stop-opacity:1;" offset="0" id="stop3030"/>
      <stop style="stop-color:#989898;stop-opacity:0;" offset="1" id="stop3032"/>
    </linearGradient>
    <radialGradient gradientTransform="matrix(1.5,0,0,1.888889,-175.34,-180.0604)" gradientUnits="userSpaceOnUse" xlink:href="#linearGradient14196" id="radialGradient14242" fy="202.56793" fx="350.68024" r="31.493126" cy="202.56793" cx="350.68024"/>
    <radialGradient gradientTransform="matrix(1.5,0,0,1.888889,-175.34,-180.0604)" gradientUnits="userSpaceOnUse" xlink:href="#linearGradient14202" id="radialGradient14240" fy="202.56793" fx="350.68024" r="31.493126" cy="202.56793" cx="350.68024"/>
    <radialGradient gradientTransform="matrix(1.5,0,0,1.888889,-175.34,-180.0604)" gradientUnits="userSpaceOnUse" xlink:href="#linearGradient7120" id="radialGradient14238" fy="202.56793" fx="350.68024" r="31.493126" cy="202.56793" cx="350.68024"/>
    <linearGradient gradientTransform="matrix(1,0,0,-1,2.1e-6,-169.9374)" gradientUnits="userSpaceOnUse" xlink:href="#linearGradient11102" id="linearGradient14236" y2="-116.77661" x2="344.54785" y1="-116.77661" x1="223.30243"/>
    <linearGradient gradientUnits="userSpaceOnUse" xlink:href="#linearGradient11102" id="linearGradient14234" y2="-116.77661" x2="344.54785" y1="-116.77661" x1="223.30243"/>
    <linearGradient gradientTransform="translate(-105.7601,33.61299)" gradientUnits="userSpaceOnUse" xlink:href="#linearGradient9113" id="linearGradient14232" y2="-118.53125" x2="450.15625" y1="-118.53125" x1="328.0625"/>
    <radialGradient gradientTransform="matrix(1.5,0,0,1.888889,-175.34,-180.0604)" gradientUnits="userSpaceOnUse" xlink:href="#linearGradient7120" id="radialGradient13213" fy="202.56793" fx="350.68024" r="31.493126" cy="202.56793" cx="350.68024"/>
    <radialGradient gradientTransform="matrix(1.5,0,0,1.888889,-175.34,-180.0604)" gradientUnits="userSpaceOnUse" xlink:href="#linearGradient14196" id="radialGradient13211" fy="202.56793" fx="350.68024" r="31.493126" cy="202.56793" cx="350.68024"/>
    <radialGradient gradientTransform="matrix(1.5,0,0,1.888889,-175.34,-180.0604)" gradientUnits="userSpaceOnUse" xlink:href="#linearGradient14202" id="radialGradient13199" fy="202.56793" fx="350.68024" r="31.493126" cy="202.56793" cx="350.68024"/>
    <linearGradient gradientTransform="matrix(1,0,0,-1,2.1e-6,-169.9374)" gradientUnits="userSpaceOnUse" xlink:href="#linearGradient11102" id="linearGradient13170" y2="-116.77661" x2="344.54785" y1="-116.77661" x1="223.30243"/>
    <linearGradient gradientUnits="userSpaceOnUse" xlink:href="#linearGradient11102" id="linearGradient13168" y2="-116.77661" x2="344.54785" y1="-116.77661" x1="223.30243"/>
    <linearGradient gradientTransform="translate(-105.7601,33.61299)" gradientUnits="userSpaceOnUse" xlink:href="#linearGradient9113" id="linearGradient13166" y2="-118.53125" x2="450.15625" y1="-118.53125" x1="328.0625"/>
    <linearGradient gradientTransform="matrix(1,0,0,-1,2.1e-6,-169.9374)" gradientUnits="userSpaceOnUse" xlink:href="#linearGradient11102" id="linearGradient11123" y2="-116.77661" x2="344.54785" y1="-116.77661" x1="223.30243"/>
    <linearGradient gradientUnits="userSpaceOnUse" xlink:href="#linearGradient11102" id="linearGradient11121" y2="-116.77661" x2="344.54785" y1="-116.77661" x1="223.30243"/>
    <linearGradient gradientTransform="translate(-105.7601,33.61299)" gradientUnits="userSpaceOnUse" xlink:href="#linearGradient9113" id="linearGradient11119" y2="-118.53125" x2="450.15625" y1="-118.53125" x1="328.0625"/>
    <clipPath id="clipPath6143">
      <path id="path6145" style="opacity:1;fill:#01b7ff;fill-opacity:1;fill-rule:nonzero;stroke:none;stroke-width:5;stroke-linecap:round;stroke-linejoin:round;stroke-miterlimit:4;stroke-dasharray:none;stroke-opacity:1" transform="matrix(0.608108,0,0,0.608108,159.7718,216.115)" d="M 397.91991,214.81526 C 397.92429,232.21153 383.82306,246.31632 366.42678,246.31632 C 349.03051,246.31632 334.92928,232.21153 334.93366,214.81526 C 334.92928,197.41899 349.03051,183.3142 366.42678,183.3142 C 383.82306,183.3142 397.92429,197.41899 397.91991,214.81526 z "/>
    </clipPath>
    <filter id="filter5168">
      <feGaussianBlur inkscape:collect="always" stdDeviation="2.1346354" id="feGaussianBlur5170"/>
    </filter>
    <filter id="filter4160">
      <feGaussianBlur inkscape:collect="always" stdDeviation="0.65610679" id="feGaussianBlur4162"/>
    </filter>
    <filter id="filter3167">
      <feGaussianBlur inkscape:collect="always" stdDeviation="3.335505" id="feGaussianBlur3169"/>
    </filter>
    <linearGradient id="linearGradient7120">
      <stop id="stop7122" offset="0" style="stop-color:#8e8e72;stop-opacity:1"/>
      <stop id="stop7124" offset="1" style="stop-color:#595a40;stop-opacity:1"/>
    </linearGradient>
    <linearGradient id="linearGradient9113">
      <stop id="stop9115" offset="0" style="stop-color:#757575;stop-opacity:1"/>
      <stop id="stop10090" offset="0.79577464" style="stop-color:#757575;stop-opacity:1"/>
      <stop id="stop9117" offset="1" style="stop-color:#757575;stop-opacity:0"/>
    </linearGradient>
    <linearGradient id="linearGradient11102">
      <stop id="stop11104" offset="0" style="stop-color:#bebebe;stop-opacity:1"/>
      <stop id="stop11106" offset="0.79577464" style="stop-color:#bebebe;stop-opacity:1"/>
      <stop id="stop11108" offset="1" style="stop-color:#bdbdbd;stop-opacity:0"/>
    </linearGradient>
    <linearGradient id="linearGradient14196">
      <stop id="stop14198" offset="0" style="stop-color:#d3d3c8;stop-opacity:1"/>
      <stop id="stop14200" offset="1" style="stop-color:#bebfa5;stop-opacity:1"/>
    </linearGradient>
    <linearGradient id="linearGradient14202">
      <stop id="stop14204" offset="0" style="stop-color:#afaf9b;stop-opacity:1"/>
      <stop id="stop14206" offset="1" style="stop-color:#7e805b;stop-opacity:1"/>
    </linearGradient>
    <linearGradient inkscape:collect="always" xlink:href="#linearGradient3028" id="linearGradient3034" x1="81.914375" y1="822.03632" x2="68.048195" y2="1123.0619" gradientUnits="userSpaceOnUse"/>
  </defs>
  <sodipodi:namedview id="base" pagecolor="#ffffff" bordercolor="#666666" borderopacity="1.0" inkscape:pageopacity="0.0" inkscape:pageshadow="2" inkscape:zoom="0.49028974" inkscape:cx="300.04965" inkscape:cy="529.27887" inkscape:document-units="px" inkscape:current-layer="layer1" inkscape:window-width="1024" inkscape:window-height="720" inkscape:window-x="0" inkscape:window-y="21"/>
  <metadata id="metadata1440">
    <rdf:RDF>
      <cc:Work rdf:about="">
        <dc:format>image/svg+xml</dc:format>
        <dc:type rdf:resource="http://purl.org/dc/dcmitype/StillImage"/>
      </cc:Work>
    </rdf:RDF>
  </metadata>
  <g inkscape:label="Layer 1" inkscape:groupmode="layer" id="layer1" transform="translate(82.03115,-29.10473)">
    <text xml:space="preserve" style="font-size:21.23225975px;font-style:normal;font-weight:normal;text-align:center;line-height:125%;writing-mode:lr-tb;text-anchor:middle;fill:#000000;fill-opacity:1;stroke:none;stroke-width:1px;stroke-linecap:butt;stroke-linejoin:miter;stroke-opacity:1;font-family:Bitstream Vera Sans" x="426.44522" y="712.45746" id="text2460" sodipodi:linespacing="125%"><tspan sodipodi:role="line" x="426.44522" y="712.45746" id="tspan2479">Halbschatten</tspan></text>
    <text xml:space="preserve" style="font-size:21.23225975px;font-style:normal;font-weight:normal;text-align:center;line-height:125%;writing-mode:lr-tb;text-anchor:middle;fill:#000000;fill-opacity:1;stroke:none;stroke-width:1px;stroke-linecap:butt;stroke-linejoin:miter;stroke-opacity:1;font-family:Bitstream Vera Sans" x="406.69138" y="660.09247" id="text2464" sodipodi:linespacing="125%"><tspan sodipodi:role="line" id="tspan2466" x="406.69138" y="660.09247">Kernschatten</tspan><tspan sodipodi:role="line" x="406.69138" y="686.63279" id="tspan2476"/></text>
    <path id="path2409" style="fill:url(#linearGradient3034);fill-opacity:1;stroke:none;stroke-width:4;stroke-miterlimit:4;overflow:visible" d="M -41.324238,1085.4493 L 508.4747,1085.4493 L 228.33541,433.36437 L -41.324238,1085.4493 z " sodipodi:nodetypes="cccc"/>
    <path id="path2422" style="fill:yellow;fill-opacity:1;fill-rule:evenodd;stroke:none;stroke-width:4;stroke-linecap:butt;stroke-linejoin:miter;stroke-miterlimit:4;stroke-opacity:1" d="M 335.24633,175.64582 L 116.5742,179.21725 L 167.52841,584.91097 L 286.2912,575.36555 L 335.24633,175.64582 z " sodipodi:nodetypes="ccccc"/>
    <path id="path2427" style="fill:#545454;fill-opacity:1;fill-rule:evenodd;stroke:none;stroke-width:4;stroke-linecap:butt;stroke-linejoin:miter;stroke-miterlimit:4;stroke-opacity:1" d="M 287.11377,589.46259 L 167.46936,588.62937 L 228.25984,1080.5399 L 287.11377,589.46259 z " sodipodi:nodetypes="cccc"/>
    <path id="path2420" style="fill:none;fill-opacity:0.75;fill-rule:evenodd;stroke:black;stroke-width:4;stroke-linecap:butt;stroke-linejoin:miter;stroke-miterlimit:4;stroke-opacity:1" d="M 112.52005,148.74807 L 227.96093,1085.6625 L 338.42169,151.25859" sodipodi:nodetypes="ccc"/>
    <path id="path2335" style="fill:none;stroke:black;stroke-width:4;stroke-miterlimit:4;overflow:visible" d="M 127.53411,200.69888 L 509.80028,1084.9634" sodipodi:nodetypes="cc"/>
    <path style="fill:#ffdc00;fill-opacity:1;stroke:black;stroke-width:4;stroke-miterlimit:4;stroke-dasharray:none;overflow:visible" id="path2387" d="M 338.70497,144.35169 C 338.70497,206.88658 288.03576,257.59009 225.44943,257.59009 C 162.93169,257.59009 112.23676,206.88658 112.23676,144.35169 C 112.23676,81.82538 162.92311,31.10473 225.44943,31.10473 C 288.03576,31.10473 338.70497,81.8168 338.70497,144.35169 z " class="st8"/>
    <path id="path2405" style="fill:none;stroke:black;stroke-width:4;stroke-miterlimit:4;overflow:visible" d="M 329.33719,191.10243 L -42.163934,1084.8409" sodipodi:nodetypes="cc"/>
    <g id="g2126" transform="translate(1.428512,370.0001)">
      <path class="st8" d="M 248.3827,446.34844 C 248.3827,458.86701 238.23947,469.01711 225.7106,469.01711 C 213.19546,469.01711 203.04707,458.86701 203.04707,446.34844 C 203.04707,433.83158 213.19374,423.67805 225.7106,423.67805 C 238.23947,423.67805 248.3827,433.82986 248.3827,446.34844 z " id="path2355" style="fill:#989898;fill-opacity:1;stroke:black;stroke-width:4.00000286;stroke-miterlimit:4;stroke-dasharray:none;overflow:visible"/>
      <path id="path2357" d="M 219.33125,431.16137 C 216.23094,431.97614 215.30788,434.17124 215.30788,438.00109 C 215.30788,438.40201 220.70248,439.83419 220.94059,440.01277 C 222.64971,441.29461 223.39754,440.73158 224.96396,437.59875 C 225.09111,437.34444 229.90623,441.50663 230.59667,442.02445 C 233.48467,444.19046 231.1527,446.77564 229.38966,447.65716 C 226.90288,448.90056 228.84577,453.05138 228.18265,455.70389 C 227.15316,459.82182 223.58672,460.84915 228.58499,463.34828 C 231.76175,464.93667 234.53647,463.19147 236.22938,460.93427 C 237.09815,459.77591 235.82704,456.20062 235.82704,454.89922 C 235.82704,454.62612 240.09723,449.01969 240.65508,448.46184 C 241.04108,448.07584 241.91309,442.22276 242.26442,440.81744 C 242.79858,438.68082 240.11893,436.12412 239.44807,434.7824 C 238.02545,431.93717 237.27394,430.98343 234.2177,429.14969 C 231.96935,427.80068 230.23849,426.94787 227.78031,426.33333 C 225.9912,425.88605 223.61554,428.61689 222.54994,429.14969 C 220.85505,429.99713 221.80325,430.17257 219.33125,431.16137 z " style="fill:#545454;fill-opacity:1;fill-rule:evenodd;stroke:none;stroke-width:1px;stroke-linecap:butt;stroke-linejoin:miter;stroke-opacity:1"/>
      <path sodipodi:nodetypes="css" class="st8" d="M 248.3827,446.34844 C 248.3827,458.86701 238.23947,469.01711 225.7106,469.01711 C 213.19546,469.01711 203.04707,458.86701 203.04707,446.34844" id="path2363" style="opacity:0.7;fill:black;fill-opacity:1;stroke:none;stroke-width:4.00000525;stroke-miterlimit:4;stroke-dasharray:none;overflow:visible"/>
    </g>
    <text xml:space="preserve" style="font-size:48px" x="152.718" y="157.3109" id="text2472"><tspan sodipodi:role="line" id="tspan2474" x="152.718" y="157.3109">Sonne</tspan></text>
    <text xml:space="preserve" style="font-size:48px" x="21.343901" y="589.47485" id="text2476"><tspan sodipodi:role="line" id="tspan2478" x="21.343901" y="589.47485">Erde</tspan></text>
    <path style="opacity:0.8;fill:none;fill-opacity:0.75;fill-rule:evenodd;stroke:black;stroke-width:2;stroke-linecap:butt;stroke-linejoin:miter;stroke-miterlimit:4;stroke-dasharray:none;stroke-opacity:1" d="M 399.14286,669.50506 L 248.85714,669.50506" id="path2468" sodipodi:nodetypes="cc"/>
    <path style="opacity:0.8;fill:none;fill-opacity:0.75;fill-rule:evenodd;stroke:black;stroke-width:2;stroke-linecap:butt;stroke-linejoin:miter;stroke-miterlimit:4;stroke-dasharray:none;stroke-opacity:1" d="M 398.00001,720.3622 L 318.57143,720.3622" id="path2470" sodipodi:nodetypes="cc"/>
    <g id="g2118" transform="matrix(0.52689,0,0,0.52689,109.4011,248.9489)">
      <path class="st8" d="M 338.9491,644.35169 C 338.9491,706.88658 288.27989,757.59009 225.69356,757.59009 C 163.17582,757.59009 112.48089,706.88658 112.48089,644.35169 C 112.48089,581.82538 163.16724,531.10473 225.69356,531.10473 C 288.27989,531.10473 338.9491,581.8168 338.9491,644.35169 z " id="path2050" style="fill:#3d00b3;stroke:black;stroke-width:4;stroke-miterlimit:4;stroke-dasharray:none;overflow:visible"/>
      <path class="st1" d="M 174.10723,598.38899 L 165.34514,599.54641 L 160.0896,611.2149 L 151.9448,611.80647 L 144.36586,619.38542 L 140.85931,631.03677 L 153.66807,633.96032 L 158.33204,622.87482 L 162.45588,627.54736 L 172.94123,619.38542 L 175.84764,629.87935 L 185.167,636.30088 L 180.51161,647.9608 L 188.67355,646.21181 L 193.92909,634.54332 L 203.27417,635.14346 L 191.03983,624.63238 L 202.11675,619.39399 L 207.34657,627.55594 L 215.54281,636.90102 L 203.27417,643.31398 L 212.01054,647.96937 L 202.6826,650.3185 L 195.67808,649.12679 C 195.67808,649.12679 186.35014,656.73146 183.44373,657.31445 C 180.51161,657.88888 165.92813,664.31898 165.92813,664.31898 L 156.58305,674.21276 L 157.20034,683.55785 L 157.76619,691.73694 L 160.6726,701.64787 L 164.17057,705.1287 L 177.00506,703.96271 L 191.0484,699.88173 L 203.28274,700.44758 L 207.35514,708.62667 L 214.93409,720.87816 L 216.7088,727.29112 L 235.95624,725.53356 L 242.96077,715.0482 L 239.45422,698.70717 L 235.34752,683.52355 L 230.67498,671.86363 L 227.17701,652.0332 L 237.18225,660.7267 L 241.28894,646.06606 L 245.17272,641.68502 L 252.8374,650.8672 L 262.76548,652.62477 L 274.4254,663.12727 L 281.39563,668.97437 L 284.55924,662.81862 L 283.03317,642.4652 L 283.76191,632.21991 L 296.03055,629.88792 L 293.68999,622.30897 L 297.18797,604.21038 L 292.51542,594.29087 L 298.34538,589.63548 L 290.77501,579.14155 L 286.11962,572.72002 L 272.10199,568.05605 L 251.08842,568.05605 L 238.85407,560.48568 L 227.76858,555.22157 L 226.01101,563.97508 L 208.52971,558.14512 L 198.58448,558.14512 L 178.75405,568.05605 L 185.75857,572.13703 L 175.84764,577.39256 L 175.84764,583.22252 L 182.85217,583.81409 L 191.61425,576.218 L 197.43564,581.47354 L 191.0484,587.88649 L 178.1882,590.22705 L 174.10723,598.38899 z " id="path2052" style="fill:#e3dcbb;overflow:visible"/>
      <polygon transform="matrix(8.57347,0,0,8.57347,-2243.637,-1817.778)" class="st1" points="279.672,279.416 279.91,279.813 280.705,279.813 280.784,280.606 279.436,281.482 278.877,281.798 278.877,281.005 278.561,280.288 279.672,279.416 " id="polygon2054" style="fill:#e3dcbb;overflow:visible"/>
      <polygon transform="matrix(8.57347,0,0,8.57347,-2243.637,-1817.778)" class="st1" points="297.498,281.586 297.975,283.333 296.941,285.318 297.18,285.716 298.293,284.285 298.451,281.903 297.498,281.586 " id="polygon2056" style="fill:#e3dcbb;overflow:visible"/>
      <polygon transform="matrix(8.57347,0,0,8.57347,-2243.637,-1817.778)" class="st1" points="296.128,289.038 296.843,289.831 297.238,288.482 296.684,288.005 296.128,289.038 " id="polygon2058" style="fill:#e3dcbb;overflow:visible"/>
      <path sodipodi:nodetypes="css" class="st8" d="M 338.9491,644.35169 C 338.9491,706.88658 288.27989,757.59009 225.69356,757.59009 C 163.17582,757.59009 112.48089,706.88658 112.48089,644.35169" id="path2323" style="opacity:0.7;fill:black;fill-opacity:1;stroke:none;stroke-width:4;stroke-miterlimit:4;stroke-dasharray:none;overflow:visible"/>
    </g>
    <text xml:space="preserve" style="font-size:48px" x="-39.599228" y="748.87762" id="text2450"><tspan sodipodi:role="line" id="tspan2452" x="-39.599228" y="748.87762">Mond</tspan></text>
    <g id="g3036" transform="matrix(0.976856,0.213897,-0.213897,0.976856,-106.447,304.2756)">
      <path class="st8" d="M 248.3827,446.34844 C 248.3827,458.86701 238.23947,469.01711 225.7106,469.01711 C 213.19546,469.01711 203.04707,458.86701 203.04707,446.34844 C 203.04707,433.83158 213.19374,423.67805 225.7106,423.67805 C 238.23947,423.67805 248.3827,433.82986 248.3827,446.34844 z " id="path3038" style="fill:#989898;fill-opacity:1;stroke:black;stroke-width:4.00000286;stroke-miterlimit:4;stroke-dasharray:none;overflow:visible"/>
      <path id="path3040" d="M 219.33125,431.16137 C 216.23094,431.97614 215.30788,434.17124 215.30788,438.00109 C 215.30788,438.40201 220.70248,439.83419 220.94059,440.01277 C 222.64971,441.29461 223.39754,440.73158 224.96396,437.59875 C 225.09111,437.34444 229.90623,441.50663 230.59667,442.02445 C 233.48467,444.19046 231.1527,446.77564 229.38966,447.65716 C 226.90288,448.90056 228.84577,453.05138 228.18265,455.70389 C 227.15316,459.82182 223.58672,460.84915 228.58499,463.34828 C 231.76175,464.93667 234.53647,463.19147 236.22938,460.93427 C 237.09815,459.77591 235.82704,456.20062 235.82704,454.89922 C 235.82704,454.62612 240.09723,449.01969 240.65508,448.46184 C 241.04108,448.07584 241.91309,442.22276 242.26442,440.81744 C 242.79858,438.68082 240.11893,436.12412 239.44807,434.7824 C 238.02545,431.93717 237.27394,430.98343 234.2177,429.14969 C 231.96935,427.80068 230.23849,426.94787 227.78031,426.33333 C 225.9912,425.88605 223.61554,428.61689 222.54994,429.14969 C 220.85505,429.99713 221.80325,430.17257 219.33125,431.16137 z " style="fill:#545454;fill-opacity:1;fill-rule:evenodd;stroke:none;stroke-width:1px;stroke-linecap:butt;stroke-linejoin:miter;stroke-opacity:1"/>
      <path sodipodi:nodetypes="css" class="st8" d="M 248.3827,446.34844 C 248.3827,458.86701 238.23947,469.01711 225.7106,469.01711 C 213.19546,469.01711 203.04707,458.86701 203.04707,446.34844" id="path3042" style="opacity:0.7;fill:black;fill-opacity:1;stroke:none;stroke-width:4.00000525;stroke-miterlimit:4;stroke-dasharray:none;overflow:visible"/>
    </g>
    <g id="g3044" transform="matrix(0.991244,0.132042,-0.132042,0.991244,-41.94475,336.3296)">
      <path class="st8" d="M 248.3827,446.34844 C 248.3827,458.86701 238.23947,469.01711 225.7106,469.01711 C 213.19546,469.01711 203.04707,458.86701 203.04707,446.34844 C 203.04707,433.83158 213.19374,423.67805 225.7106,423.67805 C 238.23947,423.67805 248.3827,433.82986 248.3827,446.34844 z " id="path3046" style="fill:#989898;fill-opacity:1;stroke:black;stroke-width:4.00000286;stroke-miterlimit:4;stroke-dasharray:none;overflow:visible"/>
      <path id="path3048" d="M 219.33125,431.16137 C 216.23094,431.97614 215.30788,434.17124 215.30788,438.00109 C 215.30788,438.40201 220.70248,439.83419 220.94059,440.01277 C 222.64971,441.29461 223.39754,440.73158 224.96396,437.59875 C 225.09111,437.34444 229.90623,441.50663 230.59667,442.02445 C 233.48467,444.19046 231.1527,446.77564 229.38966,447.65716 C 226.90288,448.90056 228.84577,453.05138 228.18265,455.70389 C 227.15316,459.82182 223.58672,460.84915 228.58499,463.34828 C 231.76175,464.93667 234.53647,463.19147 236.22938,460.93427 C 237.09815,459.77591 235.82704,456.20062 235.82704,454.89922 C 235.82704,454.62612 240.09723,449.01969 240.65508,448.46184 C 241.04108,448.07584 241.91309,442.22276 242.26442,440.81744 C 242.79858,438.68082 240.11893,436.12412 239.44807,434.7824 C 238.02545,431.93717 237.27394,430.98343 234.2177,429.14969 C 231.96935,427.80068 230.23849,426.94787 227.78031,426.33333 C 225.9912,425.88605 223.61554,428.61689 222.54994,429.14969 C 220.85505,429.99713 221.80325,430.17257 219.33125,431.16137 z " style="fill:#545454;fill-opacity:1;fill-rule:evenodd;stroke:none;stroke-width:1px;stroke-linecap:butt;stroke-linejoin:miter;stroke-opacity:1"/>
      <path sodipodi:nodetypes="css" class="st8" d="M 248.3827,446.34844 C 248.3827,458.86701 238.23947,469.01711 225.7106,469.01711 C 213.19546,469.01711 203.04707,458.86701 203.04707,446.34844" id="path3050" style="opacity:0.7;fill:black;fill-opacity:1;stroke:none;stroke-width:4.00000525;stroke-miterlimit:4;stroke-dasharray:none;overflow:visible"/>
    </g>
    <path sodipodi:nodetypes="css" class="st8" d="M 101.76459,805.74124 C 103.42439,793.33314 114.82385,784.61756 127.24211,786.27872 C 139.64674,787.93806 148.35975,799.34407 146.69995,811.75208" id="path3052" style="opacity:0.4;fill:black;fill-opacity:1;stroke:none;stroke-width:4.00000525;stroke-miterlimit:4;stroke-dasharray:none;overflow:visible"/>
    <path sodipodi:nodetypes="css" class="st8" d="M 248.95739,816.47764 C 248.98392,803.95911 238.86221,793.78751 226.33339,793.76097 C 213.81827,793.73447 203.6484,803.86303 203.62187,816.38164" id="path3054" style="opacity:0.7;fill:black;fill-opacity:1;stroke:none;stroke-width:4.00000525;stroke-miterlimit:4;stroke-dasharray:none;overflow:visible"/>
  </g>
<head xmlns=""/></svg>