<?xml version="1.0" encoding="iso-8859-1"?>
<!-- Generator: Adobe Illustrator 10.0, SVG Export Plug-In . SVG Version: 3.0.0 Build 43)  -->
<!DOCTYPE svg PUBLIC "-//W3C//DTD SVG 1.0//EN"    "http://www.w3.org/TR/2001/PR-SVG-20010719/DTD/svg10.dtd" [
	<!ENTITY ns_flows "http://ns.adobe.com/Flows/1.0/">
	<!ENTITY ns_svg "http://www.w3.org/2000/svg">
	<!ENTITY ns_xlink "http://www.w3.org/1999/xlink">
]>
<svg  xmlns:xlink="&ns_xlink;" xmlns="http://www.w3.org/2000/svg" xmlns:a="http://ns.adobe.com/AdobeSVGViewerExtensions/3.0/"
	 width="618.75" height="462.229" viewBox="0 0 618.75 462.229" overflow="visible" enable-background="new 0 0 618.75 462.229"
	 xml:space="preserve">
	<g id="Layer_1" stroke="#000000">
		<g>
			<text transform="matrix(1 0 0 1 172.875 24)" font-family="'Verdana'" font-size="24"><tspan x="0" y="0" stroke="none">S</tspan><tspan x="16.502" y="0" stroke="none">W</tspan><tspan x="40.497" y="0" stroke="none">I</tspan><tspan x="50.238" y="0" stroke="none">S</tspan><tspan x="66.741" y="0" stroke="none">H</tspan><tspan x="84.751" y="0" stroke="none"> </tspan><tspan x="92.997" y="0" stroke="none">F</tspan><tspan x="106.502" y="0" stroke="none">l</tspan><tspan x="113.256" y="0" stroke="none">a</tspan><tspan x="127.502" y="0" stroke="none">s</tspan><tspan x="140.246" y="0" stroke="none">h</tspan><tspan x="155.242" y="0" stroke="none"> </tspan><tspan x="163.487" y="0" stroke="none">A</tspan><tspan x="179.99" y="0" stroke="none">n</tspan><tspan x="194.985" y="0" stroke="none">i</tspan><tspan x="201.739" y="0" stroke="none">m</tspan><tspan x="224.987" y="0" stroke="none">a</tspan><tspan x="239.233" y="0" stroke="none">t</tspan><tspan x="248.978" y="0" stroke="none">i</tspan><tspan x="255.732" y="0" stroke="none">o</tspan><tspan x="269.986" y="0" stroke="none">n</tspan></text>
			<path fill="none" stroke-width="0.75" stroke-linecap="square" stroke-miterlimit="10" d="M210.375,66h108v48h-108V66z"/>
			<text transform="matrix(1 0 0 1 238.125 96.75)" font-family="'Verdana'" font-size="18"><tspan x="0" y="0" stroke="none">M</tspan><tspan x="15.008" y="0" stroke="none">o</tspan><tspan x="26.257" y="0" stroke="none">v</tspan><tspan x="36.765" y="0" stroke="none">i</tspan><tspan x="41.272" y="0" stroke="none">e</tspan></text>
			<path fill="none" stroke-width="0.75" stroke-linecap="square" stroke-miterlimit="10" d="M210.375,138h108v48h-108V138z"/>
			<text transform="matrix(1 0 0 1 237.375 168.75)" font-family="'Verdana'" font-size="18"><tspan x="0" y="0" stroke="none">S</tspan><tspan x="11.999" y="0" stroke="none">c</tspan><tspan x="21.754" y="0" stroke="none">e</tspan><tspan x="32.261" y="0" stroke="none">n</tspan><tspan x="43.508" y="0" stroke="none">e</tspan></text>
			<path fill="none" stroke-width="0.75" stroke-linecap="square" stroke-miterlimit="10" d="M210.375,210h108v48h-108V210z"/>
			<text transform="matrix(1 0 0 1 235.125 240.7505)" font-family="'Verdana'" font-size="18"><tspan x="0" y="0" stroke="none">O</tspan><tspan x="14.258" y="0" stroke="none">b</tspan><tspan x="25.509" y="0" stroke="none">j</tspan><tspan x="31.507" y="0" stroke="none">e</tspan><tspan x="42.014" y="0" stroke="none">c</tspan><tspan x="51.77" y="0" stroke="none">t</tspan></text>
			<path fill="none" stroke-width="0.75" stroke-linecap="square" stroke-miterlimit="10" d="M510.375,144h108v48h-108V144z"/>
			<text transform="matrix(1 0 0 1 537.3755 174.75)" font-family="'Verdana'" font-size="18"><tspan x="0" y="0" stroke="none">S</tspan><tspan x="11.999" y="0" stroke="none">c</tspan><tspan x="21.755" y="0" stroke="none">e</tspan><tspan x="32.262" y="0" stroke="none">n</tspan><tspan x="43.508" y="0" stroke="none">e</tspan></text>
			<path fill="none" stroke-width="0.75" stroke-linecap="square" stroke-miterlimit="10" d="M510.375,72h108v48h-108V72z"/>
			<text transform="matrix(1 0 0 1 538.1255 102.75)" font-family="'Verdana'" font-size="18"><tspan x="0" y="0" stroke="none">M</tspan><tspan x="15.008" y="0" stroke="none">o</tspan><tspan x="26.257" y="0" stroke="none">v</tspan><tspan x="36.765" y="0" stroke="none">i</tspan><tspan x="41.272" y="0" stroke="none">e</tspan></text>
			<path fill="none" stroke-width="0.75" stroke-linecap="square" stroke-miterlimit="10" d="M96.375,300h108v48h-108V300z"/>
			<text transform="matrix(1 0 0 1 119.625 330.7505)" font-family="'Verdana'" font-size="18"><tspan x="0" y="0" stroke="none">S</tspan><tspan x="11.999" y="0" stroke="none">i</tspan><tspan x="16.506" y="0" stroke="none">m</tspan><tspan x="33.762" y="0" stroke="none">p</tspan><tspan x="45.769" y="0" stroke="none">l</tspan><tspan x="50.276" y="0" stroke="none">e</tspan></text>
			<path fill="none" stroke-width="0.75" stroke-linecap="square" stroke-miterlimit="10" d="M342.375,300h108v48h-108V300z"/>
			<text transform="matrix(1 0 0 1 357.3755 330.7505)" font-family="'Verdana'" font-size="18"><tspan x="0" y="0" stroke="none">C</tspan><tspan x="12.748" y="0" stroke="none">o</tspan><tspan x="23.997" y="0" stroke="none">m</tspan><tspan x="41.253" y="0" stroke="none">p</tspan><tspan x="52.504" y="0" stroke="none">l</tspan><tspan x="57.012" y="0" stroke="none">e</tspan><tspan x="67.518" y="0" stroke="none">x</tspan></text>
			<path fill="none" stroke-width="0.75" stroke-linecap="square" stroke-miterlimit="10" d="M192.375,384h90v48h-90V384z"/>
			<text transform="matrix(1 0 0 1 210.375 414.7505)" font-family="'Verdana'" font-size="18"><tspan x="0" y="0" stroke="none">S</tspan><tspan x="11.999" y="0" stroke="none">p</tspan><tspan x="23.25" y="0" stroke="none">r</tspan><tspan x="30.751" y="0" stroke="none">i</tspan><tspan x="35.997" y="0" stroke="none">t</tspan><tspan x="42.748" y="0" stroke="none">e</tspan></text>
			<path fill="none" stroke-width="0.75" stroke-linecap="square" stroke-miterlimit="10" d="M96.375,384h90v48h-90V384z"/>
			<text transform="matrix(1 0 0 1 111.375 414.7505)" font-family="'Verdana'" font-size="18"><tspan x="0" y="0" stroke="none">B</tspan><tspan x="11.998" y="0" stroke="none">u</tspan><tspan x="23.245" y="0" stroke="none">t</tspan><tspan x="30.751" y="0" stroke="none">t</tspan><tspan x="37.502" y="0" stroke="none">o</tspan><tspan x="48.751" y="0" stroke="none">n</tspan></text>
			<path fill="none" stroke-width="0.75" stroke-linecap="square" stroke-miterlimit="10" d="M0.375,384h90v48h-90V384z"/>
			<text transform="matrix(1 0 0 1 16.875 414.7505)" font-family="'Verdana'" font-size="18"><tspan x="0" y="0" stroke="none">S</tspan><tspan x="11.999" y="0" stroke="none">h</tspan><tspan x="23.245" y="0" stroke="none">a</tspan><tspan x="33.75" y="0" stroke="none">p</tspan><tspan x="45" y="0" stroke="none">e</tspan></text>
			<path fill="none" stroke-width="0.75" stroke-linecap="square" stroke-miterlimit="10" d="M306.375,384h90v48h-90V384z"/>
			<text transform="matrix(1 0 0 1 323.6255 414.7505)" font-family="'Verdana'" font-size="18"><tspan x="0" y="0" stroke="none">G</tspan><tspan x="14.245" y="0" stroke="none">r</tspan><tspan x="21.747" y="0" stroke="none">o</tspan><tspan x="32.995" y="0" stroke="none">u</tspan><tspan x="44.242" y="0" stroke="none">p</tspan></text>
			<path fill="none" stroke-width="0.75" stroke-linecap="square" stroke-miterlimit="10" d="M402.375,384h90v48h-90V384z"/>
			<text transform="matrix(1 0 0 1 427.8755 414.7505)" font-family="'Verdana'" font-size="18"><tspan x="0" y="0" stroke="none">T</tspan><tspan x="11.254" y="0" stroke="none">e</tspan><tspan x="21.761" y="0" stroke="none">x</tspan><tspan x="32.269" y="0" stroke="none">t</tspan></text>
			<path fill="none" stroke-width="0.75" stroke-linecap="square" stroke-miterlimit="10" d="M510.375,216h108v48h-108V216z"/>
			<text transform="matrix(1 0 0 1 526.1255 246.7505)" font-family="'Verdana'" font-size="18"><tspan x="0" y="0" stroke="none">T</tspan><tspan x="11.254" y="0" stroke="none">i</tspan><tspan x="15.762" y="0" stroke="none">m</tspan><tspan x="33.017" y="0" stroke="none">e</tspan><tspan x="44.262" y="0" stroke="none">l</tspan><tspan x="48.77" y="0" stroke="none">i</tspan><tspan x="54.015" y="0" stroke="none">n</tspan><tspan x="65.262" y="0" stroke="none">e</tspan></text>
			<path fill="none" stroke-width="0.75" stroke-linecap="square" stroke-miterlimit="10" d="M510.375,288h108v48h-108V288z"/>
			<text transform="matrix(1 0 0 1 535.8755 318.7505)" font-family="'Verdana'" font-size="18"><tspan x="0" y="0" stroke="none">F</tspan><tspan x="10.507" y="0" stroke="none">r</tspan><tspan x="18.009" y="0" stroke="none">a</tspan><tspan x="28.513" y="0" stroke="none">m</tspan><tspan x="45.769" y="0" stroke="none">e</tspan></text>
			<path fill="none" stroke-width="0.75" stroke-linecap="round" stroke-linejoin="round" stroke-miterlimit="10" d="M264.375,114
				v18"/>
			<path fill-rule="evenodd" clip-rule="evenodd" stroke="none" d="M260.625,130.5l3.75,7.5l4.5-7.5H260.625z"/>
			<path fill="none" stroke-width="0.75" stroke-linecap="round" stroke-linejoin="round" stroke-miterlimit="10" d="M264.375,186
				v18"/>
			<path fill-rule="evenodd" clip-rule="evenodd" stroke="none" d="M260.625,202.5l3.75,7.5l4.5-7.5H260.625z"/>
			<path fill="none" stroke-width="0.75" stroke-linecap="round" stroke-linejoin="round" stroke-miterlimit="10" d="M264.375,258
				v21h132v15"/>
			<path fill-rule="evenodd" clip-rule="evenodd" stroke="none" d="M392.625,292.5l3.75,7.5l4.5-7.5H392.625z"/>
			<path fill="none" stroke-width="0.75" stroke-linecap="round" stroke-linejoin="round" stroke-miterlimit="10" d="M264.375,258
				v21h-114v15"/>
			<path fill-rule="evenodd" clip-rule="evenodd" stroke="none" d="M146.625,292.5l3.75,7.5l4.5-7.5H146.625z"/>
			<path fill="none" stroke-width="0.75" stroke-linecap="round" stroke-linejoin="round" stroke-miterlimit="10" d="M564.375,120
				v18"/>
			<path fill-rule="evenodd" clip-rule="evenodd" stroke="none" d="M560.625,136.5l3.75,7.5l4.5-7.5H560.625z"/>
			<path fill="none" stroke-width="0.75" stroke-linecap="round" stroke-linejoin="round" stroke-miterlimit="10" d="M564.375,192
				v18"/>
			<path fill-rule="evenodd" clip-rule="evenodd" stroke="none" d="M560.625,208.5l3.75,7.5l4.5-7.5H560.625z"/>
			<path fill="none" stroke-width="0.75" stroke-linecap="round" stroke-linejoin="round" stroke-miterlimit="10" d="M564.375,264
				v18"/>
			<path fill-rule="evenodd" clip-rule="evenodd" stroke="none" d="M560.625,280.5l3.75,7.5l4.5-7.5H560.625z"/>
			<text transform="matrix(1 0 0 1 49.875 117)" font-family="'Verdana'" font-size="24"><tspan x="0" y="0" stroke="none">L</tspan><tspan x="13.503" y="0" stroke="none">a</tspan><tspan x="27.75" y="0" stroke="none">y</tspan><tspan x="42" y="0" stroke="none">o</tspan><tspan x="56.255" y="0" stroke="none">u</tspan><tspan x="71.25" y="0" stroke="none">t</tspan></text>
			<path fill="none" stroke-width="0.75" stroke-linecap="round" stroke-linejoin="round" stroke-miterlimit="10" d="M150.375,348
				v18h-105v12"/>
			<path fill-rule="evenodd" clip-rule="evenodd" stroke="none" d="M41.625,376.5l3.75,7.5l4.5-7.5H41.625z"/>
			<path fill="none" stroke-width="0.75" stroke-linecap="round" stroke-linejoin="round" stroke-miterlimit="10" d="M150.375,348
				v18h87v12"/>
			<path fill-rule="evenodd" clip-rule="evenodd" stroke="none" d="M233.625,376.5l3.75,7.5l4.5-7.5H233.625z"/>
			<path fill="none" stroke-width="0.75" stroke-linecap="round" stroke-linejoin="round" stroke-miterlimit="10" d="M150.375,348
				v18h-9v12"/>
			<path fill-rule="evenodd" clip-rule="evenodd" stroke="none" d="M137.625,376.5l3.75,7.5l4.5-7.5H137.625z"/>
			<path fill="none" stroke-width="0.75" stroke-linecap="round" stroke-linejoin="round" stroke-miterlimit="10" d="M396.375,348
				v18h-45v12"/>
			<path fill-rule="evenodd" clip-rule="evenodd" stroke="none" d="M347.625,376.5l3.75,7.5l4.5-7.5H347.625z"/>
			<path fill="none" stroke-width="0.75" stroke-linecap="round" stroke-linejoin="round" stroke-miterlimit="10" d="M396.375,348
				v18h51v12"/>
			<path fill-rule="evenodd" clip-rule="evenodd" stroke="none" d="M443.625,376.5l3.75,7.5l4.5-7.5H443.625z"/>
			<text transform="matrix(1 0 0 1 505.8755 459.7505)" font-family="'Verdana'" font-size="12"><tspan x="0" y="0" stroke="none">K</tspan><tspan x="8.255" y="0" stroke="none">r</tspan><tspan x="12.752" y="0" stroke="none">a</tspan><tspan x="20.246" y="0" stroke="none">c</tspan><tspan x="26.246" y="0" stroke="none">h</tspan><tspan x="33.744" y="0" stroke="none">t</tspan><tspan x="38.989" y="0" stroke="none"> </tspan><tspan x="43.483" y="0" stroke="none">1</tspan><tspan x="50.98" y="0" stroke="none">1</tspan><tspan x="58.478" y="0" stroke="none">.</tspan><tspan x="62.975" y="0" stroke="none">0</tspan><tspan x="70.472" y="0" stroke="none">8</tspan><tspan x="77.969" y="0" stroke="none">.</tspan><tspan x="82.466" y="0" stroke="none">2</tspan><tspan x="89.963" y="0" stroke="none">0</tspan><tspan x="97.459" y="0" stroke="none">0</tspan><tspan x="104.956" y="0" stroke="none">3</tspan></text>
		</g>
	</g>
</svg>
